<?xml version="1.0" encoding="UTF-8"?>
<svg width="170px" height="61px" viewBox="0 0 170 61" version="1.1" xmlns="http://www.w3.org/2000/svg" xmlns:xlink="http://www.w3.org/1999/xlink">
    <!-- Generator: Sketch 55 (78076) - https://sketchapp.com -->
    <title>Group 40</title>
    <desc>Created with Sketch.</desc>
    <defs>
        <polygon id="path-1" points="0 0.52448 57.4417796 0.52448 57.4417796 43.907248 0 43.907248"></polygon>
        <polygon id="path-3" points="0.534790244 0.50712 23.4542049 0.50712 23.4542049 24 0.534790244 24"></polygon>
        <polygon id="path-5" points="0 0.101845353 39.4470269 0.101845353 39.4470269 33 0 33"></polygon>
    </defs>
    <g id="Projets" stroke="none" stroke-width="1" fill="none" fill-rule="evenodd">
        <g id="ZEROSIX" transform="translate(-801.000000, -2401.000000)">
            <g id="Group-40" transform="translate(801.250000, 2401.000000)">
                <g id="Group-9">
                    <g id="Group-3" transform="translate(-0.143035, 0.000000)">
                        <mask id="mask-2" fill="white">
                            <use xlink:href="#path-1"></use>
                        </mask>
                        <g id="Clip-2"></g>
                        <path d="M21.788351,41.9354613 L18.8167388,41.9354613 L11.6862898,41.9354613 L4.28241224,41.9354613 L2.06184082,13.9338613 L5.96322857,13.9338613 L7.9228,13.9338613 L7.93286122,13.9338613 L7.94173878,17.4884747 L7.92812653,17.4884747 L7.92812653,19.4596747 C7.92812653,20.004688 8.37082041,20.446448 8.91826939,20.446448 C9.4663102,20.446448 9.90900408,20.004688 9.90900408,19.4596747 L9.90900408,19.239088 L9.9172898,19.239088 L9.90959592,13.9338613 L20.5987592,13.9338613 L20.5969837,19.239088 L20.6064531,19.239088 L20.6064531,19.4596747 C20.6064531,20.004688 21.0491469,20.446448 21.5971878,20.446448 C22.1440449,20.446448 22.5873306,20.004688 22.5873306,19.4596747 L22.5873306,17.4884747 L22.5707592,17.4884747 L22.5754939,13.9338613 L22.5802286,13.9338613 L24.5392082,13.9338613 L28.4417796,13.9338613 L27.7848408,22.2158347 L20.7982082,22.2158347 C20.2501673,22.2158347 19.8074735,22.6564213 19.8074735,23.2020213 L19.8074735,30.103568 C19.8074735,30.6479947 20.2501673,31.0897547 20.7982082,31.0897547 L21.788351,31.0897547 L21.788351,41.9354613 Z M15.2521061,4.46858133 C18.2012286,4.46858133 20.5999429,6.85631467 20.5999429,9.791408 L20.5987592,11.9620747 L9.90663673,11.9620747 L9.90367755,9.791408 C9.90367755,6.85631467 12.3035755,4.46858133 15.2521061,4.46858133 L15.2521061,4.46858133 Z M42.5860857,2.496208 L48.5281265,2.496208 L48.5281265,12.3563147 L46.1513102,10.581648 C45.7985755,10.3188213 45.3156367,10.3188213 44.962902,10.581648 L42.5860857,12.3563147 L42.5860857,2.496208 Z M29.2235959,29.1173813 L27.2373918,29.1173813 L22.7784939,29.1173813 L22.7329224,29.1173813 L21.788351,29.1173813 L21.788351,24.1876213 L27.6274122,24.1876213 L29.6142082,24.1876213 L30.7014122,24.1876213 L30.7014122,26.1599947 C30.7014122,26.7038347 31.1441061,27.1455947 31.6921469,27.1455947 C32.2395959,27.1455947 32.6822898,26.7038347 32.6822898,26.1599947 L32.6822898,24.1876213 L41.5959429,24.1876213 L41.5959429,24.927408 L43.5762286,24.927408 L43.5762286,23.2020213 C43.5762286,22.6564213 43.1335347,22.2158347 42.5860857,22.2158347 L35.6533102,22.2158347 L35.6533102,2.496208 L40.6052082,2.496208 L40.6052082,14.3281013 C40.6052082,14.701808 40.8170857,15.043248 41.1526571,15.210448 C41.4888204,15.3770613 41.8906776,15.340688 42.1901469,15.117168 L45.5571061,12.6027147 L48.9246571,15.117168 C49.0986571,15.2468213 49.3087592,15.314288 49.5182694,15.314288 C49.6691878,15.314288 49.8218816,15.2796747 49.9615551,15.210448 C50.2971265,15.043248 50.5090041,14.701808 50.5090041,14.3281013 L50.5090041,2.496208 L55.460902,2.496208 L55.460902,23.5023947 C56.146249,23.725328 56.8055551,24.003408 57.4417796,24.323728 L57.4417796,23.820368 L57.4417796,1.510608 C57.4417796,0.965594667 56.9990857,0.524421333 56.4510449,0.524421333 L34.6631673,0.524421333 C34.1157184,0.524421333 33.6730245,0.965594667 33.6730245,1.510608 L33.6730245,22.2158347 L29.7716367,22.2158347 L29.9994939,19.337648 C29.9994939,19.3364747 30.0000857,19.335888 30.0000857,19.3353013 L30.5007796,13.0257013 C30.5214939,12.7505547 30.4279837,12.4801013 30.2397796,12.278288 C30.0527592,12.0770613 29.7893918,11.9620747 29.5130041,11.9620747 L24.5392082,11.9620747 L22.5802286,11.9620747 L22.5772694,11.9620747 L22.5802286,9.791408 C22.5802286,5.76922133 19.2925755,2.496208 15.2521061,2.496208 C11.2098612,2.496208 7.9228,5.76922133 7.9228,9.791408 L7.92812653,11.9620747 L7.9228,11.9620747 L5.96322857,11.9620747 L0.990616327,11.9620747 C0.714228571,11.9620747 0.450861224,12.0770613 0.26324898,12.278288 C0.075044898,12.4801013 -0.0184653061,12.7505547 0.00284081633,13.0257013 L0.503534694,19.3353013 L0.503534694,19.337648 L2.38024898,42.9985013 C2.42049388,43.5118347 2.85135102,43.907248 3.36743265,43.907248 L11.6862898,43.907248 L18.8167388,43.907248 L22.7784939,43.907248 L27.1355959,43.907248 L38.6462286,43.907248 C38.2905347,43.2783413 37.988698,42.6177547 37.731249,41.9354613 L28.2068204,41.9354613 L26.2212082,41.9354613 L23.7692286,41.9354613 L23.7692286,31.0897547 L27.0805551,31.0897547 L29.067351,31.0897547 L30.7014122,31.0897547 L30.7014122,39.667408 C30.7014122,40.2118347 31.1441061,40.6535947 31.6921469,40.6535947 C32.2395959,40.6535947 32.6822898,40.2118347 32.6822898,39.667408 L32.6822898,31.0897547 L38.1118,31.0897547 C38.4278408,30.4033547 38.7882694,29.742768 39.2061061,29.1203147 L39.2061061,29.1173813 L29.2235959,29.1173813 Z" id="Fill-1" fill="#000000" mask="url(#mask-2)"></path>
                    </g>
                    <path d="M52.7138643,36.1431011 L52.7138643,31.8571835 C52.7138643,31.3859033 52.3279609,31 51.8566808,31 C51.3854006,31 50.9994973,31.3859033 50.9994973,31.8571835 L50.9994973,36.1431011 L46.7141489,36.1431011 C46.2428687,36.1431011 45.8569654,36.5290044 45.8569654,37.0002846 C45.8569654,37.4715648 46.2428687,37.8574681 46.7141489,37.8574681 L50.9994973,37.8574681 L50.9994973,42.1433857 C50.9994973,42.6146658 51.3854006,43 51.8566808,43 C52.3279609,43 52.7138643,42.6146658 52.7138643,42.1433857 L52.7138643,37.8574681 L56.9997818,37.8574681 C57.471062,37.8574681 57.8569654,37.4715648 57.8569654,37.0002846 C57.8569654,36.5290044 57.471062,36.1431011 56.9997818,36.1431011 L52.7138643,36.1431011 Z" id="Fill-4" fill="#E74C3C"></path>
                    <g id="Group-8" transform="translate(39.856965, 25.000000)">
                        <mask id="mask-4" fill="white">
                            <use xlink:href="#path-3"></use>
                        </mask>
                        <g id="Clip-7"></g>
                        <path d="M11.9944976,22.19292 C10.028839,22.19292 8.20366829,21.58752 6.67879024,20.55732 C6.35274146,20.34072 6.05303415,20.10552 5.76210732,19.85292 C5.70942439,19.80732 5.6561561,19.75332 5.61225366,19.70772 C5.3921561,19.50912 5.18025366,19.30152 4.98649756,19.08432 C4.89810732,18.99432 4.81030244,18.89472 4.73069268,18.79512 C4.57205854,18.61452 4.42220488,18.41592 4.28113171,18.22632 C4.20152195,18.11772 4.12249756,18.01812 4.04347317,17.91012 C3.86669268,17.64792 3.69927805,17.36772 3.5406439,17.08752 C3.49674146,17.01552 3.46103415,16.94292 3.4259122,16.86192 C3.27605854,16.57272 3.14376585,16.28352 3.02961951,15.98532 C2.98513171,15.86772 2.94122927,15.75072 2.90610732,15.63312 C2.81771707,15.39792 2.74747317,15.15432 2.6766439,14.91012 C2.64152195,14.78352 2.6064,14.65692 2.58005854,14.53032 C2.51800976,14.27772 2.47410732,14.01552 2.43898537,13.75392 C2.42142439,13.63632 2.40327805,13.52772 2.38571707,13.41012 C2.32425366,13.02132 2.2979122,12.64212 2.2979122,12.25392 C2.2979122,6.76872 6.64366829,2.31432 11.9944976,2.31432 C12.3732293,2.31432 12.7437659,2.34192 13.1143024,2.38692 C13.2284488,2.40492 13.3431805,2.42292 13.4491317,2.44092 C13.7043512,2.47692 13.9601561,2.53092 14.2071805,2.58552 C14.3306927,2.61252 14.4629854,2.64852 14.5859122,2.68512 C14.8241561,2.74812 15.0624,2.82972 15.291278,2.91972 C15.4060098,2.96532 15.5207415,3.00132 15.6348878,3.04632 C15.9258146,3.16392 16.207961,3.29952 16.4901073,3.45312 C16.5609366,3.48912 16.639961,3.53412 16.7107902,3.57972 C16.9835707,3.73272 17.2487415,3.90492 17.5127415,4.09452 C17.6186927,4.16712 17.7246439,4.25712 17.8212293,4.33872 C18.0155707,4.48272 18.2005463,4.63692 18.3767415,4.79952 C18.4739122,4.88952 18.5704976,4.97112 18.6588878,5.06112 C18.8702049,5.26872 19.0733268,5.47692 19.2583024,5.70312 C19.3022049,5.75712 19.3554732,5.80212 19.3993756,5.86572 C19.6458146,6.16392 19.875278,6.48012 20.0871805,6.80532 C21.1004488,8.36832 21.6910829,10.23852 21.6910829,12.25392 C21.6910829,17.73852 17.3453268,22.19292 11.9944976,22.19292 L11.9944976,22.19292 Z M20.5630829,4.46472 C20.4922537,4.38372 20.4132293,4.31112 20.3424,4.23912 C20.2019122,4.07652 20.0514732,3.92292 19.9016195,3.77832 C19.7605463,3.64272 19.6194732,3.51612 19.4789854,3.38052 C19.3373268,3.25452 19.196839,3.13692 19.0464,3.01932 C18.8877659,2.89272 18.7203512,2.76612 18.5529366,2.63952 C18.4118634,2.54052 18.2620098,2.44092 18.1121561,2.34192 C17.935961,2.22432 17.7597659,2.11572 17.5835707,2.00712 C17.4243512,1.91712 17.2657171,1.83552 17.1070829,1.75452 C16.9308878,1.66392 16.7459122,1.56432 16.5609366,1.48332 C16.3753756,1.40172 16.1904,1.32972 16.0054244,1.26672 C15.8292293,1.20312 15.6618146,1.13052 15.4850341,1.06752 C15.2737171,0.99492 15.0536195,0.94092 14.8329366,0.88692 C14.6743024,0.84192 14.5244488,0.79632 14.3658146,0.76032 C14.1012293,0.70572 13.8366439,0.66972 13.5726439,0.62472 C13.4491317,0.60672 13.3256195,0.57972 13.2021073,0.57072 C12.7970341,0.53412 12.4001561,0.50712 11.9944976,0.50712 C5.67430244,0.50712 0.534790244,5.77512 0.534790244,12.25392 C0.534790244,12.66912 0.561131707,13.08492 0.596253659,13.48212 C0.613814634,13.60872 0.640741463,13.73532 0.658302439,13.87092 C0.69342439,14.14212 0.728546341,14.41332 0.781229268,14.68392 C0.816936585,14.84652 0.860839024,15.00972 0.904741463,15.17232 C0.958009756,15.39792 1.01069268,15.62412 1.08093659,15.84072 C1.13420488,16.02132 1.20444878,16.20252 1.27527805,16.38312 C1.34552195,16.57272 1.40757073,16.76232 1.48659512,16.94292 C1.56620488,17.13252 1.66337561,17.32272 1.75118049,17.50332 C1.83079024,17.66592 1.90981463,17.82852 1.99820488,17.99112 C2.1041561,18.18072 2.20952195,18.36192 2.32425366,18.54252 C2.42142439,18.69612 2.50922927,18.84072 2.6064,18.98532 C2.72932683,19.15692 2.85283902,19.32852 2.97635122,19.49112 C3.09108293,19.63572 3.20581463,19.78032 3.32054634,19.92492 C3.44405854,20.07852 3.57576585,20.22312 3.70805854,20.36772 C3.84913171,20.52132 3.99898537,20.66592 4.14883902,20.81952 C4.24600976,20.88252 4.30747317,20.96412 4.38708293,21.03612 L6.13205854,22.32852 C7.85127805,23.38572 9.85205854,24.00012 11.9944976,24.00012 C18.3146927,24.00012 23.4542049,18.73212 23.4542049,12.25392 C23.4542049,10.05792 22.8547902,8.00652 21.8233756,6.24492 L20.5630829,4.46472 Z" id="Fill-6" fill="#E74C3C" mask="url(#mask-4)"></path>
                    </g>
                </g>
                <g id="Group-12" transform="translate(104.750000, 1.000000)">
                    <path d="M51.9040858,27 L27.8779078,27 C27.3054994,27 26.8569654,27.659 26.8569654,28.5 C26.8569654,29.341 27.3054994,30 27.8779078,30 L51.836023,30 C52.4084313,30 52.8569654,29.341 52.8569654,28.5 C52.8569654,27.617 52.4649235,27 51.9040858,27" id="Fill-1" fill="#E74C3C"></path>
                    <path d="M27.8779078,18 L51.836023,18 C52.4084313,18 52.8569654,17.341 52.8569654,16.5 C52.8569654,15.617 52.4649235,15 51.9040858,15 L27.8779078,15 C27.3054994,15 26.8569654,15.659 26.8569654,16.5 C26.8569654,17.341 27.3054994,18 27.8779078,18" id="Fill-3" fill="#E74C3C"></path>
                    <g id="Group-7" transform="translate(0.856965, 27.000000)">
                        <mask id="mask-6" fill="white">
                            <use xlink:href="#path-5"></use>
                        </mask>
                        <g id="Clip-6"></g>
                        <path d="M38.7807213,19.161912 C38.2856393,18.968532 37.7341639,19.237152 37.5302295,19.773072 C35.226623,26.386932 28.0692459,31.020132 20.131541,31.020132 C16.5807213,31.020132 13.1354754,30.122532 10.1676066,28.425672 C9.85940984,28.271232 9.48563934,28.271892 9.14596721,28.442832 C8.09678689,29.090292 6.79383607,29.520612 5.32301639,29.695512 L3.68957377,29.888892 L4.74203279,28.617732 C5.29088525,27.954432 5.72170492,27.158472 6.14006557,26.036472 C6.2535082,25.692612 6.17285246,25.269552 5.9282623,24.981792 C3.30334426,22.274472 1.90137705,18.851052 1.90137705,15.113472 C1.90137705,9.876372 4.86334426,4.952772 9.82531148,1.942512 C10.0633443,1.802592 10.226623,1.590732 10.2921967,1.340592 C10.3577705,1.091112 10.3210492,0.826452 10.1879344,0.596772 C10.0528525,0.365112 9.84236066,0.200772 9.59383607,0.134772 C9.34465574,0.066792 9.08367213,0.105072 8.85481967,0.240372 C3.31121311,3.537072 -0.000262295082,9.097572 -0.000262295082,15.113472 C-0.000262295082,18.909792 1.36629508,22.650672 3.8482623,25.647072 L4.15580328,26.019972 L3.89547541,26.427192 C3.16367213,27.573612 2.43318033,28.350432 1.60039344,28.868532 C1.05088525,29.242092 0.826622951,29.816952 0.968918033,30.484872 C1.10465574,31.078872 1.61088525,31.527672 2.25613115,31.620072 C4.91580328,31.942812 7.33022951,31.585752 9.41678689,30.559452 L9.7144918,30.412932 L10.0076066,30.566712 C13.0443279,32.158632 16.5446557,33.000132 20.131541,33.000132 C28.9879344,33.000132 36.7243279,27.951132 39.3820328,20.437032 C39.5794098,19.920252 39.3125246,19.367832 38.7807213,19.161912" id="Fill-5" fill="#333333" mask="url(#mask-6)"></path>
                    </g>
                    <path d="M51.7708035,21 L27.8752421,21 C27.3043283,21 26.8569654,21.659 26.8569654,22.5 C26.8569654,23.341 27.3043283,24 27.8752421,24 L51.8386886,24 C52.4089236,24 52.8569654,23.341 52.8569654,22.5 C52.8569654,21.775 52.4204641,21 51.7708035,21" id="Fill-8" fill="#E74C3C"></path>
                    <path d="M59.4208398,39.4049628 C57.2803487,39.3364035 55.3484251,38.7885946 53.6798849,37.7775112 C53.3810718,37.6310738 53.0007034,37.6317394 52.6550963,37.8041362 C48.9610445,39.8489342 44.7108126,40.9365644 40.3903896,40.9365644 C28.0053555,40.9365644 17.929271,32.1875977 17.929271,21.4331048 C17.929271,10.679943 28.0053555,1.9309763 40.3903896,1.9309763 C52.7760922,1.9309763 62.8515083,10.679943 62.8515083,21.4331048 C62.8515083,25.9067661 61.1495438,30.1135122 57.9294483,33.599387 C57.6941413,33.872293 57.6125861,34.2989582 57.7362559,34.6683797 C58.3258603,36.1660346 59.0264333,37.3248866 59.9302259,38.2840513 L61.0338958,39.4568815 L59.4208398,39.4049628 Z M62.8815902,38.2288045 C61.7291209,37.4859677 60.7524633,36.3723781 59.9870472,34.9233139 L59.7771427,34.5266018 L60.0672655,34.1844708 C63.1556693,30.5321899 64.8569654,26.0039473 64.8569654,21.4331048 C64.8569654,16.2066222 62.6730227,11.163852 58.7075656,7.23400567 C54.0635956,2.63254439 47.418848,0 40.4592437,0 C40.4137866,0 40.3710036,0 40.3268835,0.000665624371 C26.8328317,0.000665624371 15.8569654,9.64556276 15.8569654,21.5003328 C15.8569654,33.3551029 26.8328317,43 40.3235411,43 C44.7415629,43 48.9343051,41.9949072 52.7847826,40.0126778 L53.0822587,39.8595842 L53.3830772,40.0040247 C55.400567,40.9765019 57.5965424,41.4690639 59.9095029,41.4690639 C60.6702396,41.4690639 61.443009,41.4044984 62.2070881,41.2780298 C62.9571291,41.1781861 63.4571564,40.7162428 63.5995438,40.0073528 C63.7446052,39.2878129 63.475874,38.6235198 62.8815902,38.2288045 L62.8815902,38.2288045 Z" id="Fill-10" fill="#E74C3C"></path>
                </g>
            </g>
        </g>
    </g>
</svg>