<?xml version="1.0" encoding="UTF-8"?>
<svg width="289px" height="77px" viewBox="0 0 289 77" version="1.1" xmlns="http://www.w3.org/2000/svg" xmlns:xlink="http://www.w3.org/1999/xlink">
    <!-- Generator: Sketch 55 (78076) - https://sketchapp.com -->
    <title>Group 21</title>
    <desc>Created with Sketch.</desc>
    <defs>
        <polygon id="path-1" points="0 0.415261997 49.384183 0.415261997 49.384183 42.8035028 0 42.8035028"></polygon>
        <polygon id="path-3" points="0.486086462 0.0846428571 15.0062152 0.0846428571 15.0062152 12.7326964 0.486086462 12.7326964"></polygon>
        <polygon id="path-5" points="0.115890507 0.325553571 23.6029732 0.325553571 23.6029732 3.93305357 0.115890507 3.93305357"></polygon>
        <polygon id="path-7" points="0.000161901195 0.140201557 64.6817612 0.140201557 64.6817612 58.132011 0.000161901195 58.132011"></polygon>
    </defs>
    <g id="Projets" stroke="none" stroke-width="1" fill="none" fill-rule="evenodd">
        <g id="ZEROSIX" transform="translate(-472.000000, -2387.000000)">
            <g id="Group-21" transform="translate(470.000000, 2387.000000)">
                <g id="Group-12" transform="translate(0.000000, 13.000000)">
                    <g id="Group-3" transform="translate(27.766784, 28.659851) rotate(8.000000) translate(-27.766784, -28.659851) translate(2.867794, 7.231279)">
                        <mask id="mask-2" fill="white">
                            <use xlink:href="#path-1"></use>
                        </mask>
                        <g id="Clip-2"></g>
                        <path d="M47.1934395,25.4134721 C47.2925057,25.725103 47.2448268,26.0643996 47.0641767,26.3384469 C46.8702824,26.6145821 46.5529527,26.7826644 46.2117836,26.7884064 L24.9697666,26.830688 L21.0399643,15.4110083 L37.9273069,2.71348543 C38.2011958,2.51408343 38.5566686,2.457186 38.881415,2.56054096 C39.1939768,2.66911588 39.4408476,2.91027746 39.5547473,3.21721039 L47.1934395,25.4134721 Z M26.3339134,31.4456437 C26.5214505,31.9916503 26.2247816,32.5846363 25.6706467,32.7694225 L24.5168169,33.1551766 L21.8351427,29.7517707 L24.2937855,28.9301509 L25.4661571,28.924409 L26.3339134,31.4456437 Z M20.3517986,40.7199249 L13.8081322,32.4337799 L19.7282643,30.4559417 L26.2719308,38.7420867 L20.3517986,40.7199249 Z M8.5947075,28.6634116 L6.91058221,23.7697106 C6.34691145,22.131169 7.23797743,20.3532548 8.90038233,19.7978524 L19.1349267,16.3782646 L22.8607692,27.2044362 L12.625695,30.624024 C10.9632901,31.1794264 9.15890802,30.3019532 8.5947075,28.6634116 L8.5947075,28.6634116 Z M6.08626671,29.5017352 C4.78092392,30.1526627 3.18738857,29.6374539 2.52677069,28.3512587 C1.8661528,27.0650636 2.38903159,25.4949033 3.69437438,24.8439758 C3.91793553,24.732791 4.15580034,24.6529258 4.40214141,24.6075122 L4.90382957,24.4399519 L6.58795487,29.3341749 L6.08626671,29.5017352 Z M41.5614999,2.5464471 C41.000478,0.90790551 39.1966256,0.0273003267 37.533691,0.580614787 C37.207885,0.688667705 36.9022102,0.848398105 36.6288511,1.05302006 L19.2573026,14.1326431 L8.21963335,17.8205362 C6.21605932,18.4819035 4.80317408,20.2535538 4.62464303,22.328483 L3.72139243,22.630196 C1.15255835,23.2002143 -0.461108102,25.7141411 0.117396089,28.2452938 C0.695900279,30.7764465 3.2472521,32.3664425 5.81608618,31.7964242 C6.14348141,31.723867 6.46187062,31.61738 6.76648592,31.4790514 L7.66973651,31.1773384 C8.65404126,32.2385538 10.0393787,32.8524197 11.4983535,32.8743434 L18.7164118,41.9831522 C19.2498859,42.6894112 20.1843926,42.9780743 21.0320178,42.6972411 L26.95215,40.7194029 C27.6122381,40.5038191 28.1229323,39.9833903 28.3184159,39.3261988 C28.4911195,38.6825793 28.3581483,37.9972002 27.9565859,37.4626775 L25.9000352,34.8975952 L26.3513957,34.7467387 C28.0138006,34.1913363 28.9048665,32.4134221 28.340666,30.7748805 L27.7118341,28.9463328 L46.2064859,28.8847374 C46.5476551,28.8789954 46.8867051,28.821576 47.210392,28.7145671 C48.8547849,28.1962263 49.7606843,26.4626816 49.2346269,24.8424099 C49.2235018,24.8090022 49.2123767,24.7761165 49.2001921,24.7427089 L41.5614999,2.5464471 Z" id="Fill-1" fill="#000000" mask="url(#mask-2)"></path>
                    </g>
                    <g id="Group-6" transform="translate(62.750315, 8.033991) rotate(8.000000) translate(-62.750315, -8.033991) translate(55.023042, 1.605419)">
                        <mask id="mask-4" fill="white">
                            <use xlink:href="#path-3"></use>
                        </mask>
                        <g id="Clip-5"></g>
                        <path d="M1.7153,12.5344821 C6.22905758,9.02341071 10.595997,5.38805357 14.696603,1.729125 C15.0566939,1.40769643 15.036603,1.16823214 14.9613909,0.956625 C14.8125121,0.537160714 14.3112697,0.0844821429 13.7626333,0.0844821429 C13.5174212,0.0844821429 13.2897242,0.181446429 13.0666636,0.380732143 C9.06857273,3.94751786 4.99784545,7.346625 0.966784848,10.4826964 C0.363027273,10.9519821 0.4573,11.5980536 0.567027273,11.9419821 C0.706633333,12.3780536 1.02602727,12.7326964 1.27999697,12.7326964 C1.39642121,12.7326964 1.55096667,12.6619821 1.7153,12.5344821" id="Fill-4" fill="#E74C3C" mask="url(#mask-4)"></path>
                    </g>
                    <g id="Group-9" transform="translate(72.622172, 24.133688) rotate(8.000000) translate(-72.622172, -24.133688) translate(60.601970, 21.990831)">
                        <mask id="mask-6" fill="white">
                            <use xlink:href="#path-5"></use>
                        </mask>
                        <g id="Clip-8"></g>
                        <path d="M23.0353061,0.325553571 C22.9825217,0.325553571 22.9266017,0.329303571 22.8680685,0.336803571 C15.6674449,1.21644643 8.34034783,1.70555357 1.08955292,1.78966071 C0.180721124,1.800375 0.114348704,2.644125 0.115916557,2.90233929 C0.117484409,3.28698214 0.240299517,3.93305357 1.03467809,3.93305357 C8.1929697,3.85001786 15.4071814,3.36841071 22.4970101,2.501625 C23.4314502,2.38751786 23.6274317,1.477875 23.6007782,1.012875 C23.5605367,0.325553571 23.2056794,0.325553571 23.0353061,0.325553571" id="Fill-7" fill="#E74C3C" mask="url(#mask-6)"></path>
                    </g>
                    <path d="M78.1878614,38.6594602 C73.1213325,38.4245141 68.2417443,37.7055557 63.2698733,36.4628714 C63.1623271,36.4358674 63.0603321,36.4221217 62.9664129,36.4221434 C62.360483,36.4222838 62.0659588,37.0399352 62.0163782,37.4550686 C61.9227849,38.2271968 62.4554674,38.3601776 62.6559176,38.410109 C67.7555312,39.6854023 73.0279519,40.4562874 78.3267512,40.7023993 C78.3504833,40.7034138 78.3742153,40.7044282 78.3974426,40.7044228 C79.0240751,40.7042777 79.166579,40.2284354 79.1757605,39.8296306 C79.1803485,39.6419577 79.1527943,38.7041148 78.1878614,38.6594602" id="Fill-10" fill="#E74C3C" transform="translate(70.590776, 38.563283) rotate(8.000000) translate(-70.590776, -38.563283) "></path>
                </g>
                <g id="Group-14" transform="translate(125.750000, 9.000000)">
                    <g id="Group-3" transform="translate(-0.143035, 0.000000)">
                        <mask id="mask-8" fill="white">
                            <use xlink:href="#path-7"></use>
                        </mask>
                        <g id="Clip-2"></g>
                        <path d="M61.6537187,41.1047029 L15.2261146,56.0071025 C15.0873125,56.0508728 14.9458021,56.0727579 14.8063229,56.0727579 C14.2145521,56.0727579 13.661375,55.6911361 13.4697604,55.0954504 L2.10017708,18.966535 C1.86929167,18.2190214 2.28095833,17.4243179 3.01694792,17.1904207 L49.4425208,2.28870493 C50.175125,2.05685943 50.9618958,2.46446981 51.198875,3.20104092 L62.5684583,39.3292724 C62.7986667,40.0761022 62.3883542,40.8701217 61.6537187,41.1047029 L61.6537187,41.1047029 Z M51.198875,55.0598871 C51.0065833,55.6562567 50.4540833,56.0385624 49.8623125,56.0385624 C49.7235104,56.0385624 49.5826771,56.0180451 49.443875,55.9735909 L35.7376771,51.5808368 L54.1556979,45.6656989 L51.198875,55.0598871 Z M3.01017708,41.0691395 C2.28095833,40.8304549 1.87538542,40.0350676 2.10694792,39.2957608 L4.24382292,32.5045342 L7.36991667,42.5080862 L3.01017708,41.0691395 Z M13.4629896,3.17436843 C13.6992917,2.43711341 14.4874167,2.02676739 15.2179896,2.26134853 L29.0318437,6.69513728 L10.4865312,12.6431029 L13.4629896,3.17436843 Z M61.6523646,17.1562252 C62.3876771,17.3908063 62.7986667,18.1855098 62.5691354,18.92892 L60.4268437,25.7331409 L57.2872083,15.7795143 L61.6523646,17.1562252 Z M61.4898646,29.1349094 L64.5001771,19.5574333 C65.06825,17.7402843 64.0681979,15.7870373 62.2705417,15.2043459 L56.5214271,13.3612084 L53.1387187,2.5862058 C52.5645521,0.768372924 50.6308021,-0.241762197 48.8297604,0.336825692 L32.3746042,5.61387552 L15.8381979,0.30263019 C15.4942396,0.192520675 15.1455417,0.139859602 14.8022604,0.139859602 C13.3478854,0.139859602 11.9937187,1.08160372 11.5292396,2.55337811 L8.112,13.4015591 L2.39538542,15.2392253 C0.595697917,15.8191811 -0.404354167,17.7724281 0.16778125,19.5916288 L3.16522917,29.1349094 L0.1616875,38.6768222 C-0.411125,40.4967068 0.58825,42.44927 2.38929167,43.0285418 L8.13908333,44.866208 L11.5495521,55.7157568 C12.0031979,57.1499162 13.3106458,58.1217523 14.8022604,58.132011 C15.1529896,58.1313271 15.5050729,58.0759304 15.8442917,57.9665048 L32.3881458,52.6552594 L48.8433021,57.9316253 C50.6450208,58.5081615 52.5794479,57.4973425 53.1522604,55.6754061 L56.5424167,44.9004035 L62.2928854,43.0565821 C64.0939271,42.4766264 65.092625,40.5233793 64.5204896,38.7041786 L61.4898646,29.1349094 Z" id="Fill-1" fill="#000000" mask="url(#mask-8)"></path>
                    </g>
                    <path d="M43.8931023,17.9705282 C43.9771712,18.227838 44.1546501,18.4371977 44.3935126,18.5594368 C44.6330423,18.6830265 44.9065999,18.7046379 45.1621427,18.6188679 C45.4176856,18.5344487 45.6258563,18.3541292 45.7472892,18.1116772 C45.8693893,17.8685498 45.8900729,17.5923301 45.8066712,17.3336696 L44.0385549,11.6951404 C43.9564876,11.442558 43.7830121,11.2365751 43.54882,11.1136607 C43.311292,10.990071 43.0410704,10.9657582 42.7861948,11.0481514 L37.2343097,12.824332 C36.9787668,12.9053744 36.7705962,13.0829925 36.6471616,13.3234185 C36.5237271,13.5638444 36.5003746,13.8387135 36.5811075,14.0966986 C36.6618403,14.3546838 36.8373175,14.5660695 37.0748456,14.69101 C37.3110392,14.8159505 37.581928,14.8395878 37.8388053,14.75787 L41.088136,13.7212019 L34.3886433,26.7778176 L26.2733232,25.0516132 C26.2039329,25.0367554 26.1345427,25.0293265 26.0658197,25.0293265 C25.7188686,25.0293265 25.3919339,25.2136981 25.2104518,25.5243609 L17.0023889,39.4589366 C16.8629413,39.6939598 16.8222412,39.9668027 16.886961,40.2295154 C16.9523479,40.492228 17.1138136,40.7144194 17.3433351,40.8535423 C17.5735238,40.9946913 17.8437454,41.0352125 18.1026243,40.9690278 C18.3628376,40.9041938 18.5816837,40.7400829 18.719797,40.5077611 L26.547548,27.1972124 L34.7129091,28.9159879 C35.1519357,29.0091867 35.6009706,28.7937488 35.8051379,28.3912379 L42.8709309,14.6856072 L43.8931023,17.9705282 Z" id="Fill-4" fill="#E74C3C"></path>
                    <path d="M45.8842042,24.7490008 C45.800594,24.4762474 45.6188627,24.252761 45.372869,24.1213824 C45.2229234,24.0406988 45.06054,24 44.8960835,24 C44.7910525,24 44.6853305,24.0171363 44.5816815,24.049981 C44.317031,24.1370907 44.102132,24.3241624 43.9736072,24.5783514 C43.8464644,24.8332544 43.8222797,25.1231441 43.9058899,25.3966115 L47.8307328,38.2488646 C48.0014082,38.8122217 48.5811517,39.1278159 49.1304915,38.9507405 C49.394451,38.8650588 49.611423,38.6772731 49.7385658,38.4237981 C49.8670906,38.1703231 49.8919663,37.8804334 49.8083561,37.60768 L45.8842042,24.7490008 Z" id="Fill-6" fill="#E74C3C"></path>
                    <path d="M41.7185287,40.3452763 L39.8216977,33.7550411 C39.6869281,33.2951066 39.2893245,33 38.8615485,33 C38.7623152,33 38.6603999,33.015835 38.5604961,33.0496643 C38.0314754,33.2281678 37.737128,33.8363754 37.9034108,34.4042758 L39.8605864,41.1067954 C39.8773488,41.2068438 39.9068506,41.3025735 39.9464098,41.3918252 C40.0637465,41.6509433 40.268918,41.8460016 40.5230357,41.9402917 C40.7771534,42.0345819 41.050045,42.0165876 41.2914232,41.8906274 C41.7896012,41.6307896 41.9981252,40.9837143 41.7560764,40.447484 L41.7185287,40.3452763 Z" id="Fill-8" fill="#E74C3C"></path>
                    <path d="M30.5886619,33.7005774 C30.5177787,33.4459432 30.3630171,33.2373031 30.153321,33.1139855 C30.0245498,33.0386617 29.8857369,33 29.7445612,33 C29.6553666,33 29.5655812,33.015998 29.4775679,33.0473273 C29.2519231,33.1273171 29.0670361,33.3012949 28.9577579,33.5379315 C28.8484796,33.7752346 28.8272147,34.0458667 28.8980979,34.300501 L31.1250113,42.2994818 C31.1958945,42.554116 31.3506561,42.7627561 31.5603522,42.8860737 C31.7700483,43.0100579 32.0110511,43.0333883 32.2361053,42.9533985 C32.4617501,42.8734087 32.646637,42.6987643 32.7559153,42.4621277 C32.8651935,42.2254912 32.8870492,41.954859 32.8155753,41.7002248 L30.5886619,33.7005774 Z" id="Fill-10" fill="#E74C3C"></path>
                    <path d="M24.2096614,43.5872897 C24.0494555,43.229809 23.5728428,43 23.0593829,43 C22.9416315,43 22.8230791,43.0127672 22.7045268,43.0377464 C22.3977324,43.1038026 22.1462091,43.2486822 21.9964166,43.4451856 C21.846624,43.6427992 21.8161849,43.8681674 21.9115074,44.0807685 L22.5042694,45.4135498 C22.5987908,45.6255959 22.8078596,45.7998955 23.0922251,45.9036981 C23.3773916,46.0080558 23.7010076,46.0274841 24.009404,45.9625381 C24.3161983,45.8964819 24.5677216,45.7521573 24.7175141,45.5550989 C24.8673067,45.3580404 24.8977458,45.1321171 24.8024233,44.919516 L24.2096614,43.5872897 Z" id="Fill-12" fill="#E74C3C"></path>
                </g>
                <g id="Group-17" transform="translate(231.500000, 0.000000)">
                    <path d="M52.1716784,49.6872542 L54.7387797,47.9874621 C55.12715,47.7299378 55.6643809,47.817318 55.9382565,48.182831 C55.9763045,48.2334456 56.0078651,48.2878521 56.0327628,48.3452263 C56.2729738,48.9024811 56.5095027,49.4745741 56.7341087,50.0450183 C57.0912691,50.954267 56.8507075,51.9759558 56.1185024,52.6583456 L55.8730313,52.8889963 C54.8269739,53.4457566 53.4995015,53.1175038 52.8800377,52.1489026 C52.5959926,51.705242 52.2856471,51.2535029 51.9577679,50.8050612 C51.6859963,50.4393833 51.7808534,49.9357107 52.169925,49.6801648 C52.170451,49.6798351 52.1711524,49.6793405 52.1716784,49.6790107 L52.1716784,49.6872542 Z M50.3499324,51.8486774 C50.6551932,52.2659591 50.9443231,52.6862083 51.2073278,53.0983791 C52.3926023,54.9538068 54.9528655,55.554422 56.9261022,54.4399123 C56.9517013,54.4255688 56.9769497,54.4107307 57.0021982,54.3960574 C57.0660207,54.3599512 57.1249337,54.3167557 57.1775347,54.2672952 L57.5071672,53.9573429 C58.7776553,52.7646857 59.1939041,50.9860865 58.573213,49.4021969 C58.3400155,48.8151009 58.0962978,48.2265211 57.8490734,47.6527795 C57.2652029,46.2983865 55.6242289,45.645508 54.1840151,46.1945194 C53.9848328,46.2705237 53.7956448,46.3676311 53.6199576,46.4838633 L51.0512783,48.1836553 C49.7916611,49.0198673 49.4793868,50.6522283 50.3499324,51.8486774 L50.3499324,51.8486774 Z" id="Fill-1" fill="#E74C3C"></path>
                    <path d="M49.0789114,72.7453572 L51.0911604,70.2761607 C51.3937295,69.9073551 51.9498419,69.83898 52.3405841,70.1222731 C52.8198652,70.4720177 53.3046343,70.8060237 53.7820861,71.1137989 C54.8257117,71.7795376 55.1215123,73.1204582 54.4479576,74.1320942 L54.179048,74.3646744 C53.3854902,75.0583927 52.2412522,75.2449814 51.2521403,74.8420757 C50.6283431,74.5851883 50.0082046,74.3174588 49.4043469,74.051653 C49.1553769,73.9418332 48.9731769,73.7281393 48.9106142,73.4728258 C48.8454905,73.2185615 48.9075044,72.9497828 49.0789114,72.7453572 L49.0789114,72.7453572 Z M48.5465801,75.8196116 C49.168365,76.0959098 49.8086261,76.3687106 50.4488871,76.6327677 C51.0410371,76.8751407 51.6781883,77.0001743 52.322108,76.9999995 C53.5159205,76.9996497 54.6671098,76.5759342 55.5528653,75.810868 L55.9187287,75.4978467 C55.9747058,75.4492322 56.025195,75.3944972 56.0687328,75.3353903 C57.4476721,73.4546391 56.9705862,70.8614582 55.0033384,69.5430962 C54.9786426,69.5266582 54.9539468,69.5103951 54.9288851,69.4944817 C54.4863733,69.2111886 54.0363612,68.899916 53.5900078,68.5746535 C52.3100345,67.6436336 50.4852905,67.8671203 49.4923371,69.0767118 L47.4800881,71.5457334 C46.4812809,72.7670413 46.7073845,74.530803 47.9849797,75.4856056 C48.1611429,75.6174593 48.3526724,75.7293775 48.5557267,75.8196116 L48.5465801,75.8196116 Z" id="Fill-3" fill="#000000"></path>
                    <path d="M10.3491278,2.38990788 C10.8919531,2.04993162 11.5181752,1.87153656 12.1563349,1.87540375 C12.8372706,1.87691699 13.5049425,2.0664092 14.0878911,2.4235356 C15.9846296,3.58369198 18.8562651,5.93595107 21.7527705,10.5463116 C22.2103752,11.262414 22.0255095,12.2176094 21.3349575,12.7052113 L18.2859172,14.8506599 C17.7079425,15.2573872 16.9325014,15.219556 16.3958107,14.7581837 C15.4837514,13.9692774 14.5300766,13.2311489 13.539097,12.547161 C13.5075953,12.5269844 10.3706816,10.4050752 8.92159995,6.60177995 C8.34329367,5.03220607 8.94149581,3.26725512 10.3491278,2.38990788 M12.5111444,14.1024431 C13.4417731,14.7449008 14.3379157,15.4374637 15.1954272,16.1772735 C16.3707751,17.1916537 18.0723683,17.2767319 19.3403977,16.384084 L22.3910959,14.2403168 C23.8996994,13.1798666 24.3082277,11.0976381 23.3145954,9.53243585 C20.2224474,4.61942579 17.1104036,2.07885146 15.0445503,0.814449144 C13.2804509,-0.265000704 11.0537728,-0.271726248 9.37091475,0.795953898 C7.21237993,2.15081478 6.30264182,4.8664214 7.20060822,7.27433437 C8.85693841,11.6375312 12.3768473,14.0116483 12.5111444,14.1024431" id="Fill-5" fill="#000000"></path>
                    <path d="M23.4514903,44.1320986 L23.1827766,44.3646784 C22.3894312,45.0575214 21.2462096,45.2435853 20.2580011,44.8403304 C19.6291743,44.5815198 19.0076595,44.3157143 18.4117365,44.0516575 C17.9620523,43.8519536 17.7666407,43.3415022 17.9753966,42.9113169 C18.0042787,42.8516856 18.04029,42.7953768 18.0826993,42.7436147 L20.0934824,40.2761703 C20.3960139,39.9073651 20.9517212,39.8389902 21.341996,40.1222829 C21.8191,40.4720269 22.3035159,40.8042838 22.7824479,41.1118837 C23.8229368,41.7798949 24.1179735,43.1192398 23.4478343,44.1320986 L23.4514903,44.1320986 Z M23.9231104,39.4944923 C23.4789101,39.2077021 23.0292258,38.8981786 22.5850256,38.5746654 C21.3059847,37.6436466 19.4827527,37.8671331 18.4903399,39.0765481 L16.4795567,41.5439925 C15.4816599,42.7651239 15.707416,44.5290581 16.9840805,45.4836846 C17.1602982,45.6155381 17.3515054,45.7276311 17.5544117,45.817865 C18.1686146,46.0924141 18.8084092,46.3652145 19.4555158,46.6327687 C20.0470516,46.8751414 20.6839215,47 21.3273721,47 C22.5197665,47 23.6697517,46.5762851 24.5537651,45.8108702 L24.919362,45.4978492 C24.9754811,45.4490599 25.0257507,45.3944998 25.0692568,45.3352182 C26.4471916,43.4544695 25.970636,40.8612921 24.0046385,39.5431067 C23.9801435,39.5266687 23.9552829,39.5104056 23.9304223,39.4944923 L23.9231104,39.4944923 Z" id="Fill-7" fill="#000000"></path>
                    <path d="M2.22560812,27.4999256 C2.85634765,26.5213526 3.89294175,25.9350026 5.00208457,25.9296533 C5.45555428,25.9294808 5.9038764,26.0318073 6.31793494,26.2299032 C9.85689681,27.9175144 11.7598931,31.2996393 11.7872396,31.3462297 C12.3906326,32.4055596 13.0467883,33.4289974 13.7529721,34.4125745 C14.1696044,34.9927125 14.1696044,35.8011438 13.7529721,36.3814543 L11.5555985,39.4391713 C11.0567657,40.1330245 10.1345445,40.2767648 9.47243686,39.7635792 C5.20637919,36.5195003 3.09587102,33.4151928 2.07278932,31.3824668 C1.44237152,30.1571368 1.50140784,28.6570954 2.22560812,27.4930233 L2.22560812,27.4999256 Z M8.43487758,41.3373025 C9.88295643,42.4494349 11.8919607,42.1303763 12.9776177,40.6160127 L15.1733827,37.54104 C16.0848262,36.269292 16.0848262,34.4988532 15.1733827,33.2271053 C14.5099882,32.3030605 13.892922,31.3417433 13.3250794,30.3471225 C13.238214,30.1866441 11.1341403,26.4076373 7.05146522,24.4594644 C4.79360754,23.4051387 2.15595492,24.2137427 0.758547567,26.388656 C-0.343356469,28.0831695 -0.443090849,30.3988897 0.502777141,32.2866675 C1.61272427,34.50403 3.88409434,37.868899 8.43487758,41.3373025 L8.43487758,41.3373025 Z" id="Fill-9" fill="#000000"></path>
                    <path d="M25.8495276,22.7707717 L25.5086736,22.8928794 C24.4999077,23.2593759 23.3570444,23.0364946 22.5850184,22.3229278 C22.0946155,21.8667584 21.6137777,21.4067732 21.1563013,20.9570214 C20.8110326,20.6174094 20.8233571,20.0783317 21.1835255,19.7529424 C21.2333751,19.7078458 21.2887432,19.6681262 21.3483421,19.6349975 L24.1772645,18.0491585 C24.6018144,17.8130952 25.1488731,17.941447 25.406399,18.3379502 C25.7198449,18.8256871 26.0467189,19.2998951 26.3780076,19.7496469 C27.0976087,20.7258147 26.8617885,22.06501 25.8460326,22.7695575 L25.8495276,22.7707717 Z M28.0660901,18.6487697 C27.7594503,18.2305856 27.4563055,17.7893328 27.1636457,17.3371527 C26.320984,16.0354223 24.5263961,15.6127284 23.1335487,16.3875226 L20.3046262,17.9733616 C18.9018456,18.757175 18.4386669,20.4647748 19.2699238,21.7874925 C19.3847068,21.9699603 19.5211955,22.1395928 19.6768148,22.2929212 C20.1475354,22.7586303 20.6429049,23.2314507 21.1471039,23.7020163 C21.6088112,24.130087 22.1578933,24.4653628 22.7610558,24.6873768 C23.8789023,25.0989699 25.1188897,25.1043468 26.2404152,24.7022934 L26.7028582,24.5392518 C26.7740457,24.5135815 26.8421061,24.4804528 26.9055679,24.4407331 C28.9168455,23.1787224 29.4622486,20.6182767 28.1238495,18.7217915 C28.1071104,18.6982025 28.0901872,18.6746136 28.0728962,18.6513715 L28.0660901,18.6487697 Z" id="Fill-11" fill="#000000"></path>
                    <path d="M33.225734,57.4998644 C33.8564751,56.5212874 34.8930719,55.9351074 36.0022175,55.9295856 C36.4555275,55.929413 36.9038508,56.03174 37.3179104,56.2298367 C40.8568814,57.9174551 42.7600435,61.2997667 42.7872292,61.3461848 C43.3906237,62.4055191 44.046942,63.4289613 44.7529667,64.4125426 C45.1696001,64.9928555 45.1696001,65.8011177 44.7529667,66.3814307 L42.5557483,69.4391605 C42.0569143,70.1331892 41.1345297,70.2767576 40.4725813,69.7635697 C36.2063518,66.5196497 34.0958382,63.4151566 33.0729147,61.382422 C32.4424953,60.1570869 32.5015318,58.6570392 33.225734,57.4929621 L33.225734,57.4998644 Z M39.4350194,71.3372997 C40.8831019,72.4494368 42.8921114,72.1303768 43.9777712,70.6160068 L46.1733809,67.5410212 C47.0848268,66.2690953 47.0848268,64.4989942 46.1733809,63.2270683 C45.5099848,62.3030196 44.8930778,61.3416983 44.3252338,60.3470733 C44.2383681,60.1865943 42.134289,56.4075716 38.0516034,54.4593904 C35.79374,53.4052329 33.1560806,54.2136677 31.7586696,56.3885902 C30.6566019,58.0831109 30.5568673,60.3988408 31.5028985,62.2866266 C32.6126877,64.5039984 34.8842244,67.8688816 39.4350194,71.3372997 L39.4350194,71.3372997 Z" id="Fill-13" fill="#000000"></path>
                    <path d="M40.349119,32.3899174 C40.891943,32.0499398 41.5183293,31.871544 42.1563216,31.8754112 C42.8372556,31.8769244 43.5049258,32.0664174 44.0878729,32.4235452 C45.9846067,33.5837062 48.8564008,35.9359746 51.752733,40.5463535 C52.2103366,41.2624587 52.0256372,42.2176579 51.3349211,42.7052618 L48.2858885,44.8507189 C47.7079152,45.2574478 46.9324761,45.2194483 46.3957867,44.7582423 C45.4838955,43.9691647 44.5302231,43.2312014 43.5390802,42.5472108 C43.5075785,42.5270341 40.3706728,40.4051165 38.9215948,36.6018062 C38.3432899,35.032226 38.9414906,33.2671 40.349119,32.3899174 M42.5111301,44.1024991 C43.4417566,44.7447911 44.3378969,45.4375249 45.1954063,46.1773377 C46.3707511,47.191722 48.0725059,47.2766323 49.3403663,46.3841491 L52.3910569,44.2403733 C53.8998223,43.1799189 54.3081838,41.0976822 53.314554,39.5324737 C50.2224138,34.6194441 47.1103778,32.0788597 45.0445297,30.8144524 C43.2804347,29.7349982 41.0537622,29.7282727 39.3709084,30.7959571 C37.212379,32.1508233 36.3026432,34.8664407 37.2006074,37.2743632 C38.8569334,41.6375774 42.3768334,44.0117039 42.5111301,44.1024991" id="Fill-15" fill="#E74C3C"></path>
                </g>
            </g>
        </g>
    </g>
</svg>