<svg width="182" height="62" viewBox="0 0 182 62" fill="none" xmlns="http://www.w3.org/2000/svg">
<path d="M0 0H61.646V61.6465H0V0Z" fill="#F0DB4F"/>
<path d="M56.6009 46.9434C56.1494 44.1311 54.3155 41.7688 48.8834 39.5661C46.9963 38.6989 44.8926 38.078 44.2657 36.6479C44.0431 35.8157 44.0136 35.3469 44.1544 34.8431C44.5587 33.2082 46.5103 32.6985 48.057 33.1673C49.0533 33.5012 49.9963 34.2689 50.5651 35.4936C53.2252 33.771 53.2198 33.7824 55.0773 32.5985C54.3972 31.5442 54.0343 31.0577 53.5891 30.6066C51.9892 28.8195 49.8092 27.8992 46.3227 27.9696L44.5065 28.2045C42.7662 28.6442 41.1077 29.5577 40.1351 30.7824C37.2169 34.0936 38.0491 39.8887 41.6001 42.2736C45.0984 44.8993 50.2376 45.4966 50.894 47.9519C51.5327 50.9578 48.6849 51.9309 45.8543 51.5852C43.7684 51.1513 42.6082 50.0911 41.3539 48.1632C39.0453 49.4992 39.0453 49.4992 36.6718 50.8642C37.2346 52.0948 37.826 52.6518 38.7696 53.7179C43.235 58.2474 54.4096 58.0248 56.4138 51.1691C56.495 50.9337 57.0348 49.3638 56.6009 46.9434ZM33.5127 28.3325H27.7467L27.7231 43.2397C27.7231 46.4101 27.8871 49.3165 27.3715 50.2073C26.5279 51.9594 24.342 51.7423 23.3458 51.4025C22.3318 50.9041 21.8162 50.1955 21.2189 49.1939C21.0549 48.9063 20.9318 48.6837 20.8904 48.6665L16.2024 51.5374C16.9819 53.1374 18.1303 54.526 19.6012 55.4282C21.7985 56.747 24.7517 57.1513 27.8403 56.4421C29.8504 55.8566 31.5848 54.6437 32.4929 52.7976C33.8057 50.3772 33.5241 47.4477 33.5122 44.2074C33.5418 38.921 33.5127 33.6356 33.5127 28.3325Z" fill="#323330"/>
<path d="M130.802 4.22607L142.129 4.23051L149.534 16.5209L156.912 4.23149L168.229 4.22854L149.59 36.5599L130.802 4.22607Z" fill="#35495E"/>
<path d="M118.448 4.31273L130.792 4.22803L149.579 36.5613L168.219 4.23L180.585 4.2428L149.578 57.4562L118.448 4.31273Z" fill="#41B883"/>
</svg>
