<svg width="290" height="62" viewBox="0 0 290 62" fill="none" xmlns="http://www.w3.org/2000/svg">
<path d="M4.92689 55.2595L0 0H54.1372L49.2049 55.2511L27.0356 61.3968L4.92689 55.2595Z" fill="#E44D26"/>
<path d="M27.0686 56.6993L44.9827 51.7325L49.1975 4.51807H27.0686V56.6993Z" fill="#F16529"/>
<path d="M27.0687 25.0129H18.1003L17.4808 18.0724H27.0687V11.2954H10.074L10.2365 13.1135L11.9019 31.7904H27.0687V25.0129ZM27.0687 42.6143L27.0386 42.6227L19.491 40.5839L19.0089 35.1794H12.2048L13.1542 45.8206L27.0376 49.6744L27.0687 49.6661V42.6143Z" fill="#EBEBEB"/>
<path d="M27.0449 25.0129V31.7904H35.3904L34.6039 40.58L27.0449 42.6202V49.6715L40.9392 45.8206L41.0411 44.6757L42.6337 26.833L42.7987 25.0129H40.9727H27.0449ZM27.0449 11.2954V18.0724H43.4157L43.5516 16.5498L43.8609 13.1135L44.0229 11.2954H27.0449Z" fill="white"/>
<path d="M114.951 55.5333L110 0H164.405L159.449 55.5249L137.17 61.7016L114.951 55.5333Z" fill="#1572B6"/>
<path d="M137.203 56.9808L155.206 51.9894L159.442 4.54053H137.203V56.9808Z" fill="#33A9DC"/>
<path d="M137.203 24.66H146.216L146.838 17.6855H137.203V10.8745H154.282L154.119 12.702L152.444 31.4709H137.203V24.66Z" fill="white"/>
<path d="M137.243 42.3483L137.213 42.3572L129.628 40.3091L129.143 34.877H122.307L123.261 45.5713L137.212 49.4434L137.243 49.4345V42.3483Z" fill="#EBEBEB"/>
<path d="M145.637 31.1831L144.816 40.3041L137.22 42.3547V49.4409L151.182 45.5713L151.285 44.4205L152.47 31.1831H145.637Z" fill="white"/>
<path d="M137.226 10.8745V17.6855H120.775L120.638 16.155L120.328 12.702L120.165 10.8745H137.226ZM137.203 24.6609V31.4719H129.714L129.577 29.9414L129.266 26.4884L129.104 24.6609H137.203Z" fill="#EBEBEB"/>
<path fill-rule="evenodd" clip-rule="evenodd" d="M220 26.8306C220 27.2225 220.115 27.4812 220.18 27.7327C220.602 29.3679 221.508 30.7712 222.582 32.0513C224.113 33.8755 225.988 35.3441 227.909 36.7251C229.575 37.9226 231.275 39.0935 232.947 40.2821C233.235 40.4862 233.506 40.7209 233.818 40.9712C233.55 41.1162 233.327 41.2438 233.095 41.3615C230.887 42.481 228.764 43.736 226.806 45.2564C225.627 46.173 224.486 47.147 223.68 48.4198C222.384 50.467 221.925 52.6481 222.891 54.9769C223.173 55.6571 223.604 56.2447 224.211 56.679C224.408 56.8195 224.629 56.9589 224.859 57.0135C225.449 57.1524 226.05 57.2433 226.647 57.3531L228.338 57.352C230.208 57.1853 231.91 56.5447 233.448 55.4831C235.852 53.8239 237.472 51.5994 238.168 48.7443C238.674 46.6692 238.695 44.5918 238.099 42.5262C238.041 42.3348 237.976 42.1461 237.901 41.9608C237.829 41.7752 237.743 41.5945 237.643 41.3632L241.477 39.1587L241.534 39.2077C241.464 39.4358 241.39 39.6632 241.327 39.8935C240.872 41.5572 240.569 43.2498 240.678 44.9765C240.794 46.8163 241.307 48.5386 242.384 50.0757C243.255 51.319 245.33 51.3652 246.256 50.1175C246.584 49.6742 246.902 49.2109 247.142 48.7164C247.767 47.4257 248.345 46.1122 248.942 44.8076L249.047 44.5689C249.004 45.1867 248.954 45.7292 248.931 46.2722C248.895 47.1202 248.945 47.9632 249.235 48.7699C249.483 49.4602 249.905 49.9759 250.695 50.0667C251.236 50.1286 251.667 49.8811 252.065 49.5672C252.68 49.0805 253.191 48.4737 253.565 47.7837C254.625 45.8373 255.713 43.9027 256.674 41.9073C257.713 39.7491 258.622 37.5279 259.587 35.3329L259.746 34.9438C259.974 35.8397 260.133 36.7173 260.426 37.548C260.766 38.512 261.187 39.4531 261.645 40.368C261.862 40.8 261.837 41.0805 261.536 41.4429C260.279 42.9594 259.043 44.4942 257.805 46.0274C257.532 46.3659 257.259 46.7104 257.031 47.0801C256.893 47.3135 256.802 47.5719 256.763 47.8405C256.725 48.0878 256.784 48.3404 256.928 48.5452C257.071 48.7501 257.289 48.8914 257.535 48.9394C258.03 49.0462 258.538 49.0824 259.044 49.047C260.771 48.9199 262.339 48.3139 263.725 47.2869C265.521 45.9566 266.097 44.1413 265.662 41.9898C265.545 41.4061 265.337 40.8385 265.134 40.276C265.043 40.0223 265.037 39.8444 265.203 39.6081C266.638 37.558 267.865 35.3831 269.006 33.158C269.051 33.0705 269.097 32.9829 269.176 32.8893C269.546 34.8127 270.102 36.6665 271.099 38.3486C270.591 38.8387 270.087 39.283 269.632 39.7725C268.629 40.8508 267.759 42.0216 267.305 43.4494C267.11 44.0649 266.96 44.6905 267.047 45.3478C267.182 46.3687 268.018 47.0321 269.022 46.7996C271.171 46.3023 273.026 45.2898 274.381 43.4963C275.293 42.2887 275.377 40.9417 274.995 39.5306C274.89 39.147 274.766 38.7695 274.632 38.3296C275.162 38.1652 275.679 37.9678 276.213 37.8457C278.989 37.2124 281.735 37.3227 284.41 38.3252C285.972 38.9106 287.234 39.8902 287.982 41.4312C288.896 43.3151 288.39 45.1025 286.615 46.2934C286.449 46.4043 286.26 46.4919 286.122 46.6307C286.078 46.6816 286.046 46.7411 286.026 46.8054C286.006 46.8697 286 46.9374 286.008 47.0042C286.02 47.0728 286.201 47.1587 286.305 47.1576C286.889 47.1531 287.362 46.847 287.817 46.5326C288.955 45.7448 289.786 44.6849 289.965 43.2894L290 43.1846L289.957 42.2758C289.94 42.2234 289.97 42.1716 289.966 42.132C289.724 40.0998 288.639 38.5237 287.06 37.2882C285.231 35.8581 283.072 35.2694 280.788 35.1763C278.936 35.0965 277.086 35.3813 275.344 36.0142C274.844 36.1954 274.348 36.4101 273.845 36.6124C273.778 36.4903 273.705 36.3733 273.645 36.2523C273.129 35.1952 272.504 34.185 272.365 32.9729C272.267 32.1121 272.147 31.2524 272.351 30.401C272.548 29.582 272.805 28.7769 273.046 27.9691C273.17 27.5532 273.083 27.3201 272.686 27.1328C272.548 27.0638 272.4 27.0154 272.248 26.9889C271.272 26.8473 270.31 26.9282 269.365 27.203C269.03 27.3006 268.787 27.4879 268.713 27.8581C268.671 28.0705 268.584 28.274 268.524 28.4837C268.277 29.3551 268.102 30.2432 267.703 31.0734C266.703 33.1558 265.561 35.1595 264.392 37.1488C264.266 37.3634 264.132 37.5742 263.973 37.8346C263.563 36.976 263.125 36.2055 262.992 35.3023C262.842 34.2809 262.724 33.2611 262.978 32.2476C263.167 31.4915 263.414 30.7495 263.642 30.0035C263.749 29.6489 263.7 29.4627 263.379 29.2759C263.216 29.1817 263.033 29.0981 262.85 29.0708C261.85 28.9184 260.827 29.002 259.865 29.315C259.562 29.4131 259.403 29.6088 259.311 29.921C259.039 30.842 258.807 31.7854 258.425 32.6612C256.878 36.2071 255.287 39.7346 253.698 43.2615C253.366 43.998 252.977 44.7089 252.603 45.4259C252.508 45.6076 252.37 45.7676 252.252 45.9382C252.157 45.8262 252.12 45.7492 252.121 45.6723C252.124 45.219 252.07 44.7524 252.156 44.3142C252.421 42.9888 252.715 41.6692 253.036 40.3563C253.298 39.2713 253.603 38.1964 253.893 37.1187C253.991 36.758 253.993 36.4207 253.733 36.1174C253.298 35.6095 252.388 35.4979 251.848 35.8893L251.61 36.0243L251.656 35.6396C251.77 34.815 251.793 33.9932 251.566 33.1809C251.284 32.1684 250.562 31.5858 249.511 31.6181C249.022 31.6332 248.508 31.7168 248.054 31.8952C246.148 32.6423 244.682 33.9653 243.435 35.557C243.319 35.7048 243.176 35.8287 243.013 35.9217C241.4 36.8159 239.782 37.6991 238.164 38.5855L236.364 39.5718C235.881 39.1113 235.442 38.6335 234.945 38.2282C233.424 36.9882 231.879 35.7789 230.348 34.5529C228.991 33.4663 227.677 32.3345 226.671 30.8955C225.923 29.8251 225.44 28.6537 225.394 27.3301C225.336 25.6436 225.814 24.1026 226.673 22.6681C227.771 20.8327 229.269 19.3597 230.916 18.0255C232.658 16.615 234.543 15.4174 236.496 14.3241C239.228 12.7948 242.039 11.4411 245.052 10.5474C248.142 9.63084 251.277 9.1062 254.51 9.47194C255.782 9.61578 257.016 9.90681 258.149 10.5285C259.018 11.004 259.73 11.6268 260.061 12.6002C260.387 13.5581 260.377 14.5287 260.151 15.5016C259.691 17.4719 258.612 19.096 257.255 20.5473C255.028 22.9262 252.312 24.5459 249.254 25.6157C247.495 26.2317 245.666 26.6219 243.809 26.7771C242.288 26.9048 240.798 26.7698 239.357 26.2407C238.403 25.8901 237.573 25.3537 236.905 24.5754C236.786 24.436 236.633 24.2849 236.41 24.4154C236.192 24.5436 236.154 24.751 236.227 24.9612C236.349 25.3102 236.462 25.6737 236.652 25.9859C237.13 26.7693 237.826 27.3374 238.594 27.8247C240.067 28.7619 241.714 29.0769 243.422 29.1499C246.013 29.262 248.542 28.8751 251.034 28.1798C254.593 27.1874 257.687 25.4346 260.169 22.6692C262.235 20.3666 263.711 17.768 264.027 14.6302C264.181 13.0987 264.017 11.5984 263.3 10.2012C262.522 8.6875 261.286 7.56185 259.807 6.78632C257.654 5.65733 255.33 5 252.932 5H250.529C247.624 5 244.816 5.83239 242.086 6.82535C240.02 7.57746 237.994 8.46504 236.027 9.44741C231.743 11.5878 227.754 14.1686 224.478 17.7172C222.845 19.4852 221.463 21.436 220.668 23.733C220.428 24.4188 220.221 25.1157 220.049 25.8215L220 26.8306ZM235.57 45.8998C235.384 48.3858 234.257 50.4013 232.416 52.0337C231.38 52.9514 230.192 53.6048 228.808 53.8345C228.306 53.9176 227.793 53.9377 227.306 53.7297C226.612 53.4331 226.456 52.817 226.443 52.1608C226.422 51.1149 226.788 50.1693 227.291 49.2695C227.946 48.0964 228.908 47.2022 229.934 46.367C231.551 45.0507 233.305 43.9367 235.101 42.8852L235.237 42.8295C235.514 43.8553 235.646 44.8683 235.57 45.8998ZM249.596 35.0954C249.465 35.8893 249.301 36.6838 249.069 37.4532C248.267 40.1165 247.238 42.6973 246.124 45.2436C245.918 45.7147 245.619 46.1445 245.359 46.5911C245.314 46.6598 245.261 46.7224 245.201 46.7773C244.879 47.0957 244.573 47.0789 244.41 46.6625C244.221 46.1785 244.104 45.6606 244.004 45.1482C243.936 44.8042 243.953 44.4429 243.931 44.0906C243.953 41.585 244.717 39.3081 246.014 37.1884C246.549 36.3142 247.131 35.4812 248.02 34.9282C248.297 34.7562 248.596 34.6237 248.91 34.5345C249.383 34.4013 249.674 34.6204 249.596 35.0954ZM259.165 47.2875L262.605 43.2716C262.748 44.763 260.213 47.7402 259.165 47.2875ZM270.15 44.5851C269.907 44.7245 269.642 44.8249 269.393 44.9536C269.165 45.0718 269.09 44.9525 269.083 44.7563C269.08 44.6204 269.097 44.4849 269.135 44.3543C269.599 42.7163 270.454 41.318 271.726 40.1806L271.815 40.1349C272.42 41.827 271.721 43.6853 270.15 44.5851Z" fill="#CB6699"/>
</svg>
