<svg width="221" height="62" viewBox="0 0 221 62" fill="none" xmlns="http://www.w3.org/2000/svg">
<path d="M193.262 29.4733L193.338 27.9429V27.4838H192.726C191.808 27.4838 190.813 27.7134 190.125 28.1725C189.053 28.7846 188.441 29.9324 188.441 31.5394C188.441 33.8349 189.589 35.1358 191.578 35.1358C192.191 35.1358 192.573 35.0593 193.338 34.8297V31.5394L193.262 29.4733ZM136.178 31.4628C136.178 33.9115 137.402 35.2123 139.774 35.2123C140.31 35.2123 140.54 35.2123 141.305 35.0593V27.7899C140.54 27.6368 140.387 27.5603 139.774 27.5603C137.479 27.5603 136.178 29.0142 136.178 31.4628ZM158.828 34.4471C158.828 35.3653 159.364 35.7479 160.588 35.7479C161.277 35.7479 161.965 35.6714 162.73 35.5184V32.4576C159.67 32.7637 158.828 33.2228 158.828 34.4471ZM207.035 27.4838C205.275 27.4838 204.204 28.9377 204.204 31.4628C204.204 33.988 205.199 35.4419 207.035 35.4419C208.795 35.4419 209.79 33.988 209.79 31.4628C209.79 29.0142 208.795 27.4838 207.035 27.4838ZM220.12 15.9293C220.12 13.0215 217.748 10.6494 214.84 10.6494H129.75C126.843 10.6494 124.47 13.0215 124.47 15.9293V46.6138C124.47 49.598 126.843 51.9702 129.75 51.9702H214.764C217.672 51.9702 220.044 49.598 220.044 46.6903V15.9293H220.12ZM131.587 31.5394C131.587 26.9482 134.648 23.8874 139.392 23.8874C140.157 23.8874 140.616 23.9639 141.381 24.1169V17.5362H145.973V38.1966C143.677 38.6557 141.917 38.8087 140.081 38.8087C134.495 38.8087 131.587 36.3601 131.587 31.5394ZM152.783 34.7532C152.783 38.3496 152.63 40.1096 151.865 41.64C151.099 43.0939 150.258 44.0121 148.268 45.0069L144.06 43.0173C146.049 42.0991 146.891 41.2574 147.503 39.9565C148.115 38.6557 148.192 37.1253 148.192 33.2228V24.423H152.783V34.7532ZM152.783 22.1274H148.192V17.5362H152.783V22.1274ZM166.556 38.4261C165.026 38.7322 162.118 38.9618 160.205 38.9618C156.379 38.9618 154.772 37.6609 154.772 34.6767C154.772 31.4628 157.298 30.009 162.654 29.5498V28.5551C162.654 27.7134 162.271 27.4073 161.123 27.4073C159.44 27.4073 157.298 27.8664 155.767 28.7846V25.2647C158.063 24.3465 159.67 23.8874 161.736 23.8874C164.031 23.8874 165.409 24.4995 166.097 25.7238C166.48 26.4125 166.48 27.2542 166.48 29.1672V38.4261H166.556ZM182.626 38.9618H178.034V29.9324C178.034 28.1725 177.269 27.5603 175.662 27.5603C175.05 27.5603 174.208 27.6368 173.443 27.8664V38.9618H168.852V24.9586C171.913 24.27 173.826 23.9639 176.045 23.9639C178.34 23.9639 180.177 24.4995 181.172 25.4943C182.166 26.489 182.626 27.4838 182.626 29.7794V38.9618ZM197.394 30.0855L197.93 34.3706V35.6714C197.93 39.5739 197.47 41.4104 196.476 42.8643C195.098 45.0834 192.573 46.1547 189.053 46.1547C187.293 46.1547 185.61 45.9251 184.079 45.2364V41.0278C185.61 41.8695 187.293 42.2521 188.977 42.2521C191.961 42.2521 193.262 41.0278 193.262 38.1966V38.1201C192.497 38.5792 191.425 38.7322 190.278 38.7322C186.299 38.7322 183.773 36.1305 183.773 31.9985C183.773 26.8716 187.523 23.9639 194.104 23.9639C196.017 23.9639 197.853 24.1934 199.996 24.576L198.236 27.8664C197.011 27.6368 199.23 27.8664 197.7 27.7134L197.394 30.0855ZM206.959 39.0383C202.444 39.0383 199.613 36.2071 199.613 31.6159C199.613 26.8716 202.521 23.8874 207.112 23.8874C211.627 23.8874 214.381 26.7186 214.381 31.3863C214.458 36.054 211.55 39.0383 206.959 39.0383Z" fill="#003A2B"/>
<path d="M26.9105 0.702083C24.6642 0.712724 22.52 0.903731 20.6323 1.23786C15.0724 2.22003 14.0636 4.27588 14.0636 8.06782V13.075H27.2016V14.744H9.13252C5.31451 14.744 1.9711 17.0388 0.925081 21.4058C-0.281614 26.4098 -0.334819 29.5329 0.925081 34.7582C1.85883 38.6481 4.0892 41.419 7.90774 41.419H12.4254V35.4164C12.4254 31.0796 16.1769 27.2547 20.6328 27.2547H33.7559C37.409 27.2547 40.3246 24.2465 40.3246 20.5785V8.06835C40.3246 4.50732 37.3207 1.83269 33.7559 1.23839C31.4979 0.862763 29.1563 0.691974 26.9105 0.702083ZM19.8055 4.72919C21.1622 4.72919 22.271 5.85554 22.271 7.24101C22.271 8.62062 21.1628 9.73633 19.8055 9.73633C18.4434 9.73633 17.3405 8.62062 17.3405 7.24101C17.34 5.85554 18.4434 4.72919 19.8055 4.72919Z" fill="url(#paint0_linear_167_201)"/>
<path d="M41.9627 14.7437V20.5782C41.9627 25.1006 38.1277 28.9075 33.7553 28.9075H20.6322C17.0377 28.9075 14.0635 31.9843 14.0635 35.5842V48.0954C14.0635 51.6554 17.159 53.7501 20.6322 54.7711C24.7907 55.9932 28.779 56.2145 33.7553 54.7711C37.0625 53.8128 40.324 51.8857 40.324 48.0954V43.0877H27.2014V41.4181H46.8938C50.7118 41.4181 52.1356 38.7552 53.4636 34.7574C54.8352 30.642 54.7761 26.684 53.4636 21.405C52.5197 17.6035 50.7176 14.7432 46.8938 14.7432H41.9627V14.7437ZM34.5815 46.4258C35.9441 46.4258 37.0471 47.5415 37.0471 48.9222C37.0471 50.3066 35.9436 51.433 34.5815 51.433C33.2248 51.433 32.1166 50.3066 32.1166 48.9222C32.1166 47.5415 33.2248 46.4258 34.5815 46.4258Z" fill="url(#paint1_linear_167_201)"/>
<path opacity="0.444" d="M44.9567 57.8175C44.9567 59.7026 37.0738 61.2311 27.3506 61.2311C17.6268 61.2311 9.7439 59.7026 9.7439 57.8175C9.7439 55.9319 17.6263 54.4033 27.3506 54.4033C37.0738 54.4033 44.9567 55.9314 44.9567 57.8175Z" fill="url(#paint2_radial_167_201)"/>
<defs>
<linearGradient id="paint0_linear_167_201" x1="-1.31705" y1="2.26772" x2="28.9853" y2="28.1094" gradientUnits="userSpaceOnUse">
<stop stop-color="#5A9FD4"/>
<stop offset="1" stop-color="#306998"/>
</linearGradient>
<linearGradient id="paint1_linear_167_201" x1="40.3862" y1="44.1728" x2="29.5192" y2="28.9337" gradientUnits="userSpaceOnUse">
<stop stop-color="#FFD43B"/>
<stop offset="1" stop-color="#FFE873"/>
</linearGradient>
<radialGradient id="paint2_radial_167_201" cx="0" cy="0" r="1" gradientUnits="userSpaceOnUse" gradientTransform="translate(27.2794 57.7198) rotate(-90) scale(3.41488 15.0113)">
<stop stop-color="#B8B8B8" stop-opacity="0.498"/>
<stop offset="1" stop-color="#7F7F7F" stop-opacity="0"/>
</radialGradient>
</defs>
</svg>
