<svg width="309" height="66" viewBox="0 0 309 66" fill="none" xmlns="http://www.w3.org/2000/svg">
<path d="M247 2H308.646V63.6465H247V2Z" fill="#F0DB4F"/>
<path d="M303.601 48.9434C303.149 46.1311 301.315 43.7688 295.883 41.5661C293.996 40.6989 291.892 40.078 291.265 38.6479C291.043 37.8157 291.013 37.3469 291.154 36.8431C291.558 35.2082 293.51 34.6985 295.057 35.1673C296.053 35.5012 296.996 36.2689 297.565 37.4936C300.225 35.771 300.22 35.7824 302.077 34.5985C301.397 33.5442 301.034 33.0577 300.589 32.6066C298.989 30.8195 296.809 29.8992 293.322 29.9696L291.506 30.2045C289.766 30.6442 288.107 31.5577 287.135 32.7824C284.217 36.0936 285.049 41.8887 288.6 44.2736C292.098 46.8993 297.237 47.4966 297.894 49.9519C298.532 52.9578 295.685 53.9309 292.854 53.5852C290.768 53.1513 289.608 52.0911 288.354 50.1632C286.045 51.4992 286.045 51.4992 283.672 52.8642C284.234 54.0948 284.826 54.6518 285.769 55.7179C290.235 60.2474 301.409 60.0248 303.414 53.1691C303.495 52.9337 304.035 51.3638 303.601 48.9434ZM280.512 30.3325H274.746L274.723 45.2397C274.723 48.4101 274.887 51.3165 274.371 52.2073C273.528 53.9594 271.342 53.7423 270.346 53.4025C269.332 52.9041 268.816 52.1955 268.219 51.1939C268.055 50.9063 267.932 50.6837 267.89 50.6665L263.202 53.5374C263.982 55.1374 265.13 56.526 266.601 57.4282C268.798 58.747 271.751 59.1513 274.84 58.4421C276.85 57.8566 278.585 56.6437 279.493 54.7976C280.806 52.3772 280.524 49.4477 280.512 46.2074C280.542 40.921 280.512 35.6356 280.512 30.3325Z" fill="#323330"/>
<path fill-rule="evenodd" clip-rule="evenodd" d="M0 28.8306C0 29.2225 0.115409 29.4812 0.180082 29.7327C0.601574 31.3679 1.50756 32.7712 2.58247 34.0513C4.11345 35.8755 5.98842 37.3441 7.90911 38.7251C9.575 39.9226 11.2749 41.0935 12.9475 42.2821C13.2346 42.4862 13.5061 42.7209 13.8178 42.9712C13.5496 43.1162 13.3266 43.2438 13.0947 43.3615C10.8874 44.481 8.7638 45.736 6.80631 47.2564C5.62658 48.173 4.48588 49.147 3.68025 50.4198C2.38399 52.467 1.92515 54.6481 2.89135 56.9769C3.17346 57.6571 3.60387 58.2447 4.21102 58.679C4.40782 58.8195 4.62861 58.9589 4.85887 59.0135C5.44873 59.1524 6.04975 59.2433 6.64686 59.3531L8.33785 59.352C10.2078 59.1853 11.9099 58.5447 13.4482 57.4831C15.8522 55.8239 17.4718 53.5994 18.1682 50.7443C18.6744 48.6692 18.6951 46.5918 18.0985 44.5262C18.0414 44.3348 17.9756 44.1461 17.9011 43.9608C17.8287 43.7752 17.7434 43.5945 17.643 43.3632L21.4766 41.1587L21.534 41.2077C21.4643 41.4358 21.3902 41.6632 21.3272 41.8935C20.8717 43.5572 20.5689 45.2498 20.6776 46.9765C20.7936 48.8163 21.3071 50.5386 22.3842 52.0757C23.2551 53.319 25.3302 53.3652 26.2557 52.1175C26.5841 51.6742 26.9024 51.2109 27.1416 50.7164C27.7666 49.4257 28.3453 48.1122 28.9424 46.8076L29.0467 46.5689C29.0038 47.1867 28.9536 47.7292 28.9307 48.2722C28.8951 49.1202 28.9447 49.9632 29.2346 50.7699C29.4827 51.4602 29.9047 51.9759 30.6953 52.0667C31.2361 52.1286 31.6671 51.8811 32.0646 51.5672C32.6804 51.0805 33.1909 50.4737 33.5649 49.7837C34.6248 47.8373 35.7131 45.9027 36.6737 43.9073C37.7129 41.7491 38.6217 39.5279 39.5868 37.3329L39.7462 36.9438C39.9743 37.8397 40.1332 38.7173 40.4259 39.548C40.766 40.512 41.1869 41.4531 41.6452 42.368C41.8621 42.8 41.837 43.0805 41.5365 43.4429C40.2787 44.9594 39.0426 46.4942 37.8055 48.0274C37.5317 48.3659 37.2591 48.7104 37.0311 49.0801C36.8927 49.3135 36.8018 49.5719 36.7635 49.8405C36.7251 50.0878 36.784 50.3404 36.9277 50.5452C37.0714 50.7501 37.2889 50.8914 37.5345 50.9394C38.0302 51.0462 38.5385 51.0824 39.0443 51.047C40.771 50.9199 42.3388 50.3139 43.7248 49.2869C45.5206 47.9566 46.0971 46.1413 45.6622 43.9898C45.5445 43.4061 45.3366 42.8385 45.1342 42.276C45.0433 42.0223 45.0372 41.8444 45.2028 41.6081C46.6384 39.558 47.865 37.3831 49.0057 35.158C49.0508 35.0705 49.0971 34.9829 49.1763 34.8893C49.5459 36.8127 50.1023 38.6665 51.0992 40.3486C50.5907 40.8387 50.0873 41.283 49.6318 41.7725C48.6288 42.8508 47.7591 44.0216 47.3052 45.4494C47.1101 46.0649 46.9601 46.6905 47.0471 47.3478C47.182 48.3687 48.0183 49.0321 49.0224 48.7996C51.1711 48.3023 53.026 47.2898 54.3814 45.4963C55.2935 44.2887 55.3766 42.9417 54.9947 41.5306C54.8898 41.147 54.7655 40.7695 54.6317 40.3296C55.1619 40.1652 55.6787 39.9678 56.2134 39.8457C58.9894 39.2124 61.7352 39.3227 64.4102 40.3252C65.9719 40.9106 67.2335 41.8902 67.9817 43.4312C68.8955 45.3151 68.3904 47.1025 66.6147 48.2934C66.4491 48.4043 66.2595 48.4919 66.1224 48.6307C66.0785 48.6816 66.0456 48.7411 66.0259 48.8054C66.0062 48.8697 66.0002 48.9374 66.0081 49.0042C66.0198 49.0728 66.201 49.1587 66.3053 49.1576C66.889 49.1531 67.3623 48.847 67.8167 48.5326C68.9552 47.7448 69.7859 46.6849 69.9649 45.2894L70 45.1846L69.9571 44.2758C69.9398 44.2234 69.9699 44.1716 69.966 44.132C69.724 42.0998 68.6385 40.5237 67.0596 39.2882C65.2309 37.8581 63.0716 37.2694 60.7879 37.1763C58.9358 37.0965 57.0861 37.3813 55.3437 38.0142C54.8436 38.1954 54.3479 38.4101 53.845 38.6124C53.7776 38.4903 53.7051 38.3733 53.6454 38.2523C53.1292 37.1952 52.5036 36.185 52.3654 34.9729C52.2672 34.1121 52.1468 33.2524 52.3514 32.401C52.5482 31.582 52.8047 30.7769 53.0461 29.9691C53.1704 29.5532 53.0829 29.3201 52.6859 29.1328C52.5476 29.0638 52.4 29.0154 52.2477 28.9889C51.272 28.8473 50.3097 28.9282 49.3647 29.203C49.0302 29.3006 48.7871 29.4879 48.713 29.8581C48.6706 30.0705 48.5842 30.274 48.524 30.4837C48.277 31.3551 48.1019 32.2432 47.7027 33.0734C46.7025 35.1558 45.5607 37.1595 44.3921 39.1488C44.2656 39.3634 44.1323 39.5742 43.9729 39.8346C43.5625 38.976 43.1249 38.2055 42.9922 37.3023C42.8422 36.2809 42.724 35.2611 42.9782 34.2476C43.1672 33.4915 43.4142 32.7495 43.6417 32.0035C43.7493 31.6489 43.6997 31.4627 43.3785 31.2759C43.2163 31.1817 43.0329 31.0981 42.85 31.0708C41.8496 30.9184 40.8274 31.002 39.865 31.315C39.5623 31.4131 39.4034 31.6088 39.3108 31.921C39.0387 32.842 38.8068 33.7854 38.4249 34.6612C36.8783 38.2071 35.2871 41.7346 33.6976 45.2615C33.3659 45.998 32.9773 46.7089 32.6032 47.4259C32.5084 47.6076 32.3701 47.7676 32.2519 47.9382C32.1572 47.8262 32.1204 47.7492 32.1209 47.6723C32.1237 47.219 32.0696 46.7524 32.156 46.3142C32.4214 44.9888 32.7147 43.6692 33.0358 42.3563C33.2979 41.2713 33.6028 40.1964 33.8933 39.1187C33.9909 38.758 33.9925 38.4207 33.7333 38.1174C33.2979 37.6095 32.388 37.4979 31.8483 37.8893L31.6097 38.0243L31.6559 37.6396C31.7697 36.815 31.7925 35.9932 31.5662 35.1809C31.2841 34.1684 30.5615 33.5858 29.5111 33.6181C29.0216 33.6332 28.5076 33.7168 28.0543 33.8952C26.1481 34.6423 24.6824 35.9653 23.4346 37.557C23.3189 37.7048 23.1756 37.8287 23.0126 37.9217C21.3996 38.8159 19.7817 39.6991 18.1643 40.5855L16.364 41.5718C15.8812 41.1113 15.4424 40.6335 14.9446 40.2282C13.4242 38.9882 11.8793 37.7789 10.3483 36.5529C8.99127 35.4663 7.67662 34.3345 6.67084 32.8955C5.92263 31.8251 5.44037 30.6537 5.39409 29.3301C5.33555 27.6436 5.81391 26.1026 6.67251 24.6681C7.77084 22.8327 9.26892 21.3597 10.9159 20.0255C12.6581 18.615 14.5426 17.4174 16.4956 16.3241C19.2281 14.7948 22.0386 13.4411 25.052 12.5474C28.1418 11.6308 31.2768 11.1062 34.5105 11.4719C35.7817 11.6158 37.016 11.9068 38.1495 12.5285C39.0176 13.004 39.7295 13.6268 40.0607 14.6002C40.3874 15.5581 40.3774 16.5287 40.151 17.5016C39.691 19.4719 38.6122 21.096 37.2546 22.5473C35.0279 24.9262 32.3116 26.5459 29.2535 27.6157C27.4953 28.2317 25.6659 28.6219 23.8093 28.7771C22.2878 28.9048 20.7981 28.7698 19.3574 28.2407C18.4035 27.8901 17.5728 27.3537 16.9048 26.5754C16.7855 26.436 16.6328 26.2849 16.4103 26.4154C16.1923 26.5436 16.1538 26.751 16.2269 26.9612C16.349 27.3102 16.4616 27.6737 16.6517 27.9859C17.1295 28.7693 17.8264 29.3374 18.5936 29.8247C20.0671 30.7619 21.7141 31.0769 23.4218 31.1499C26.0132 31.262 28.5416 30.8751 31.0343 30.1798C34.593 29.1874 37.6873 27.4346 40.1688 24.6692C42.2351 22.3666 43.7108 19.768 44.027 16.6302C44.1814 15.0987 44.0169 13.5984 43.2999 12.2012C42.5222 10.6875 41.2856 9.56185 39.807 8.78632C37.6538 7.65733 35.3301 7 32.9316 7H30.5286C27.6239 7 24.8156 7.83239 22.086 8.82535C20.0198 9.57746 17.9937 10.465 16.0267 11.4474C11.7432 13.5878 7.75411 16.1686 4.47752 19.7172C2.84507 21.4852 1.46296 23.436 0.66792 25.733C0.427962 26.4188 0.22125 27.1157 0.048505 27.8215L0 28.8306ZM15.5696 47.8998C15.3839 50.3858 14.2571 52.4013 12.4156 54.0337C11.3797 54.9514 10.1916 55.6048 8.80784 55.8345C8.30607 55.9176 7.79258 55.9377 7.30586 55.7297C6.61174 55.4331 6.45619 54.817 6.44281 54.1608C6.42218 53.1149 6.78847 52.1693 7.29081 51.2695C7.94646 50.0964 8.90764 49.2022 9.93405 48.367C11.5509 47.0507 13.3049 45.9367 15.1012 44.8852L15.2367 44.8295C15.5144 45.8553 15.6465 46.8683 15.5696 47.8998ZM29.5959 37.0954C29.4649 37.8893 29.3009 38.6838 29.069 39.4532C28.2673 42.1165 27.2375 44.6973 26.1241 47.2436C25.9184 47.7147 25.619 48.1445 25.3586 48.5911C25.3144 48.6598 25.2613 48.7224 25.2009 48.7773C24.8786 49.0957 24.5731 49.0789 24.4103 48.6625C24.2207 48.1785 24.1042 47.6606 24.0039 47.1482C23.9364 46.8042 23.9526 46.4429 23.9314 46.0906C23.9531 43.585 24.7175 41.3081 26.0143 39.1884C26.549 38.3142 27.131 37.4812 28.0203 36.9282C28.2969 36.7562 28.5962 36.6237 28.9096 36.5345C29.3835 36.4013 29.6745 36.6204 29.5959 37.0954ZM39.1653 49.2875L42.6047 45.2716C42.748 46.763 40.2129 49.7402 39.1653 49.2875ZM50.1503 46.5851C49.9072 46.7245 49.6424 46.8249 49.3932 46.9536C49.1651 47.0718 49.0899 46.9525 49.0832 46.7563C49.0798 46.6204 49.0973 46.4849 49.135 46.3543C49.5995 44.7163 50.4541 43.318 51.7259 42.1806L51.8151 42.1349C52.42 43.827 51.7209 45.6853 50.1503 46.5851Z" fill="#CB6699"/>
<path fill-rule="evenodd" clip-rule="evenodd" d="M146.08 32.5567V49.9612L153.715 49.9474C161.618 49.9311 161.561 49.9332 162.718 49.786C168.579 49.0461 172 45.798 172.302 40.6902C172.588 35.8426 169.587 32.35 164.449 31.5485C164.263 31.519 164.322 31.4772 164.666 31.3973C168.1 30.6039 170.581 27.4133 170.581 23.7969C170.581 19.5584 167.776 16.3916 163.2 15.4629C161.658 15.1507 161.809 15.1548 153.377 15.1548H146.081V32.5572L146.08 32.5567ZM160.019 19.7478C163.277 20.1913 164.87 21.6751 164.971 24.3662C165.075 27.1826 163.477 29.0127 160.353 29.6594C159.33 29.8702 158.675 29.9002 154.898 29.9002H151.682V24.8143C151.682 22.0173 151.695 19.7182 151.707 19.7045C151.749 19.6627 159.693 19.7045 160.02 19.7478H160.019ZM160.66 34.2361C164.518 34.6959 166.419 36.3625 166.585 39.4355C166.76 42.702 164.818 44.7704 161.1 45.2714C160.269 45.385 159.866 45.3931 155.793 45.3931L151.682 45.3952V34.1531L155.926 34.1648C159.669 34.177 160.229 34.1851 160.66 34.2361Z" fill="#F6F1FB"/>
<path fill-rule="evenodd" clip-rule="evenodd" d="M170.969 0.296355C170.838 0.457262 170.702 0.638537 170.663 0.696077C170.624 0.753617 170.497 0.906886 170.383 1.03622C170.269 1.16556 170.176 1.28879 170.176 1.31119C170.176 1.33258 170.119 1.40998 170.049 1.48381C169.859 1.68647 169.671 1.92732 169.671 1.96908C169.671 1.99097 169.641 2.02662 169.61 2.05055C169.575 2.07652 169.374 2.31737 169.162 2.58979C168.952 2.86222 168.752 3.10307 168.719 3.12853C168.685 3.15246 168.658 3.18861 168.658 3.21C168.658 3.25226 168.43 3.54607 168.366 3.5863C168.344 3.60005 168.258 3.71767 168.171 3.84854C168.084 3.97991 168.003 4.08939 167.99 4.08939C167.978 4.08939 167.897 4.18308 167.815 4.29409C167.731 4.40611 167.556 4.63271 167.427 4.79565C167.128 5.17144 167.162 5.12765 166.987 5.36086C166.908 5.46463 166.824 5.56603 166.735 5.66485C166.678 5.72239 166.634 5.78604 166.634 5.8059C166.631 5.82627 166.517 5.97088 166.379 6.13026C166.24 6.28964 166.127 6.4368 166.127 6.45615C166.127 6.47856 166.078 6.54577 166.016 6.61146C165.838 6.79681 165.62 7.0733 165.62 7.11506C165.62 7.13695 165.61 7.15274 165.595 7.15274C165.58 7.15274 165.457 7.30193 165.316 7.48066C165.177 7.66194 164.987 7.90075 164.895 8.01176C164.802 8.12378 164.658 8.30811 164.575 8.42574C164.498 8.53308 164.414 8.63726 164.325 8.73788C164.253 8.81578 164.19 8.8982 164.135 8.98433C164.083 9.06549 164.023 9.14344 163.956 9.21755C163.91 9.26337 163.806 9.39067 163.724 9.49557C163.457 9.85557 163.176 10.1998 163.133 10.2278C163.108 10.2436 163.089 10.2716 163.089 10.2894C163.089 10.3312 162.888 10.5898 162.71 10.7767C162.641 10.8521 162.582 10.9279 162.582 10.9478C162.582 10.9677 162.476 11.1067 162.345 11.2559C162.245 11.3668 162.153 11.4817 162.068 11.6001C162.018 11.6877 161.24 12.6725 161.183 12.7203C161.135 12.774 161.092 12.8311 161.057 12.8909C160.982 13.0038 160.897 13.1122 160.803 13.2153C160.711 13.3171 160.597 13.4617 160.55 13.5376C160.478 13.6441 160.397 13.7464 160.308 13.8436C160.224 13.9373 160.152 14.0229 160.152 14.0346C160.152 14.0448 158.924 14.0468 157.421 14.0387L154.687 14.0229L154.605 14.1201C154.558 14.1741 154.494 14.2515 154.459 14.2933L154.398 14.3671L151.142 14.4007C149.19 14.4226 147.806 14.4506 147.682 14.472L147.177 14.5621C146.844 14.6217 146.298 14.8182 146.134 14.9399C146.075 14.9817 145.976 15.0453 145.912 15.083C145.717 15.19 145.168 15.8428 145.168 15.966C145.168 15.9899 145.133 16.0816 145.089 16.1691C145.045 16.2588 144.97 16.4675 144.923 16.6366C144.695 17.4579 144.698 17.432 144.695 22.3432V26.7193L144.36 27.1012V34.118L144.162 34.367C144.053 34.5044 143.939 34.6373 143.91 34.6633C143.878 34.6888 143.853 34.7249 143.853 34.7427C143.853 34.7784 143.685 34.9872 143.467 35.228C143.401 35.3018 143.346 35.3792 143.346 35.3991C143.346 35.421 143.292 35.4989 143.225 35.5722C143.003 35.8166 142.839 36.0219 142.839 36.0575C142.839 36.0779 142.822 36.1074 142.797 36.1212C142.753 36.1492 142.459 36.5153 142.209 36.8493C142.14 36.9434 142.065 37.0344 141.984 37.1217C141.907 37.2083 141.837 37.2993 141.776 37.3941C141.707 37.496 141.606 37.6248 141.549 37.6808C141.469 37.7677 141.398 37.8595 141.337 37.9553C141.29 38.0331 141.233 38.107 141.168 38.1758C141.084 38.2455 140.815 38.6076 140.815 38.6493C140.815 38.6697 140.803 38.685 140.785 38.685C140.77 38.685 140.666 38.8006 140.558 38.9416C140.449 39.0811 140.348 39.1962 140.336 39.1962C140.32 39.1962 140.308 39.214 140.308 39.2339C140.308 39.2777 140.017 39.6514 139.891 39.7736C139.841 39.819 139.802 39.8724 139.802 39.8923C139.802 39.9121 139.69 40.0598 139.549 40.2187C139.411 40.3781 139.297 40.5252 139.297 40.5446C139.297 40.567 139.255 40.626 139.203 40.6821C139.127 40.7635 139.026 40.8873 138.764 41.2233C138.748 41.2412 138.647 41.3705 138.536 41.5075C138.425 41.6444 138.311 41.7921 138.284 41.8318C138.2 41.9571 137.965 42.2438 137.935 42.2555C137.92 42.2636 137.841 42.3746 137.758 42.504C137.671 42.6313 137.584 42.7484 137.562 42.7647C137.51 42.7968 137.271 43.0952 137.271 43.1267C137.271 43.1405 137.184 43.254 137.075 43.3793C136.969 43.5046 136.768 43.751 136.63 43.9302C136.494 44.1074 136.364 44.2663 136.339 44.2806C136.314 44.2943 136.272 44.3559 136.242 44.4155C136.215 44.4771 136.114 44.6105 136.02 44.7139C135.926 44.8157 135.81 44.9624 135.762 45.0362C135.695 45.138 135.618 45.2356 135.533 45.3285C135.445 45.4262 135.365 45.5278 135.293 45.633C135.241 45.7145 135.164 45.8138 135.127 45.852C134.986 46.0206 134.849 46.1915 134.717 46.3647C134.529 46.6076 134.344 46.8363 134.304 46.8719C134.267 46.9075 134.232 46.9534 134.232 46.9758C134.232 46.9956 134.118 47.1428 133.98 47.2996C133.842 47.459 133.728 47.6062 133.728 47.6281C133.728 47.6479 133.679 47.7177 133.617 47.7808C133.434 47.9743 133.222 48.2442 133.222 48.2844C133.22 48.2965 133.215 48.3082 133.207 48.3188C133.2 48.3294 133.19 48.3387 133.177 48.346C133.135 48.374 132.873 48.6979 132.586 49.0778C132.518 49.1727 132.442 49.2645 132.361 49.3527C132.317 49.396 132.225 49.5157 132.159 49.6175C132.092 49.7193 131.983 49.8558 131.919 49.9215C131.838 50.0119 131.763 50.1053 131.694 50.2016C131.635 50.2891 131.496 50.4643 131.39 50.5916C131.285 50.7189 131.197 50.8421 131.197 50.8666C131.197 50.891 131.182 50.9119 131.168 50.9119C131.152 50.9119 131.049 51.0254 130.94 51.1665C130.831 51.3055 130.73 51.4211 130.715 51.4211C130.703 51.4211 130.69 51.4369 130.69 51.4567C130.69 51.4985 130.364 51.9165 130.255 52.0138C130.216 52.0494 130.184 52.0953 130.184 52.1172C130.184 52.1375 130.07 52.2842 129.931 52.4431C129.793 52.6019 129.679 52.7496 129.679 52.7715C129.677 52.7919 129.635 52.853 129.581 52.9069C129.474 53.0164 128.713 53.9773 128.629 54.1122C128.597 54.158 128.48 54.3032 128.367 54.433C128.253 54.5618 128.159 54.683 128.159 54.7049C128.159 54.7253 128.102 54.8047 128.031 54.8781C127.843 55.0792 127.652 55.3216 127.652 55.3654C127.652 55.3857 127.625 55.4229 127.59 55.4468C127.559 55.4708 127.413 55.6439 127.267 55.8308C126.96 56.229 126.955 56.233 126.96 56.0558C126.963 55.982 126.953 55.9285 126.938 55.9362C126.881 55.9718 126.918 57.5116 126.975 57.4938C127.017 57.4801 127.02 57.4836 126.982 57.5096C126.936 57.5437 126.938 57.6211 126.995 58.0626C127.012 58.2001 127.071 58.5081 127.104 58.6416C127.111 58.6691 127.117 58.7347 127.117 58.7887C127.117 58.8401 127.141 58.8921 127.168 58.9038C127.197 58.914 127.205 58.9318 127.185 58.9435C127.168 58.9557 127.16 59.0072 127.17 59.0571C127.18 59.109 127.203 59.1426 127.217 59.1329C127.235 59.1228 127.24 59.1365 127.227 59.1625C127.208 59.2185 127.366 59.7058 127.442 59.8249C127.47 59.8667 127.482 59.9003 127.47 59.9003C127.459 59.9003 127.484 59.9741 127.529 60.0632C127.571 60.1513 127.628 60.2903 127.652 60.3698C127.677 60.4497 127.712 60.5134 127.729 60.5134C127.744 60.5134 127.751 60.5251 127.742 60.5388C127.734 60.5551 127.794 60.6804 127.875 60.8214C127.957 60.9605 128.056 61.1458 128.095 61.2288C128.134 61.3118 128.226 61.462 128.297 61.5613C128.634 62.0191 128.711 62.1143 128.74 62.1143C128.757 62.1143 128.762 62.128 128.753 62.1443C128.743 62.1622 128.809 62.2574 128.903 62.3572C128.997 62.4585 129.111 62.5899 129.158 62.6515C129.415 62.9876 130.485 63.843 131.012 64.1292C131.417 64.3502 131.874 64.5727 131.986 64.6048C132.043 64.6201 132.27 64.6965 132.49 64.7718C132.707 64.8472 133.073 64.9526 133.298 65.0025L133.711 65.0941H183.289L183.712 65.0005C184.042 64.9222 184.366 64.8287 184.683 64.7204C185.178 64.5508 185.368 64.4632 186.037 64.1073C186.676 63.7651 187.649 62.9239 188.242 62.1998C188.381 62.0288 188.875 61.3225 188.875 61.295C188.875 61.2787 188.947 61.1473 189.036 61.0007C189.254 60.6341 189.496 60.0816 189.711 59.4588C189.817 59.1508 189.84 59.0632 189.978 58.3172L190.069 57.8401L190.072 54.9636C190.077 51.7673 190.096 51.278 190.309 48.9194C190.445 47.405 190.502 47.0073 190.815 45.2593C190.972 44.3799 191.427 42.5936 191.661 41.9332C191.747 41.6928 191.859 41.3644 191.913 41.2035C191.965 41.0441 192.057 40.8058 192.113 40.6765C192.173 40.5471 192.267 40.3322 192.323 40.2009C192.678 39.3734 193.154 38.5205 193.616 37.8916C194.062 37.2887 194.143 37.1895 194.534 36.7938C195.374 35.9424 196.338 35.3375 197.363 35.0152C197.873 34.8543 198.33 34.7453 198.681 34.6969L199 34.6552V30.4568L198.681 30.415C198.16 30.3458 197.243 30.0912 196.812 29.8957C196.739 29.8602 196.662 29.8279 196.584 29.7989C196.575 29.7989 196.462 29.7368 196.331 29.6635C196.2 29.5876 196.078 29.526 196.061 29.526C196.029 29.526 195.564 29.2037 195.188 28.9175C194.897 28.6965 194.193 27.9928 193.992 27.7219C193.941 27.6526 193.889 27.5843 193.834 27.5172C193.789 27.4815 193.403 26.9306 193.219 26.6363C192.944 26.2085 192.561 25.4682 192.324 24.9116C192.255 24.7528 192.185 24.5942 192.113 24.436C192.056 24.3067 191.965 24.0699 191.913 23.909C191.859 23.7496 191.747 23.4197 191.661 23.1788C191.427 22.5204 190.972 20.7346 190.816 19.8553C190.502 18.1128 190.45 17.7309 190.309 16.1936C190.096 13.8625 190.077 13.3451 190.072 10.1667C190.069 7.35591 190.067 7.2999 189.993 6.89865C189.954 6.69473 189.918 6.49053 189.884 6.28608C189.802 5.79063 189.36 4.65307 189.036 4.11383C188.947 3.96616 188.875 3.83377 188.875 3.81951C188.875 3.78947 188.382 3.08321 188.242 2.91415C187.659 2.20025 186.638 1.31323 186.055 1.01484C185.964 0.969008 185.736 0.849855 185.553 0.750052C185.368 0.650758 185.17 0.559102 185.113 0.543317C185.056 0.529568 184.819 0.448096 184.584 0.364587C184.309 0.267612 184.026 0.183788 183.739 0.113552L183.324 0.0183312L177.265 0.010184L171.204 0L170.97 0.296864L170.969 0.296355ZM160.914 15.1553C162.006 15.2129 163.252 15.3962 163.951 15.6029C165.484 16.0561 166.46 16.5236 167.469 17.2914C170.873 19.8812 171.637 24.8581 169.17 28.3487C168.072 29.9023 166.312 31.1055 164.681 31.4217C164.276 31.4996 164.28 31.5032 164.938 31.6107C170.267 32.488 173.224 36.942 172.101 42.3976C171.253 46.5093 167.77 49.2382 162.629 49.8186C161.447 49.9541 161.135 49.9582 153.498 49.9582H146.048V15.1212H153.159C157.361 15.1212 160.535 15.135 160.913 15.1548L160.914 15.1553ZM151.716 24.7945V29.8712L155.319 29.857C159.22 29.8427 159.109 29.8468 160.246 29.6441C163.358 29.0891 165.017 27.2493 164.938 24.4365C164.868 22.0575 163.643 20.6017 161.183 19.9769C160.265 19.7442 159.705 19.7203 155.302 19.7203L151.716 19.7183V24.7945ZM151.716 39.7604V45.3636L156.145 45.3519C160.968 45.3397 160.763 45.3458 161.781 45.1391C164.883 44.5102 166.467 42.7937 166.557 39.9615C166.653 36.9079 164.989 35.0345 161.64 34.4179C160.379 34.1852 159.741 34.1592 155.319 34.1592L151.716 34.1572V39.7599V39.7604ZM126.137 45.0072C126.137 45.0429 126.151 45.0948 126.172 45.1223C126.196 45.1605 126.199 45.1462 126.181 45.0709C126.154 44.9456 126.134 44.9196 126.137 45.0072ZM126.649 48.4265C126.649 48.4922 126.656 48.5181 126.666 48.4861C126.673 48.4464 126.673 48.4061 126.666 48.3664C126.656 48.3328 126.649 48.3608 126.649 48.4265ZM126.688 48.8303C126.701 48.8939 126.708 49.0049 126.708 49.0767C126.708 49.1506 126.723 49.2081 126.737 49.2081C126.767 49.2081 126.723 48.7687 126.688 48.7366C126.675 48.7249 126.675 48.7666 126.688 48.8303ZM126.866 50.833C126.853 50.8452 126.844 50.8925 126.844 50.9404C126.844 51.0478 126.881 51.0163 126.893 50.8966C126.903 50.8034 126.901 50.7973 126.866 50.833ZM126.879 51.5357C126.879 51.6049 126.891 51.6604 126.908 51.6604C126.923 51.6604 126.93 51.6126 126.923 51.5535C126.906 51.3997 126.879 51.388 126.879 51.5352V51.5357ZM126.967 52.7725C126.936 52.8061 126.94 52.9609 126.975 52.9395C126.992 52.9293 127.004 52.8835 127.004 52.8362C127.004 52.7425 127.002 52.7384 126.967 52.7725ZM126.967 53.0149C126.945 53.0566 126.95 53.4029 126.975 53.379C126.992 53.3611 127.006 52.9894 126.99 52.9894C126.985 52.9894 126.977 53.0011 126.967 53.0149ZM126.967 53.4548C126.955 53.4666 126.945 53.5144 126.945 53.5618C126.945 53.6677 126.985 53.6336 126.997 53.5185C127.007 53.4268 127.004 53.4187 126.967 53.4548ZM126.945 53.8128C126.945 53.8902 126.958 53.9421 126.97 53.9279C127.004 53.8922 127.007 53.6697 126.972 53.6697C126.958 53.6697 126.945 53.7334 126.945 53.8123V53.8128ZM126.945 54.0832C126.945 54.1428 126.955 54.1805 126.967 54.1687C127.007 54.129 127.015 54.016 126.977 53.9936C126.96 53.9819 126.946 54.0195 126.946 54.0832H126.945ZM126.946 54.6881C126.946 54.8648 126.955 54.9982 126.967 54.986C127.002 54.9504 127.01 54.4768 126.977 54.4193C126.958 54.3877 126.948 54.489 126.946 54.6876V54.6881ZM126.946 55.2029C126.946 55.3363 126.994 55.3363 126.999 55.2029C127.002 55.1454 126.99 55.0996 126.975 55.0996C126.958 55.0996 126.945 55.1454 126.945 55.2029H126.946ZM126.945 55.4458C126.945 55.5711 126.967 55.565 126.992 55.4316C127.002 55.3801 126.994 55.3384 126.977 55.3384C126.96 55.3384 126.946 55.3878 126.946 55.4453L126.945 55.4458ZM126.963 55.6826C126.98 55.8252 127.012 55.8516 127.012 55.7203C127.012 55.6627 126.997 55.6067 126.98 55.595C126.963 55.5828 126.955 55.6189 126.963 55.6826Z" fill="#790AF6"/>
<path fill-rule="evenodd" clip-rule="evenodd" d="M133.593 0.0696768C132.695 0.224474 131.79 0.543233 131.106 0.948557C130.973 1.02646 130.854 1.09164 130.841 1.09164C130.817 1.09164 130.085 1.60288 129.993 1.68639C129.371 2.24753 129.247 2.36668 128.966 2.69104C128.773 2.91763 128.246 3.62797 128.187 3.74712C128.128 3.85599 128.067 3.96412 128.004 4.07148C127.606 4.74363 127.248 5.69481 127.096 6.46625C126.931 7.31153 126.934 7.26417 126.929 10.3708C126.924 13.2508 126.903 13.9016 126.793 15.1726C126.783 15.2841 126.743 15.7215 126.704 16.1431C126.666 16.5647 126.629 17.0006 126.619 17.1136C126.597 17.4421 126.417 18.6535 126.284 19.3612C126.228 19.6478 126.177 19.935 126.132 20.2228C126.088 20.5171 125.623 22.363 125.487 22.7826C125.29 23.3992 124.934 24.3718 124.785 24.7078C124.739 24.8094 124.695 24.9116 124.653 25.0144C124.178 26.2813 122.86 28.1032 121.832 28.9169C121.291 29.3426 120.086 30.0371 119.884 30.0371C119.857 30.0371 119.743 30.0687 119.634 30.1064C119.288 30.2276 118.673 30.3747 118.329 30.417L118 30.4583L118.008 32.5531L118.018 34.6474L118.389 34.705C120.045 34.9596 121.683 35.8252 122.638 36.945C122.695 37.0122 122.752 37.0738 122.764 37.0779C122.795 37.0942 123.258 37.6726 123.421 37.9033C123.683 38.2714 124.037 38.8443 124.195 39.1625C124.284 39.3397 124.382 39.5246 124.412 39.5724C124.531 39.7512 125.127 41.1896 125.094 41.2212C125.085 41.2314 125.092 41.239 125.109 41.239C125.129 41.239 125.144 41.2594 125.146 41.2828C125.149 41.3068 125.233 41.5715 125.334 41.8735C125.5 42.3588 125.589 42.6475 125.611 42.757L125.693 43.063C125.777 43.3655 125.774 43.3517 125.846 43.6577C125.876 43.7794 125.916 43.9246 125.933 43.9821C126.004 44.2209 126.162 44.9486 126.187 45.1736C126.197 45.247 126.212 45.3325 126.222 45.3605C126.231 45.3885 126.247 45.472 126.256 45.5474C126.266 45.6227 126.296 45.7903 126.321 45.9216C126.405 46.355 126.567 47.4151 126.593 47.6758C126.62 47.988 126.627 48.0537 126.654 48.2726C126.664 48.3658 126.681 48.5328 126.691 48.6423C126.702 48.7518 126.716 48.8531 126.726 48.8694C126.733 48.8832 126.743 49.0262 126.748 49.1877C126.751 49.3486 126.767 49.4799 126.785 49.4799C126.803 49.4799 126.807 49.5018 126.798 49.5278C126.788 49.5538 126.798 49.5935 126.82 49.6169C126.85 49.651 126.85 49.6551 126.817 49.6373C126.765 49.6067 126.76 49.6969 126.81 49.788C126.833 49.8298 126.833 49.8578 126.81 49.8715C126.788 49.8858 126.788 49.9173 126.803 49.9515C126.82 49.983 126.827 50.0966 126.822 50.2061C126.817 50.313 126.822 50.3945 126.834 50.3868C126.85 50.3787 126.857 50.4785 126.855 50.6078C126.852 50.7372 126.859 50.8364 126.872 50.8283C126.884 50.8227 126.897 50.9556 126.899 51.1267C126.901 51.2978 126.914 51.6919 126.926 52C126.936 52.3106 126.946 52.6125 126.946 52.6742C126.948 52.7358 126.961 52.7775 126.976 52.7678C126.991 52.7597 127.003 52.7897 127.003 52.8356C127.003 52.8829 126.99 52.9288 126.973 52.9389C126.964 52.9458 126.957 52.9541 126.951 52.9633C126.946 52.9724 126.944 52.9823 126.943 52.9924C126.943 53.0102 126.961 53.0143 126.983 53.0026C127.005 52.9868 127.013 52.9924 126.998 53.0163C126.964 53.0724 126.951 53.2928 126.983 53.273C127.025 53.2475 127.015 53.3443 126.973 53.3886C126.943 53.4181 126.943 53.44 126.976 53.4777C127.005 53.5159 127.007 53.5474 126.978 53.5994C126.958 53.6371 126.956 53.6686 126.97 53.6686C127.005 53.6686 127.005 53.8738 126.968 53.9314C126.953 53.9533 126.958 53.9813 126.976 53.993C127.013 54.0149 127.007 54.1045 126.965 54.1722C126.951 54.1977 126.958 54.214 126.983 54.214C127.013 54.216 127.015 54.2242 126.993 54.2394C126.974 54.2537 126.964 54.3031 126.97 54.3515C126.991 54.4823 126.988 54.9376 126.965 55.0236C126.956 55.0654 126.961 55.099 126.978 55.099C127.017 55.099 127.003 55.2797 126.961 55.3118C126.938 55.3276 126.941 55.3373 126.965 55.3373C127.003 55.3373 126.998 55.4809 126.958 55.546C126.951 55.5603 126.958 55.5802 126.978 55.5919C126.995 55.6041 127.01 55.6637 127.01 55.7233C127.01 55.8073 127.003 55.819 126.976 55.7813C126.953 55.7457 126.946 55.7889 126.956 55.9341C126.964 56.0558 126.953 56.1571 126.931 56.1871C126.901 56.2268 126.904 56.2289 126.948 56.2024C126.978 56.1871 127.122 56.0201 127.267 55.8307C127.411 55.6438 127.556 55.4707 127.591 55.4473C127.626 55.4238 127.653 55.3851 127.653 55.3658C127.653 55.3215 127.843 55.0791 128.031 54.878C128.101 54.8046 128.159 54.7252 128.159 54.7048C128.159 54.6835 128.251 54.5623 128.365 54.4324C128.478 54.3026 128.597 54.158 128.626 54.1121C128.713 53.9772 129.474 53.0163 129.581 52.9069C129.635 52.8534 129.678 52.7918 129.678 52.7719C129.678 52.75 129.791 52.6029 129.932 52.4435C130.071 52.2846 130.184 52.1375 130.184 52.1176C130.184 52.0952 130.216 52.0499 130.256 52.0137C130.365 51.9165 130.691 51.4989 130.691 51.4572C130.691 51.4368 130.701 51.4215 130.716 51.4215C130.731 51.4215 130.832 51.3059 130.941 51.1669C131.049 51.0254 131.151 50.9123 131.168 50.9123C131.183 50.9123 131.195 50.8899 131.195 50.8665C131.195 50.8431 131.284 50.7188 131.391 50.5915C131.497 50.4642 131.632 50.2896 131.694 50.202C131.754 50.1144 131.855 49.9891 131.92 49.9214C131.983 49.8557 132.09 49.7182 132.159 49.6169C132.218 49.5249 132.286 49.4365 132.361 49.3521C132.441 49.2632 132.516 49.1719 132.587 49.0782C132.873 48.6983 133.135 48.374 133.178 48.346C133.19 48.3386 133.2 48.3295 133.207 48.319C133.215 48.3085 133.22 48.2969 133.222 48.2848C133.222 48.2441 133.434 47.9742 133.617 47.7807C133.677 47.7176 133.726 47.6483 133.726 47.628C133.726 47.6061 133.84 47.4589 133.981 47.2995C134.12 47.1427 134.233 46.9956 134.233 46.9757C134.233 46.9538 134.265 46.908 134.305 46.8723C134.344 46.8367 134.53 46.6075 134.717 46.3652C134.905 46.1223 135.088 45.8916 135.128 45.8519C135.189 45.7818 135.244 45.7087 135.294 45.6329C135.348 45.5494 135.454 45.414 135.533 45.3284C135.612 45.2429 135.714 45.112 135.763 45.0361C135.81 44.9628 135.926 44.8157 136.02 44.7138C136.114 44.6105 136.216 44.4776 136.243 44.4154C136.272 44.3559 136.314 44.2942 136.339 44.2805C136.364 44.2662 136.495 44.1074 136.63 43.9302C136.767 43.7514 136.967 43.5045 137.076 43.3792C137.182 43.2539 137.271 43.1409 137.271 43.1266C137.271 43.0951 137.51 42.7967 137.562 42.7651C137.585 42.7488 137.671 42.6317 137.755 42.5044C137.839 42.3751 137.921 42.2636 137.936 42.2554C137.963 42.2437 138.2 41.957 138.284 41.8317C138.441 41.6276 138.601 41.4247 138.764 41.2233C139.026 40.8872 139.127 40.764 139.204 40.682C139.253 40.6265 139.298 40.5669 139.298 40.5445C139.298 40.5251 139.412 40.378 139.55 40.2186C139.688 40.0592 139.802 39.9126 139.802 39.8927C139.802 39.8729 139.841 39.8189 139.891 39.7731C140.017 39.6519 140.308 39.2781 140.308 39.2343C140.308 39.214 140.321 39.1961 140.334 39.1961C140.348 39.1961 140.45 39.0811 140.558 38.9415C140.667 38.8005 140.769 38.6854 140.786 38.6854C140.801 38.6854 140.815 38.6691 140.815 38.6498C140.815 38.6075 141.085 38.2454 141.169 38.1762C141.201 38.1482 141.275 38.0504 141.337 37.9552C141.398 37.8592 141.47 37.7672 141.549 37.6802C141.606 37.6252 141.708 37.4959 141.777 37.3941C141.838 37.2993 141.907 37.2082 141.985 37.1216C142.029 37.0758 142.13 36.9526 142.209 36.8492C142.456 36.5152 142.754 36.1491 142.798 36.1211C142.821 36.105 142.836 36.0822 142.84 36.0574C142.84 36.0218 143 35.8171 143.223 35.5721C143.29 35.4988 143.347 35.4209 143.347 35.399C143.347 35.3792 143.401 35.3018 143.468 35.2279C143.685 34.9876 143.851 34.7788 143.851 34.7427C143.851 34.7248 143.878 34.6892 143.908 34.6632C143.939 34.6378 144.053 34.5044 144.162 34.3669L144.358 34.1184V27.1011L144.529 26.9101L144.696 26.7192V22.3431C144.696 17.4319 144.696 17.4579 144.924 16.6365C144.967 16.4781 145.022 16.322 145.089 16.1691C145.131 16.0815 145.168 15.9898 145.168 15.9664C145.168 15.8427 145.717 15.1904 145.91 15.0829C145.976 15.0453 146.076 14.9816 146.133 14.9399C146.298 14.8187 146.841 14.6216 147.176 14.562L147.682 14.4724C147.803 14.4505 149.19 14.4225 151.143 14.4011L154.398 14.367L154.46 14.2932C154.492 14.2514 154.559 14.174 154.603 14.12L154.687 14.0233L157.419 14.0386C158.925 14.0467 160.152 14.0447 160.152 14.035C160.152 14.0228 160.222 13.9372 160.309 13.8441C160.393 13.7504 160.502 13.6129 160.548 13.5375C160.625 13.4263 160.71 13.3187 160.803 13.2152C160.897 13.1139 161.01 12.9667 161.057 12.8913C161.105 12.8155 161.161 12.7401 161.184 12.7203C161.241 12.6724 162.016 11.6876 162.066 11.6C162.088 11.5603 162.214 11.407 162.345 11.2563C162.476 11.1071 162.583 10.9676 162.583 10.9477C162.583 10.9279 162.64 10.8525 162.711 10.7766C162.888 10.5898 163.089 10.3311 163.089 10.2893C163.089 10.2715 163.109 10.2435 163.131 10.2282C163.176 10.1997 163.455 9.856 163.724 9.49599C163.803 9.39059 163.908 9.26329 163.955 9.21746C164.001 9.1696 164.083 9.06419 164.135 8.98476C164.189 8.89811 164.253 8.81547 164.325 8.7378C164.377 8.68178 164.491 8.54124 164.575 8.42566C164.656 8.30854 164.803 8.12319 164.894 8.01168C164.987 7.90067 165.178 7.66186 165.316 7.48058C165.455 7.30185 165.581 7.15266 165.596 7.15266C165.608 7.15266 165.621 7.13687 165.621 7.11497C165.621 7.07322 165.838 6.79672 166.016 6.61138C166.075 6.5462 166.127 6.47847 166.127 6.45658C166.127 6.43621 166.241 6.28956 166.38 6.13069C166.518 5.97182 166.631 5.82568 166.631 5.80582C166.631 5.78596 166.678 5.72231 166.733 5.66477C166.79 5.60723 166.903 5.46975 166.985 5.36027C167.162 5.12757 167.128 5.17187 167.427 4.79557C167.556 4.63262 167.731 4.40552 167.813 4.29451C167.897 4.18249 167.976 4.08931 167.991 4.08931C168.003 4.08931 168.085 3.97983 168.172 3.84896C168.255 3.71759 168.344 3.59996 168.367 3.58622C168.429 3.5465 168.658 3.25218 168.658 3.21043C168.658 3.18853 168.685 3.15238 168.718 3.12895C168.753 3.10298 168.952 2.86213 169.163 2.58971C169.373 2.31729 169.573 2.07644 169.607 2.05047C169.642 2.02704 169.669 1.99089 169.669 1.96899C169.669 1.92724 169.857 1.6869 170.05 1.48373C170.119 1.4104 170.176 1.33249 170.176 1.3106C170.176 1.2887 170.27 1.16548 170.384 1.03614C170.477 0.932891 170.563 0.825998 170.643 0.715852C170.673 0.670024 170.774 0.53916 170.868 0.427645C170.962 0.314093 171.074 0.173044 171.115 0.111431L171.194 0.00195312L152.569 0.00398993C134.818 0.00806353 133.929 0.0116279 133.592 0.0696768" fill="#8C0BFB"/>
<path fill-rule="evenodd" clip-rule="evenodd" d="M146.061 32.539C146.061 42.1104 146.066 46.0211 146.071 41.229C146.076 36.4369 146.075 28.6064 146.071 23.8266C146.066 19.0488 146.061 22.9691 146.061 32.5385V32.539ZM160.919 15.1778C160.96 15.186 161.03 15.186 161.072 15.1778C161.113 15.1697 161.079 15.1641 160.996 15.1641C160.911 15.1641 160.877 15.1697 160.919 15.1778ZM168.522 18.2987C168.522 18.3048 168.572 18.3547 168.631 18.4082L168.742 18.5095L168.641 18.398C168.549 18.2946 168.522 18.2707 168.522 18.2987ZM151.704 19.7092C151.689 19.7326 154.317 19.7326 157.824 19.7092C158.556 19.7031 157.482 19.697 155.439 19.6909C153.392 19.6868 151.711 19.6949 151.704 19.7087V19.7092ZM159.653 19.7408C159.688 19.7509 159.74 19.7509 159.772 19.7408C159.804 19.7326 159.779 19.725 159.712 19.725C159.648 19.725 159.621 19.7326 159.653 19.7402V19.7408ZM163.729 21.302C163.831 21.4038 163.919 21.4888 163.929 21.4888C163.939 21.4888 163.862 21.4038 163.764 21.302C163.702 21.2356 163.635 21.1726 163.564 21.1136C163.553 21.1136 163.628 21.1986 163.729 21.302ZM170.591 23.8205C170.591 23.9335 170.596 23.9753 170.606 23.9137C170.614 23.8525 170.614 23.7609 170.603 23.709C170.596 23.6591 170.591 23.709 170.591 23.8205H170.591ZM164.953 24.2462C164.953 24.3317 164.96 24.3653 164.968 24.3236C164.975 24.2728 164.975 24.2215 164.968 24.1708C164.96 24.1285 164.953 24.1621 164.953 24.2462ZM170.554 24.5186C170.554 24.5843 170.562 24.6118 170.569 24.5782C170.578 24.5388 170.578 24.4983 170.569 24.459C170.562 24.4269 170.554 24.4529 170.554 24.5186ZM164.953 24.9616C164.953 25.0456 164.96 25.0812 164.968 25.038C164.975 24.9869 164.975 24.9353 164.968 24.8842C164.96 24.8424 164.953 24.8786 164.953 24.9621V24.9616ZM167.929 29.7038L167.83 29.8153L167.939 29.7134C168.043 29.6203 168.065 29.5928 168.037 29.5928C168.032 29.5928 167.983 29.6422 167.929 29.7038ZM159.181 29.8209C159.22 29.8289 159.261 29.8289 159.3 29.8209C159.331 29.8112 159.305 29.8056 159.24 29.8056C159.176 29.8056 159.149 29.8112 159.181 29.8209ZM158.761 29.855C158.811 29.863 158.862 29.863 158.912 29.855C158.954 29.8474 158.919 29.8413 158.835 29.8413C158.752 29.8413 158.719 29.8474 158.761 29.855ZM153.345 29.8906C154.269 29.8968 155.775 29.8968 156.687 29.8906C157.599 29.8871 156.843 29.8805 155.006 29.8805C153.167 29.8805 152.421 29.8871 153.345 29.8906ZM169.956 34.1221C170.085 34.253 170.198 34.3604 170.208 34.3604C170.216 34.3604 170.119 34.253 169.99 34.1216C169.862 33.9902 169.749 33.8828 169.738 33.8828C169.728 33.8828 169.827 33.9902 169.956 34.1221ZM159.502 34.1812C159.564 34.1893 159.655 34.1893 159.705 34.1812C159.757 34.1735 159.707 34.1674 159.596 34.1674C159.482 34.1674 159.443 34.1735 159.502 34.1812ZM160.128 34.2132C160.159 34.2234 160.212 34.2234 160.244 34.2132C160.276 34.2051 160.251 34.1975 160.184 34.1975C160.12 34.1975 160.093 34.2051 160.128 34.2127V34.2132ZM165.215 36.081C165.334 36.2022 165.44 36.3015 165.449 36.3015C165.457 36.3015 165.368 36.2022 165.247 36.081C165.175 36.0029 165.098 35.9284 165.015 35.858C165.004 35.858 165.094 35.9578 165.215 36.081H165.215ZM166.576 39.7406C166.576 39.9555 166.581 40.0451 166.589 39.9356C166.596 39.8057 166.596 39.6755 166.589 39.5456C166.581 39.4387 166.576 39.5257 166.576 39.7406ZM172.311 39.6551C172.311 39.7686 172.319 39.8104 172.326 39.7488C172.333 39.6872 172.333 39.596 172.326 39.5441C172.319 39.4942 172.311 39.5441 172.311 39.6551ZM172.311 40.5406C172.311 40.6536 172.319 40.6954 172.326 40.6338C172.333 40.5727 172.333 40.481 172.326 40.4291C172.319 40.3792 172.311 40.4291 172.311 40.5406ZM165.195 43.496L165.029 43.6732L165.205 43.5062C165.304 43.4125 165.382 43.331 165.382 43.3269C165.382 43.3015 165.351 43.329 165.195 43.496ZM171.313 44.5602C171.281 44.6259 171.263 44.6794 171.271 44.6794C171.296 44.6794 171.397 44.4706 171.382 44.4553C171.375 44.4466 171.343 44.4945 171.312 44.5602H171.313ZM159.789 45.3836C159.841 45.3917 159.922 45.3917 159.974 45.3836C160.027 45.3754 159.984 45.3698 159.883 45.3698C159.779 45.3698 159.737 45.3759 159.789 45.3836ZM169.82 46.6627L169.686 46.8058L169.83 46.6729C169.963 46.5471 169.988 46.5176 169.963 46.5176C169.959 46.5176 169.892 46.5833 169.82 46.6627ZM161.51 49.9129C161.548 49.9208 161.589 49.9208 161.628 49.9129C161.66 49.9027 161.633 49.8971 161.569 49.8971C161.504 49.8971 161.477 49.9027 161.51 49.9124V49.9129ZM160.498 49.9486C160.607 49.9547 160.773 49.9547 160.869 49.9486C160.968 49.9404 160.879 49.9348 160.674 49.9348C160.472 49.9348 160.392 49.9404 160.498 49.9486Z" fill="#A86BEE"/>
<path fill-rule="evenodd" clip-rule="evenodd" d="M149.647 15.1468C151.62 15.1509 154.848 15.1509 156.821 15.1468C158.791 15.1427 157.179 15.1387 153.234 15.1387C149.289 15.1387 147.675 15.1427 149.647 15.1468ZM168.337 18.0849C168.429 18.1781 168.51 18.254 168.52 18.254C168.53 18.254 168.46 18.1781 168.369 18.0849C168.277 17.9917 168.196 17.9138 168.186 17.9138C168.179 17.9138 168.245 17.9912 168.337 18.0849ZM159.251 19.7434C159.32 19.7515 159.434 19.7515 159.502 19.7434C159.572 19.7357 159.515 19.7296 159.377 19.7296C159.238 19.7296 159.179 19.7357 159.251 19.7434ZM151.699 24.8099C151.699 27.6003 151.701 28.7358 151.706 27.3355C151.711 25.6443 151.711 23.9531 151.706 22.2619C151.701 20.8718 151.699 22.019 151.699 24.8099ZM170.589 24.1276C170.589 24.2029 170.597 24.2289 170.604 24.1872C170.614 24.1424 170.614 24.0965 170.604 24.0517C170.597 24.0181 170.589 24.0538 170.589 24.1276ZM164.956 24.6047C164.956 24.7361 164.963 24.786 164.97 24.7142C164.977 24.6353 164.977 24.5563 164.97 24.4774C164.961 24.4163 164.956 24.4733 164.956 24.6047ZM163.628 28.0438C163.547 28.1294 163.487 28.1966 163.497 28.1966C163.505 28.1966 163.581 28.1294 163.663 28.0438C163.745 27.9603 163.804 27.8911 163.794 27.8911C163.734 27.9382 163.678 27.9893 163.628 28.0438ZM151.699 39.7758V45.377L155.706 45.3786H159.713L155.713 45.3684L151.716 45.3607L151.706 39.7677L151.699 34.1746V39.7758ZM159.233 34.1828C159.278 34.19 159.324 34.1893 159.369 34.1807C159.401 34.1726 159.366 34.167 159.292 34.167C159.218 34.167 159.191 34.1726 159.233 34.1823V34.1828ZM169.565 46.9194L169.449 47.0467L169.577 46.9296C169.694 46.8201 169.718 46.7921 169.694 46.7921C169.646 46.8314 169.603 46.874 169.565 46.9194Z" fill="#9C3CF4"/>
</svg>
