<svg width="450" height="69" viewBox="0 0 450 69" fill="none" xmlns="http://www.w3.org/2000/svg">
<path d="M181 2C162.762 2 148 16.7618 148 35C148 53.2383 162.762 68 181 68C199.238 68 214 53.2383 214 35C214 16.7618 199.238 2 181 2ZM198.81 21.094C197.259 21.1475 196.243 20.2383 196.19 18.8477C196.19 18.3128 196.297 17.8849 196.671 17.3501C196.992 16.7083 197.099 16.6013 197.099 16.3339C197.045 15.4781 195.762 15.4246 195.387 15.4246C190.413 15.5851 189.13 22.2707 188.06 27.7261L187.525 30.6143C190.36 31.0421 192.392 30.5073 193.515 29.812C195.12 28.7958 193.088 27.7261 193.301 26.5494C193.569 25.3728 194.639 24.7844 195.494 24.731C196.724 24.6775 197.58 25.9611 197.527 27.2447C197.473 29.3306 194.692 32.2723 189.076 32.1118C188.381 32.1118 187.793 32.0583 187.204 32.0049L186.135 37.8347C185.172 42.2204 183.942 48.2642 179.449 53.5057C175.598 58.1054 171.694 58.8007 169.929 58.8541C166.666 58.9611 164.473 57.1961 164.42 54.8963C164.366 52.6499 166.345 51.4198 167.629 51.3663C169.394 51.3128 170.571 52.5964 170.624 54.0405C170.677 55.2707 170.036 55.6451 169.608 55.9125C169.34 56.1264 168.912 56.3938 168.912 56.8752C168.912 57.0891 169.18 57.5705 169.875 57.5705C171.266 57.517 172.175 56.8217 172.817 56.3938C176.026 53.7196 177.256 49.0665 178.861 40.6694L179.182 38.637C179.716 35.9092 180.358 32.8071 181.267 29.7585C179.021 28.047 177.684 25.9611 174.635 25.1588C172.549 24.5705 171.319 25.0519 170.41 26.175C169.34 27.5122 169.715 29.2237 170.731 30.2399L172.389 32.1118C174.475 34.5186 175.598 36.3371 175.17 38.8509C174.582 42.7553 169.822 45.8039 164.206 44.0924C159.392 42.5948 158.536 39.2253 159.125 37.3533C159.606 35.6953 160.943 35.3744 162.227 35.8023C163.618 36.2301 164.152 37.8882 163.724 39.1718C163.671 39.3323 163.618 39.5462 163.457 39.8136C163.297 40.188 163.029 40.4554 162.869 40.8833C162.548 41.8995 163.938 42.5948 164.901 42.9157C167.041 43.5575 169.126 42.4344 169.661 40.7229C170.143 39.1183 169.126 37.9951 168.752 37.5673L166.72 35.3744C165.81 34.3582 163.724 31.47 164.741 28.2075C165.115 26.9773 165.917 25.6402 167.094 24.7844C169.554 22.9125 172.282 22.6451 174.849 23.3938C178.165 24.3566 179.77 26.5494 181.856 28.2609C183.032 24.8914 184.637 21.5219 187.044 18.7407C189.237 16.1734 192.125 14.3549 195.494 14.1945C198.864 14.0875 201.378 15.5851 201.485 17.9919C201.431 19.0616 200.843 21.0405 198.81 21.094Z" fill="#1A171B"/>
<path d="M47 10C21.0436 10 0 20.9692 0 34.5C0 48.0307 21.0436 59 47 59C72.9564 59 94 48.0307 94 34.5C94 20.9692 72.9564 10 47 10ZM34.7703 39.2732C33.6487 40.3526 32.4032 40.7981 31.0315 41.2571C29.6598 41.7168 27.9143 41.6219 25.7918 41.6219H20.9813L19.6481 49.535H14.0314L19.0434 22.6302H29.8445C33.094 22.6302 35.4643 23.5917 36.9544 25.346C38.4445 27.1004 38.8923 29.5907 38.2984 32.7346C38.053 34.03 37.6399 35.2343 37.0567 36.3074C36.4524 37.4145 35.6806 38.4157 34.7703 39.2732ZM51.165 41.6219L53.3814 30.2111C53.6337 28.8753 53.5414 27.883 53.1037 27.3979C52.6652 26.9121 51.7328 26.5868 50.3073 26.5868H45.853L42.9827 41.6219H37.4098L42.4219 15.5084H47.9947L46.6623 22.6302H51.6266C54.7508 22.6302 56.9048 23.2752 58.0903 24.3957C59.2758 25.5162 59.6312 27.0513 59.1573 29.5614L56.8256 41.6219H51.165ZM82.1365 32.7765C81.8919 34.0719 81.478 35.2557 80.8956 36.3279C80.3125 37.4018 79.5509 38.3838 78.61 39.2732C77.4884 40.3526 76.2421 40.7981 74.8712 41.2571C73.5003 41.7168 71.7532 41.6219 69.6307 41.6219H64.8202L63.4878 49.535H57.8711L62.8823 22.6302H73.6842C76.9337 22.6302 79.3039 23.5917 80.7933 25.346C82.2819 27.1004 82.7304 29.6334 82.1365 32.7765ZM71.5555 26.5868H67.7082L65.6103 37.6653H69.0275C71.2908 37.6653 72.9787 37.4358 74.0865 36.5574C75.1958 35.6806 75.9428 34.3196 76.3313 32.2677C76.7037 30.2965 76.5344 28.759 75.8236 27.9487C75.112 27.1384 73.6895 26.5868 71.5555 26.5868ZM27.7166 26.5868H23.8685L21.7706 37.6653H25.1871C27.4512 37.6653 29.1382 37.4358 30.2468 36.5574C31.3554 35.6806 32.1032 34.3196 32.4909 32.2677C32.8632 30.2965 32.694 28.759 31.9831 27.9487C31.2723 27.1384 29.8506 26.5868 27.7166 26.5868Z" fill="#6181B6"/>
<path d="M333.384 53.4015C329.511 53.2969 326.553 53.6542 324.024 54.7103C323.305 55.0105 322.158 55.0189 322.041 55.9106C322.436 56.3204 322.498 56.9331 322.811 57.4374C323.415 58.4046 324.435 59.7027 325.344 60.3825C326.339 61.1261 327.363 61.9205 328.429 62.564C330.324 63.7084 332.44 64.3625 334.265 65.5092C335.34 66.1857 336.409 67.0371 337.458 67.7997C337.977 68.1771 338.326 68.7635 339 69V68.8915C338.646 68.4443 338.554 67.8304 338.229 67.3636L336.797 65.9453C335.397 64.1048 333.62 62.488 331.731 61.1457C330.225 60.0745 326.854 58.6276 326.225 56.8917L326.115 56.7827C327.183 56.6631 328.433 56.2807 329.419 56.0185C331.075 55.579 332.555 55.6925 334.265 55.2554L336.577 54.6007V54.1646C335.713 53.2863 335.097 52.1235 334.155 51.3285C331.688 49.2487 328.997 47.1707 326.226 45.4376C324.689 44.4771 322.789 43.8526 321.16 43.0381C320.612 42.7636 319.649 42.621 319.287 42.1648C318.431 41.0847 317.965 39.715 317.306 38.4565C315.923 35.8194 314.566 32.9396 313.341 30.165C312.506 28.2731 311.96 26.4081 310.918 24.7107C305.918 16.5668 300.536 11.6521 292.198 6.82061C290.423 5.79305 288.287 5.38773 286.029 4.85661C284.819 4.78449 283.607 4.71126 282.396 4.63802C281.656 4.33277 280.887 3.43658 280.193 3.00163C277.431 1.273 270.346 -2.48673 268.3 2.45654C267.009 5.57669 270.231 8.62025 271.383 10.2018C272.193 11.3099 273.228 12.5538 273.806 13.8011C274.187 14.6213 274.252 15.4437 274.578 16.3108C275.377 18.4475 276.074 20.7721 277.11 22.7462C277.633 23.7458 278.21 24.798 278.872 25.6913C279.277 26.2398 279.973 26.4813 280.083 27.3277C279.403 28.2703 279.364 29.734 278.982 30.9281C277.261 36.3036 277.91 42.9855 280.414 46.9638C281.182 48.186 282.992 50.8052 285.48 49.8C287.656 48.9222 287.17 46.2007 287.793 43.8001C287.933 43.2561 287.847 42.8558 288.123 42.4913V42.6003L290.105 46.5272C291.573 48.868 294.176 51.3139 296.383 52.9643C297.527 53.8202 298.428 55.2995 299.907 55.8004V55.6909H299.797C299.51 55.2486 299.061 55.0653 298.696 54.7097C297.834 53.8728 296.875 52.8324 296.163 51.8736C294.156 49.1749 292.383 46.2214 290.767 43.1471C289.995 41.6784 289.324 40.0594 288.674 38.565C288.423 37.9891 288.426 37.1176 287.904 36.8196C287.191 37.9142 286.142 38.7998 285.591 40.0923C284.71 42.1587 284.596 44.6789 284.27 47.292C284.077 47.3602 284.162 47.3132 284.049 47.4005C282.515 47.0343 281.976 45.4706 281.406 44.1282C279.964 40.7347 279.696 35.2715 280.965 31.3653C281.293 30.354 282.777 27.1718 282.176 26.2376C281.889 25.3062 280.944 24.7672 280.415 24.0555C279.759 23.1756 279.106 22.0172 278.652 21.0008C277.472 18.3558 276.921 15.3855 275.679 12.7109C275.085 11.4324 274.08 10.1381 273.256 9.00209C272.343 7.74252 271.321 6.81502 270.613 5.29269C270.361 4.75151 270.02 3.88496 270.392 3.32868C270.511 2.95355 270.679 2.79701 271.053 2.67458C271.692 2.18651 273.471 2.83671 274.136 3.11009C275.902 3.83688 277.376 4.529 278.872 5.51072C279.59 5.98257 280.316 6.89441 281.185 7.14711H282.176C283.726 7.49988 285.463 7.25613 286.912 7.6922C289.472 8.46259 291.766 9.66179 293.849 10.965C300.196 14.9355 305.387 20.5865 308.937 27.3283C309.508 28.414 309.755 29.4494 310.258 30.6011C311.273 32.9229 312.551 35.3118 313.561 37.5827C314.569 39.848 315.551 42.1341 316.975 44.0192C317.724 45.0099 320.616 45.5416 321.931 46.0923C322.853 46.4774 324.362 46.88 325.235 47.4005C326.902 48.3967 328.517 49.5825 330.081 50.6738C330.862 51.2189 333.265 52.4159 333.384 53.4015ZM284.158 11.8399C283.35 11.8248 282.779 11.9271 282.175 12.0574V12.1664H282.285C282.671 12.9502 283.351 13.4556 283.827 14.1304C284.193 14.8947 284.561 15.6578 284.928 16.4209L285.038 16.313C285.72 15.8361 286.032 15.0752 286.028 13.9124C285.755 13.6278 285.715 13.2711 285.478 12.9312C285.164 12.4778 284.555 12.2201 284.158 11.8399Z" fill="#00618A"/>
<path d="M404 58.8413L412.733 51.6833L404 44.5254V58.8413ZM412.671 27.9251V13L404.062 13.0508C404.062 13.0508 404.124 36.3521 404.186 36.2506C430.695 27.7728 428.775 33.8139 428.775 33.8139V58.892L428.713 58.9936H436.827V33.8646C436.827 20.1072 412.671 27.9251 412.671 27.9251ZM424.44 21.9347H433.606C438.561 16.8582 440.234 13.3046 440.234 13.3046H430.757C430.757 13.3046 427.722 18.8888 424.44 21.9347Z" fill="#440098"/>
<path fill-rule="evenodd" clip-rule="evenodd" d="M445 7H398C396.343 7 395 8.34315 395 10V60C395 61.6569 396.343 63 398 63H445C446.657 63 448 61.6569 448 60V10C448 8.34315 446.657 7 445 7ZM398 5C395.239 5 393 7.23858 393 10V60C393 62.7614 395.239 65 398 65H445C447.761 65 450 62.7614 450 60V10C450 7.23858 447.761 5 445 5H398Z" fill="#440098"/>
</svg>
