<svg width="286" height="157" viewBox="0 0 286 157" fill="none" xmlns="http://www.w3.org/2000/svg">
<path d="M4.92689 55.2595L0 0H54.1372L49.2049 55.2511L27.0356 61.3968L4.92689 55.2595Z" fill="#E44D26"/>
<path d="M27.0686 56.699L44.9827 51.7323L49.1975 4.51782H27.0686V56.699Z" fill="#F16529"/>
<path d="M27.0686 25.0129H18.1002L17.4807 18.0724H27.0686V11.2954H10.0739L10.2364 13.1135L11.9019 31.7904H27.0686V25.0129ZM27.0686 42.6143L27.0386 42.6227L19.4909 40.5839L19.0088 35.1794H12.2047L13.1541 45.8206L27.0376 49.6744L27.0686 49.6661V42.6143Z" fill="#EBEBEB"/>
<path d="M27.045 25.0129V31.7904H35.3904L34.604 40.58L27.045 42.6202V49.6715L40.9393 45.8206L41.0412 44.6757L42.6338 26.833L42.7987 25.0129H40.9727H27.045ZM27.045 11.2954V18.0724H43.4158L43.5517 16.5498L43.8609 13.1135L44.0229 11.2954H27.045Z" fill="white"/>
<path d="M116.951 55.5333L112 0H166.405L161.449 55.5249L139.17 61.7016L116.951 55.5333Z" fill="#1572B6"/>
<path d="M139.203 56.9808L157.206 51.9894L161.442 4.54053H139.203V56.9808Z" fill="#33A9DC"/>
<path d="M139.203 24.66H148.216L148.838 17.6855H139.203V10.8745H156.282L156.118 12.702L154.444 31.4709H139.203V24.66Z" fill="white"/>
<path d="M139.243 42.3483L139.213 42.3572L131.628 40.3091L131.143 34.877H124.307L125.261 45.5713L139.212 49.4434L139.243 49.4345V42.3483Z" fill="#EBEBEB"/>
<path d="M147.637 31.1829L146.816 40.3039L139.22 42.3544V49.4407L153.183 45.5711L153.285 44.4202L154.47 31.1829H147.637Z" fill="white"/>
<path d="M139.226 10.8745V17.6855H122.775L122.638 16.155L122.328 12.702L122.165 10.8745H139.226ZM139.203 24.6609V31.4719H131.713L131.577 29.9414L131.266 26.4884L131.104 24.6609H139.203Z" fill="#EBEBEB"/>
<path d="M224 0H285.646V61.6465H224V0Z" fill="#F0DB4F"/>
<path d="M280.601 46.9432C280.149 44.1308 278.315 41.7686 272.883 39.5659C270.996 38.6987 268.893 38.0777 268.266 36.6477C268.043 35.8154 268.014 35.3466 268.154 34.8429C268.559 33.2079 270.51 32.6983 272.057 33.1671C273.053 33.5009 273.996 34.2687 274.565 35.4934C277.225 33.7708 277.22 33.7821 279.077 32.5983C278.397 31.544 278.034 31.0574 277.589 30.6064C275.989 28.8193 273.809 27.8989 270.323 27.9693L268.506 28.2042C266.766 28.644 265.108 29.5575 264.135 30.7822C261.217 34.0934 262.049 39.8884 265.6 42.2733C269.098 44.899 274.238 45.4964 274.894 47.9517C275.533 50.9576 272.685 51.9306 269.854 51.5849C267.768 51.1511 266.608 50.0909 265.354 48.1629C263.045 49.4989 263.045 49.4989 260.672 50.864C261.235 52.0946 261.826 52.6516 262.77 53.7177C267.235 58.2472 278.409 58.0246 280.414 51.1688C280.495 50.9334 281.035 49.3635 280.601 46.9432ZM257.513 28.3323H251.747L251.723 43.2395C251.723 46.4098 251.887 49.3162 251.371 50.2071C250.528 51.9592 248.342 51.742 247.346 51.4022C246.332 50.9039 245.816 50.1953 245.219 49.1936C245.055 48.906 244.932 48.6835 244.89 48.6662L240.202 51.5372C240.982 53.1371 242.13 54.5258 243.601 55.428C245.798 56.7467 248.752 57.151 251.84 56.4419C253.85 55.8564 255.585 54.6435 256.493 52.7973C257.806 50.377 257.524 47.4474 257.512 44.2071C257.542 38.9208 257.513 33.6354 257.513 28.3323Z" fill="#323330"/>
<path d="M93.724 125.406C94.1682 125.405 94.612 125.429 95.0535 125.478C94.5386 125.15 94.1144 124.693 93.8208 124.151C93.5272 123.61 93.3739 123 93.3755 122.382V111.98C93.3755 111.546 93.3755 111.178 92.9238 111.178H90.1422C90.0469 111.184 89.954 111.21 89.8691 111.255C89.7842 111.299 89.7092 111.361 89.6486 111.436C89.5881 111.512 89.5434 111.599 89.5173 111.692C89.4912 111.786 89.4842 111.884 89.4968 111.98V122.579C89.5083 123.725 89.7871 124.852 90.31 125.866C91.4221 125.555 92.5707 125.4 93.724 125.406ZM119.836 125.406V114.465H122.205C122.923 114.46 123.635 114.604 124.298 114.888C124.96 115.172 125.559 115.59 126.057 116.117C126.556 116.644 126.944 117.269 127.198 117.954C127.452 118.639 127.567 119.369 127.536 120.1C127.566 120.818 127.453 121.536 127.203 122.208C126.953 122.88 126.571 123.494 126.081 124.011C125.591 124.529 125.002 124.939 124.351 125.217C123.701 125.495 123.001 125.636 122.295 125.63C124.134 126.077 125.893 126.813 127.51 127.812C128.79 127.029 129.842 125.911 130.557 124.575C131.272 123.239 131.623 121.733 131.576 120.212C131.568 119.01 131.327 117.822 130.866 116.717C130.405 115.611 129.734 114.609 128.891 113.769C128.048 112.929 127.05 112.267 125.954 111.823C124.858 111.378 123.687 111.159 122.508 111.178H117.229C116.822 111.178 115.938 111.559 115.938 111.98V125.787C117.142 125.519 118.372 125.396 119.604 125.419C119.759 125.406 119.191 125.406 119.836 125.406ZM104.347 122.579V111.98C104.347 111.559 104.347 111.178 103.934 111.178H101.152C101.058 111.186 100.966 111.213 100.882 111.259C100.798 111.304 100.724 111.365 100.663 111.44C100.603 111.515 100.558 111.601 100.531 111.694C100.505 111.787 100.496 111.884 100.507 111.98V122.428C100.538 123.276 100.258 124.106 99.7212 124.755C99.1842 125.404 98.4288 125.826 97.6028 125.939C99.3453 126.491 100.752 127.378 102.295 128.043C103.773 126.721 104.347 124.748 104.347 122.579ZM108.219 128.858C110.155 128.693 111.446 128.2 112.092 127.661V112.144C112.092 111.71 112.034 111.178 111.608 111.178H108.613C108.187 111.178 108.219 111.71 108.219 112.144V128.858ZM60.461 128.036V125.846C60.4667 125.632 60.3917 125.423 60.2514 125.263C60.111 125.103 59.9159 125.004 59.7059 124.985H53.3618V111.98C53.3605 111.774 53.2824 111.577 53.1433 111.428C53.0042 111.279 52.8147 111.19 52.6132 111.178H50.3092C50.0982 111.181 49.8962 111.265 49.7441 111.414C49.5919 111.563 49.5009 111.765 49.4895 111.98V126.8C51.406 128.104 53.6404 128.839 55.9433 128.924C57.4936 128.953 59.0327 128.651 60.461 128.036ZM66.2695 112.144C66.2249 111.896 66.104 111.669 65.9242 111.495C65.7444 111.321 65.5149 111.21 65.2691 111.178H63.333C63.0945 111.212 62.8737 111.325 62.7045 111.5C62.5354 111.675 62.4274 111.901 62.3972 112.144V126.8C63.6085 126.168 64.919 125.756 66.2695 125.584V112.144ZM138.927 140.068C137.074 141.167 134.968 141.746 132.825 141.746C130.681 141.746 128.575 141.167 126.722 140.068C124.699 138.876 122.403 138.248 120.065 138.248C117.728 138.248 115.432 138.876 113.408 140.068C111.556 141.167 109.45 141.746 107.306 141.746C105.162 141.746 103.057 141.167 101.204 140.068C99.1809 138.875 96.8846 138.247 94.5469 138.247C92.2092 138.247 89.9129 138.875 87.8898 140.068C86.0593 141.217 83.9404 141.8 81.7909 141.745C79.6415 141.799 77.5229 141.216 75.692 140.068C73.6905 138.826 71.3814 138.194 69.0382 138.247C66.6947 138.191 64.3849 138.823 62.3843 140.068C60.5537 141.217 58.4349 141.8 56.2854 141.745C54.136 141.799 52.0172 141.217 50.1865 140.068C48.1859 138.823 45.8761 138.191 43.5326 138.247C41.187 138.19 38.8748 138.822 36.8723 140.068C35.6788 140.796 34.3675 141.301 33 141.56V142.777C34.5652 142.514 36.0674 141.952 37.4273 141.12C39.2578 139.971 41.3767 139.388 43.5262 139.443C45.6756 139.389 47.7944 139.971 49.6251 141.12C51.6257 142.364 53.9354 142.997 56.2789 142.941C58.6246 142.998 60.9368 142.366 62.9393 141.12C64.7698 139.971 66.8887 139.388 69.0382 139.443C71.1876 139.389 73.3063 139.971 75.137 141.12C77.1385 142.362 79.4477 142.994 81.7909 142.941C84.1344 142.997 86.4441 142.364 88.4448 141.12C90.2975 140.021 92.403 139.442 94.5469 139.442C96.6908 139.442 98.7963 140.021 100.649 141.12C102.672 142.312 104.969 142.94 107.306 142.94C109.644 142.94 111.94 142.312 113.963 141.12C115.816 140.021 117.921 139.442 120.065 139.442C122.209 139.442 124.315 140.021 126.167 141.12C128.191 142.312 130.487 142.94 132.825 142.94C135.162 142.94 137.458 142.312 139.482 141.12C141.312 139.971 143.431 139.389 145.581 139.443H146V138.266H145.581C143.239 138.207 140.93 138.832 138.927 140.068Z" fill="#000099"/>
<path d="M145.581 128.694C143.234 128.646 140.924 129.287 138.927 130.541C137.075 131.642 134.969 132.223 132.825 132.223C130.68 132.223 128.574 131.642 126.722 130.541C124.699 129.35 122.403 128.722 120.065 128.722C117.728 128.722 115.432 129.35 113.408 130.541C111.556 131.64 109.45 132.219 107.306 132.219C105.162 132.219 103.057 131.64 101.204 130.541C99.1809 129.348 96.8846 128.72 94.5469 128.72C92.2092 128.72 89.9129 129.348 87.8898 130.541C87.4509 130.778 87.0185 131.015 86.5667 131.199L83.9852 127.484C85.0156 126.623 85.8479 125.542 86.4233 124.317C86.9987 123.092 87.3032 121.754 87.3154 120.396C87.3065 118.932 86.964 117.49 86.3149 116.184C85.6659 114.878 84.7279 113.743 83.5749 112.869C82.422 111.995 81.0856 111.406 79.671 111.148C78.2565 110.89 76.8024 110.97 75.4234 111.382C74.0444 111.794 72.7781 112.527 71.7244 113.522C70.6707 114.518 69.8583 115.749 69.3512 117.119C68.8442 118.489 68.6563 119.96 68.8025 121.416C68.9486 122.873 69.4248 124.275 70.1934 125.512C74.5562 126.123 75.3177 128.707 80.5195 128.865L82.2427 132.152H81.8167C79.6673 132.207 77.5487 131.624 75.7179 130.476C73.7163 129.233 71.4072 128.601 69.064 128.654C66.7205 128.599 64.4107 129.231 62.4101 130.476C60.5796 131.625 58.4607 132.207 56.3112 132.152C54.1618 132.207 52.043 131.624 50.2123 130.476C48.2117 129.231 45.902 128.599 43.5585 128.654C41.197 128.614 38.8746 129.272 36.8723 130.548C35.6793 131.278 34.368 131.786 33 132.047V133.263C34.5656 132.999 36.0679 132.434 37.4273 131.6C39.2578 130.451 41.3767 129.868 43.5262 129.923C45.6756 129.869 47.7944 130.451 49.6251 131.6C51.6257 132.844 53.9354 133.477 56.2789 133.421C58.6224 133.477 60.9322 132.844 62.9328 131.6C64.7634 130.451 66.8822 129.868 69.0317 129.923C71.1811 129.869 73.2999 130.451 75.1306 131.6C77.134 132.844 79.4455 133.476 81.7909 133.421C84.1344 133.477 86.4441 132.844 88.4448 131.6C90.2975 130.501 92.403 129.922 94.5469 129.922C96.6908 129.922 98.7963 130.501 100.649 131.6C102.672 132.792 104.969 133.42 107.306 133.42C109.644 133.42 111.94 132.792 113.963 131.6C115.816 130.501 117.921 129.922 120.065 129.922C122.209 129.922 124.315 130.501 126.167 131.6C128.191 132.792 130.487 133.42 132.825 133.42C135.162 133.42 137.458 132.792 139.482 131.6C141.312 130.451 143.431 129.869 145.581 129.923H146V128.694H145.581ZM78.0219 125.972C76.6071 125.922 75.2666 125.315 74.283 124.278C73.2994 123.241 72.7496 121.855 72.7496 120.413C72.7496 118.971 73.2994 117.585 74.283 116.548C75.2666 115.511 76.6071 114.903 78.0219 114.854C79.4654 114.878 80.8428 115.474 81.8612 116.517C82.8796 117.559 83.4587 118.965 83.4754 120.436C83.4702 121.906 82.8934 123.314 81.8712 124.352C80.8491 125.389 79.4649 125.972 78.0219 125.972Z" fill="#000099"/>
<path d="M138.927 135.308C137.074 136.407 134.968 136.986 132.825 136.986C130.681 136.986 128.575 136.407 126.722 135.308C124.699 134.116 122.403 133.488 120.065 133.488C117.728 133.488 115.432 134.116 113.408 135.308C111.556 136.407 109.45 136.986 107.306 136.986C105.162 136.986 103.057 136.407 101.204 135.308C99.1809 134.115 96.8846 133.487 94.5469 133.487C92.2092 133.487 89.9129 134.115 87.8898 135.308C86.0593 136.457 83.9404 137.04 81.7909 136.985C79.6415 137.039 77.5227 136.457 75.692 135.308C73.6905 134.066 71.3814 133.434 69.0382 133.487C66.6947 133.431 64.3849 134.064 62.3843 135.308C60.5537 136.457 58.4349 137.04 56.2854 136.985C54.136 137.039 52.0172 136.457 50.1865 135.308C48.1859 134.064 45.8761 133.431 43.5326 133.487C41.187 133.43 38.8748 134.062 36.8723 135.308C35.6793 136.038 34.368 136.546 33 136.807V138.024C34.5656 137.759 36.0679 137.194 37.4273 136.36C39.2578 135.211 41.3767 134.628 43.5262 134.684C45.6756 134.629 47.7944 135.211 49.6251 136.36C51.6257 137.605 53.9354 138.237 56.2789 138.181C58.6224 138.237 60.9322 137.605 62.9328 136.36C64.7634 135.211 66.8822 134.628 69.0317 134.684C71.1811 134.629 73.2999 135.211 75.1306 136.36C77.134 137.604 79.4455 138.236 81.7909 138.181C84.1344 138.237 86.4441 137.605 88.4448 136.36C90.2975 135.261 92.403 134.682 94.5469 134.682C96.6908 134.682 98.7963 135.261 100.649 136.36C102.672 137.553 104.969 138.18 107.306 138.18C109.644 138.18 111.94 137.553 113.963 136.36C115.816 135.261 117.921 134.682 120.065 134.682C122.209 134.682 124.315 135.261 126.167 136.36C128.191 137.553 130.487 138.18 132.825 138.18C135.162 138.18 137.458 137.553 139.482 136.36C141.312 135.211 143.431 134.629 145.581 134.684H146V133.507H145.581C143.239 133.447 140.93 134.073 138.927 135.308Z" fill="#000099"/>
<path d="M245.102 100.497C245.061 100.124 244.73 99.9585 244.482 99.9171C244.233 99.8757 239.266 99.8343 239.266 99.8343C239.266 99.8343 235.085 95.7777 234.671 95.3637C234.257 94.9498 233.471 95.074 233.139 95.1568C233.139 95.1568 232.353 95.4051 231.028 95.8191C230.821 95.1154 230.49 94.2461 230.035 93.3768C228.545 90.5206 226.392 89.0304 223.743 89.0304C223.577 89.0304 223.37 89.0304 223.205 89.0718C223.122 88.989 223.039 88.9062 222.956 88.782C221.797 87.5402 220.349 86.9607 218.61 87.0021C215.216 87.0849 211.863 89.5271 209.089 93.9149C207.144 96.9781 205.695 100.828 205.281 103.808C201.39 105.009 198.658 105.837 198.617 105.878C196.671 106.499 196.588 106.54 196.34 108.403C196.133 109.769 191 149.549 191 149.549L234.092 157L252.76 152.364C252.76 152.364 245.144 100.828 245.102 100.497ZM228.876 96.4814C227.882 96.7711 226.765 97.1437 225.523 97.5162C225.482 95.8191 225.275 93.4182 224.488 91.3485C227.096 91.8452 228.338 94.7428 228.876 96.4814ZM223.288 98.22C221.011 98.9237 218.569 99.6688 216.085 100.455C216.789 97.806 218.113 95.1568 219.728 93.4182C220.349 92.7559 221.177 92.0522 222.17 91.6382C223.122 93.5838 223.288 96.3572 223.288 98.22ZM218.651 89.2788C219.438 89.2788 220.1 89.4443 220.68 89.8169C219.769 90.2722 218.858 90.9759 218.031 91.8866C215.878 94.2047 214.222 97.7646 213.56 101.242C211.49 101.863 209.503 102.484 207.641 103.063C208.882 97.599 213.436 89.4443 218.651 89.2788Z" fill="#95BF47"/>
<path d="M244.482 99.917C244.233 99.8756 239.266 99.8342 239.266 99.8342C239.266 99.8342 235.085 95.7775 234.671 95.3636C234.506 95.198 234.299 95.1152 234.092 95.1152V157L252.76 152.364C252.76 152.364 245.144 100.869 245.102 100.497C245.02 100.124 244.73 99.9584 244.482 99.917Z" fill="#5E8E3E"/>
<path d="M223.743 109.52L221.59 117.634C221.59 117.634 219.19 116.516 216.292 116.723C212.07 116.971 212.028 119.621 212.07 120.324C212.318 123.967 221.839 124.754 222.377 133.239C222.791 139.945 218.817 144.499 213.105 144.871C206.233 145.285 202.466 141.27 202.466 141.27L203.915 135.102C203.915 135.102 207.723 137.958 210.745 137.793C212.732 137.669 213.436 136.054 213.353 134.895C213.063 130.176 205.281 130.425 204.784 122.684C204.37 116.144 208.675 109.52 218.155 108.9C221.88 108.568 223.743 109.52 223.743 109.52Z" fill="white"/>
</svg>
