<svg width="121" height="41" viewBox="0 0 121 41" fill="none" xmlns="http://www.w3.org/2000/svg">
<path d="M29.5263 7.80762C29.5081 7.85319 29.4899 7.89648 29.4717 7.9375C29.4534 7.97852 29.4398 8.02409 29.4306 8.07422C29.3987 8.09701 29.3623 8.11523 29.3213 8.12891C29.2848 8.13802 29.2461 8.14941 29.2051 8.16309C29.164 8.1722 29.1253 8.18587 29.0888 8.2041C29.0569 8.21777 29.0319 8.24056 29.0136 8.27246C29 8.34082 28.9931 8.40462 28.9931 8.46387C28.9931 8.54134 29.0068 8.60742 29.0342 8.66211C29.0205 8.70312 29.0114 8.74642 29.0068 8.79199C29.0023 8.83757 29 8.88086 29 8.92188C29 9.07227 29.0182 9.22266 29.0547 9.37305C29.0911 9.51888 29.1116 9.66699 29.1162 9.81738C29.1162 9.84017 29.1139 9.86523 29.1094 9.89258C29.1048 9.91992 29.1025 9.94499 29.1025 9.96777C29.1025 10.0635 29.139 10.1273 29.2119 10.1592C29.1982 10.182 29.1914 10.2025 29.1914 10.2207C29.1914 10.2572 29.1959 10.2891 29.2051 10.3164C29.2142 10.3438 29.2164 10.3734 29.2119 10.4053C29.2347 10.4508 29.2575 10.4919 29.2803 10.5283C29.303 10.5602 29.319 10.6012 29.3281 10.6514C29.2962 10.7152 29.2575 10.7744 29.2119 10.8291C29.1663 10.8792 29.1344 10.943 29.1162 11.0205C29.098 11.016 29.0775 11.0137 29.0547 11.0137C29.0228 11.0137 28.9977 11.0205 28.9795 11.0342C28.9612 11.0479 28.9453 11.0638 28.9316 11.082C28.9225 11.1048 28.9111 11.1253 28.8974 11.1436C28.8838 11.1663 28.8655 11.1823 28.8428 11.1914H28.8222C28.7995 11.196 28.7789 11.1937 28.7607 11.1846C28.747 11.18 28.7334 11.1777 28.7197 11.1777C28.7106 11.1777 28.6924 11.1823 28.665 11.1914C28.6286 11.1458 28.6035 11.0911 28.5898 11.0273C28.5761 10.9681 28.5693 10.9089 28.5693 10.8496C28.5693 10.7858 28.5784 10.7288 28.5967 10.6787C28.5465 10.6377 28.5146 10.5762 28.501 10.4941C28.4918 10.4121 28.4804 10.3438 28.4668 10.2891C28.4303 10.1204 28.387 9.95638 28.3369 9.79688C28.2913 9.63737 28.264 9.47331 28.2549 9.30469C28.2503 9.24089 28.248 9.17936 28.248 9.12012V8.76465C28.248 8.7054 28.2503 8.64844 28.2549 8.59375C28.2549 8.55273 28.2571 8.514 28.2617 8.47754C28.2708 8.43652 28.2754 8.39551 28.2754 8.35449C28.2754 8.2998 28.2571 8.2474 28.2207 8.19727C27.8971 8.21094 27.5895 8.27018 27.2978 8.375C27.0107 8.47526 26.7236 8.59603 26.4365 8.7373C26.4183 8.84212 26.4069 8.94466 26.4023 9.04492C26.3978 9.14518 26.3955 9.24772 26.3955 9.35254V9.65332C26.3955 9.76725 26.4 9.86296 26.4092 9.94043C26.4319 10.0726 26.498 10.1751 26.6074 10.248C26.7213 10.3164 26.8353 10.3688 26.9492 10.4053C26.9446 10.4736 26.931 10.5329 26.9082 10.583C26.8854 10.6286 26.8558 10.6719 26.8193 10.7129C26.7874 10.7493 26.751 10.7858 26.7099 10.8223C26.6689 10.8587 26.6279 10.8997 26.5869 10.9453C26.5504 10.9225 26.514 10.9066 26.4775 10.8975C26.4411 10.8883 26.4023 10.8838 26.3613 10.8838C26.3203 10.8792 26.2793 10.8747 26.2383 10.8701C26.1972 10.8656 26.1562 10.8564 26.1152 10.8428L25.9648 10.6377C25.9147 10.5693 25.86 10.501 25.8008 10.4326V10.3711C25.8008 10.248 25.778 10.1296 25.7324 10.0156C25.6868 9.90169 25.6526 9.78548 25.6299 9.66699C25.6435 9.62598 25.6526 9.58496 25.6572 9.54395C25.6618 9.50293 25.664 9.45964 25.664 9.41406C25.664 9.32292 25.6595 9.23405 25.6504 9.14746C25.6458 9.06087 25.6481 8.97428 25.6572 8.8877H25.623C25.582 8.8877 25.5387 8.89909 25.4931 8.92188C25.4476 8.9401 25.402 8.96289 25.3564 8.99023C25.3154 9.01302 25.2744 9.03581 25.2334 9.05859C25.1969 9.07682 25.165 9.08594 25.1377 9.08594C25.124 9.08594 25.1103 9.08366 25.0967 9.0791C25.083 9.07454 25.067 9.07227 25.0488 9.07227C25.026 9.07227 24.9987 9.08138 24.9668 9.09961C24.9349 9.11784 24.9007 9.13835 24.8642 9.16113C24.8232 9.17936 24.7822 9.19759 24.7412 9.21582C24.7002 9.23405 24.6592 9.24316 24.6181 9.24316C24.5543 9.24316 24.4905 9.21582 24.4267 9.16113C24.4176 9.12467 24.4153 9.09049 24.4199 9.05859C24.4199 9.02669 24.4199 8.99251 24.4199 8.95605C24.4199 8.9196 24.4131 8.88086 24.3994 8.83984C24.4313 8.7806 24.4746 8.73503 24.5293 8.70312C24.5794 8.66667 24.6341 8.63477 24.6933 8.60742C24.748 8.57552 24.805 8.5459 24.8642 8.51855C24.9235 8.48665 24.9736 8.44564 25.0146 8.39551H25.0556C25.1194 8.39551 25.1764 8.38184 25.2265 8.35449C25.2812 8.32715 25.3428 8.31576 25.4111 8.32031C25.4339 8.3112 25.4498 8.27702 25.459 8.21777L25.4863 8.22461C25.5866 8.22461 25.6754 8.19043 25.7529 8.12207C25.803 7.83952 25.8441 7.55469 25.876 7.26758C25.9079 6.98047 25.9238 6.69336 25.9238 6.40625C25.9238 6.37891 25.9147 6.35156 25.8965 6.32422C25.8873 6.28776 25.8828 6.25358 25.8828 6.22168V6.11914C25.8828 6.06901 25.8851 6.0166 25.8896 5.96191C25.8942 5.90723 25.9056 5.85254 25.9238 5.79785C25.9694 5.77051 26.0172 5.75684 26.0674 5.75684C26.1266 5.75684 26.1836 5.76595 26.2383 5.78418C26.2975 5.79785 26.3545 5.80924 26.4092 5.81836C26.4502 5.85938 26.4798 5.90495 26.498 5.95508C26.5208 6.00521 26.5345 6.05762 26.539 6.1123C26.5436 6.16243 26.5436 6.21484 26.539 6.26953C26.539 6.31966 26.539 6.36979 26.539 6.41992C26.539 6.52018 26.5504 6.61816 26.5732 6.71387C26.596 6.80957 26.6074 6.90299 26.6074 6.99414C26.6074 7.01693 26.5983 7.03516 26.5801 7.04883C26.5664 7.05794 26.5595 7.08757 26.5595 7.1377C26.5595 7.18783 26.5641 7.24023 26.5732 7.29492C26.5823 7.34961 26.5869 7.4043 26.5869 7.45898C26.5869 7.52279 26.5778 7.58887 26.5595 7.65723C26.5413 7.72559 26.5254 7.79167 26.5117 7.85547C26.7851 7.83268 27.0654 7.7985 27.3525 7.75293C27.6396 7.70736 27.9131 7.63444 28.1728 7.53418C28.1774 7.52507 28.1797 7.51139 28.1797 7.49316C28.1797 7.46582 28.1774 7.43848 28.1728 7.41113C28.1683 7.38379 28.166 7.35417 28.166 7.32227C28.166 7.26758 28.1842 7.22428 28.2207 7.19238C28.1979 7.06478 28.1819 6.93717 28.1728 6.80957C28.1637 6.68197 28.1592 6.55436 28.1592 6.42676V6.03711C28.1592 5.90951 28.1569 5.7819 28.1523 5.6543C28.1888 5.63151 28.2275 5.62012 28.2685 5.62012C28.3187 5.62012 28.3642 5.63379 28.4053 5.66113C28.4508 5.68392 28.5032 5.69531 28.5625 5.69531C28.6035 5.69531 28.6377 5.68848 28.665 5.6748C28.7151 5.72038 28.7493 5.77962 28.7676 5.85254C28.7858 5.92546 28.8017 6.00065 28.8154 6.07812C28.8291 6.1556 28.8428 6.23307 28.8564 6.31055C28.8747 6.38346 28.9088 6.44271 28.959 6.48828L28.9658 6.50879C28.9658 6.52702 28.9567 6.54069 28.9385 6.5498C28.9202 6.55892 28.9111 6.57715 28.9111 6.60449V6.63184C28.9293 6.70475 28.943 6.77995 28.9521 6.85742C28.9612 6.9349 28.9681 7.01465 28.9726 7.09668C28.9817 7.17415 28.9931 7.25163 29.0068 7.3291C29.0205 7.40202 29.0456 7.47038 29.082 7.53418C29.1048 7.52962 29.1344 7.52734 29.1709 7.52734C29.262 7.52734 29.3327 7.55924 29.3828 7.62305C29.4375 7.68229 29.4853 7.74382 29.5263 7.80762ZM34.291 7.04199C34.2636 7.08301 34.2477 7.12858 34.2431 7.17871C34.2386 7.22884 34.2363 7.27441 34.2363 7.31543C34.2363 7.37012 34.2363 7.4248 34.2363 7.47949C34.2409 7.52962 34.2431 7.57975 34.2431 7.62988V7.73242C34.234 7.76432 34.2204 7.79622 34.2021 7.82812C34.1839 7.86003 34.1702 7.89193 34.1611 7.92383C34.0973 8.09245 34.0654 8.26107 34.0654 8.42969V8.44336C34.0426 8.49805 34.0198 8.54818 33.997 8.59375C33.9788 8.63932 33.9606 8.6849 33.9424 8.73047C33.9241 8.77148 33.9105 8.81706 33.9013 8.86719C33.8922 8.91276 33.89 8.96745 33.8945 9.03125C33.8307 9.19076 33.7464 9.33659 33.6416 9.46875C33.5368 9.59635 33.4342 9.72852 33.334 9.86523C33.2383 9.90169 33.1494 9.94954 33.0674 10.0088C32.9899 10.068 32.9147 10.1341 32.8418 10.207C32.7005 10.2526 32.5615 10.305 32.4248 10.3643C32.2881 10.4235 32.165 10.5033 32.0556 10.6035C31.9691 10.6126 31.8825 10.6263 31.7959 10.6445C31.7093 10.6628 31.625 10.6901 31.5429 10.7266H31.4609C31.4199 10.7266 31.3903 10.7174 31.372 10.6992C31.3128 10.7311 31.2513 10.7539 31.1875 10.7676C31.1237 10.7767 31.0599 10.7812 30.9961 10.7812C30.914 10.7812 30.832 10.7767 30.75 10.7676C30.6725 10.7539 30.5928 10.7402 30.5107 10.7266C30.4651 10.6628 30.4013 10.6149 30.3193 10.583C30.2373 10.5465 30.1644 10.5124 30.1006 10.4805C29.9684 10.2982 29.8727 10.1227 29.8135 9.9541C29.7542 9.78092 29.6927 9.58724 29.6289 9.37305C29.638 9.30924 29.6539 9.24772 29.6767 9.18848C29.6995 9.12467 29.7086 9.05632 29.7041 8.9834C29.7861 8.74642 29.8932 8.53223 30.0254 8.34082C30.1621 8.14486 30.317 7.95801 30.4902 7.78027C30.4902 7.75293 30.4948 7.73014 30.5039 7.71191C30.5176 7.69368 30.5198 7.66634 30.5107 7.62988C30.5153 7.63444 30.5244 7.63672 30.5381 7.63672C30.5745 7.63672 30.5973 7.6276 30.6064 7.60938C30.6155 7.58659 30.6178 7.56152 30.6133 7.53418C30.7773 7.42936 30.9254 7.30859 31.0576 7.17188C31.1943 7.03516 31.3493 6.92122 31.5224 6.83008C31.5361 6.78906 31.5589 6.75488 31.5908 6.72754C31.6227 6.7002 31.6478 6.66829 31.666 6.63184C31.8118 6.59082 31.944 6.5293 32.0625 6.44727C32.181 6.36523 32.3063 6.29232 32.4385 6.22852C32.5114 6.1875 32.5797 6.16016 32.6435 6.14648C32.7119 6.12826 32.7848 6.11003 32.8623 6.0918C32.8896 6.08268 32.9147 6.07585 32.9375 6.07129C32.9603 6.06673 32.9853 6.06445 33.0127 6.06445C33.0947 6.06445 33.1745 6.0804 33.2519 6.1123C33.3294 6.13965 33.4092 6.15332 33.4912 6.15332C33.514 6.15332 33.5322 6.15332 33.5459 6.15332C33.5641 6.14876 33.5823 6.14421 33.6006 6.13965C33.678 6.23535 33.776 6.30827 33.8945 6.3584C33.9219 6.42676 33.9538 6.486 33.9902 6.53613C34.0312 6.58626 34.0722 6.63639 34.1133 6.68652C34.1543 6.7321 34.1907 6.78451 34.2226 6.84375C34.2591 6.89844 34.2819 6.96452 34.291 7.04199ZM33.6074 7.39746C33.6074 7.37467 33.6051 7.35417 33.6006 7.33594C33.555 7.32227 33.5117 7.30404 33.4707 7.28125C33.4297 7.25846 33.3841 7.24707 33.334 7.24707C33.3021 7.24707 33.2702 7.25391 33.2383 7.26758C33.2337 7.23568 33.22 7.21289 33.1972 7.19922C33.179 7.18555 33.1562 7.17415 33.1289 7.16504C33.1061 7.15137 33.081 7.14225 33.0537 7.1377C33.0309 7.12858 33.0104 7.11491 32.9922 7.09668C32.9785 7.06022 32.9625 7.02376 32.9443 6.9873C32.9306 6.94629 32.9033 6.91667 32.8623 6.89844C32.8213 6.93945 32.7734 6.97363 32.7187 7.00098C32.664 7.02376 32.6071 7.04655 32.5478 7.06934C32.4931 7.09212 32.4385 7.11947 32.3838 7.15137C32.3336 7.18327 32.2903 7.22201 32.2539 7.26758H32.1308C32.1035 7.31771 32.0648 7.35645 32.0146 7.38379C31.9645 7.40658 31.9212 7.44076 31.8847 7.48633C31.8118 7.52279 31.7435 7.56836 31.6797 7.62305C31.6204 7.67318 31.5612 7.72786 31.5019 7.78711C31.4427 7.8418 31.3834 7.89876 31.3242 7.95801C31.2695 8.01725 31.2103 8.07194 31.1465 8.12207C31.0872 8.24967 31.0211 8.36133 30.9482 8.45703C30.8799 8.54818 30.8138 8.6416 30.75 8.7373C30.6907 8.83301 30.6383 8.93783 30.5928 9.05176C30.5517 9.16113 30.5312 9.29785 30.5312 9.46191V9.53027C30.5312 9.55306 30.5335 9.57585 30.5381 9.59863C30.5973 9.66243 30.6452 9.73079 30.6816 9.80371C30.7226 9.87663 30.7887 9.92904 30.8799 9.96094C30.971 9.9974 31.0667 10.0133 31.167 10.0088C31.2718 10.0042 31.372 10.0156 31.4678 10.043C31.6865 10.002 31.8961 9.93587 32.0967 9.84473C32.3017 9.74902 32.4954 9.63509 32.6777 9.50293C32.7051 9.48014 32.737 9.45736 32.7734 9.43457C32.8099 9.40723 32.8395 9.37988 32.8623 9.35254C32.8851 9.32975 32.9033 9.30469 32.917 9.27734C32.9352 9.25 32.9534 9.22493 32.9717 9.20215C33.0081 9.1429 33.0491 9.08366 33.0947 9.02441C33.1403 8.96517 33.1881 8.91048 33.2383 8.86035C33.261 8.76009 33.2907 8.66439 33.3271 8.57324C33.3636 8.47754 33.4 8.38411 33.4365 8.29297C33.473 8.20182 33.5026 8.1084 33.5254 8.0127C33.5527 7.91699 33.5664 7.81673 33.5664 7.71191C33.5664 7.68913 33.5641 7.66406 33.5595 7.63672C33.5595 7.60938 33.5573 7.58431 33.5527 7.56152C33.5892 7.51139 33.6074 7.45671 33.6074 7.39746ZM41.3388 10.1387C41.3161 10.2116 41.3092 10.2845 41.3183 10.3574C41.3047 10.3757 41.2887 10.387 41.2705 10.3916C41.2523 10.3962 41.234 10.403 41.2158 10.4121C41.1976 10.4167 41.1816 10.4258 41.1679 10.4395C41.1588 10.4486 41.1588 10.4691 41.1679 10.501C41.0176 10.5101 40.874 10.542 40.7373 10.5967C40.6006 10.6514 40.4661 10.7106 40.334 10.7744C40.2656 10.7516 40.2064 10.7243 40.1562 10.6924C40.1061 10.6605 40.0423 10.64 39.9648 10.6309C39.8873 10.4759 39.8144 10.3141 39.7461 10.1455C39.6823 9.97233 39.6504 9.79915 39.6504 9.62598C39.6504 9.49837 39.6732 9.38216 39.7187 9.27734C39.7187 9.14062 39.7301 9.00618 39.7529 8.87402C39.7757 8.74186 39.8008 8.61198 39.8281 8.48438C39.86 8.35221 39.8873 8.22005 39.9101 8.08789C39.9329 7.95573 39.9443 7.82129 39.9443 7.68457V7.53418C39.9352 7.53418 39.9238 7.54557 39.9101 7.56836C39.8965 7.58659 39.8828 7.60938 39.8691 7.63672C39.86 7.65951 39.8509 7.68229 39.8418 7.70508C39.8327 7.72786 39.8258 7.74154 39.8213 7.74609C39.7438 7.80534 39.6823 7.88053 39.6367 7.97168C39.5957 8.05827 39.5501 8.1403 39.5 8.21777C39.4362 8.31348 39.3678 8.4069 39.2949 8.49805C39.2265 8.58919 39.14 8.65983 39.0351 8.70996V8.72363C39.0351 8.74642 39.0283 8.76237 39.0146 8.77148C39.001 8.7806 38.9987 8.80339 39.0078 8.83984C38.8939 8.8763 38.7868 8.92871 38.6865 8.99707C38.5908 9.06543 38.511 9.15202 38.4472 9.25684C38.3561 9.27962 38.2695 9.31152 38.1875 9.35254C38.11 9.389 38.0303 9.43001 37.9482 9.47559C37.9118 9.49382 37.873 9.5166 37.832 9.54395C37.791 9.57129 37.75 9.58952 37.709 9.59863C37.6725 9.6123 37.6224 9.62142 37.5586 9.62598C37.4993 9.63053 37.4355 9.63509 37.3672 9.63965C37.3034 9.64421 37.2396 9.64648 37.1758 9.64648H37.0254C37.0026 9.64648 36.973 9.63509 36.9365 9.6123C36.9 9.58952 36.859 9.56445 36.8135 9.53711C36.7724 9.50977 36.7291 9.4847 36.6836 9.46191C36.638 9.43457 36.5947 9.41634 36.5537 9.40723C36.5172 9.28874 36.4648 9.18392 36.3965 9.09277C36.3327 8.99707 36.2643 8.90137 36.1914 8.80566C36.1686 8.69629 36.1367 8.58236 36.0957 8.46387C36.0592 8.34538 35.9931 8.2474 35.8974 8.16992C35.9202 8.13802 35.9316 8.10156 35.9316 8.06055C35.9316 8.01042 35.9202 7.96257 35.8974 7.91699C35.8747 7.87142 35.8633 7.82129 35.8633 7.7666C35.8633 7.73014 35.8655 7.7028 35.8701 7.68457C35.82 7.73926 35.7835 7.8099 35.7607 7.89648C35.7425 7.97852 35.7334 8.05371 35.7334 8.12207C35.7334 8.17676 35.7402 8.22689 35.7539 8.27246C35.7083 8.33626 35.6787 8.41602 35.665 8.51172C35.6559 8.60742 35.6513 8.69173 35.6513 8.76465C35.6513 8.85579 35.6582 8.94466 35.6719 9.03125C35.5989 9.10417 35.5625 9.19303 35.5625 9.29785C35.5625 9.3571 35.5761 9.40951 35.6035 9.45508C35.6035 9.47331 35.5989 9.48698 35.5898 9.49609C35.5807 9.50521 35.5693 9.51204 35.5556 9.5166C35.5465 9.52116 35.5351 9.52799 35.5215 9.53711C35.5123 9.54167 35.5078 9.55306 35.5078 9.57129C35.5078 9.59408 35.5078 9.61914 35.5078 9.64648C35.5123 9.67383 35.5146 9.70117 35.5146 9.72852C35.5146 9.79232 35.5123 9.8584 35.5078 9.92676C35.5032 9.99512 35.501 10.0612 35.501 10.125C35.501 10.2572 35.5123 10.3529 35.5351 10.4121C35.5625 10.4668 35.5944 10.5078 35.6308 10.5352C35.6719 10.5625 35.7151 10.5898 35.7607 10.6172C35.8063 10.6445 35.8519 10.6969 35.8974 10.7744C35.8838 10.8154 35.8587 10.8496 35.8222 10.877C35.7903 10.8997 35.7584 10.9248 35.7265 10.9521C35.6992 10.9749 35.6741 11.0023 35.6513 11.0342C35.6286 11.0661 35.6194 11.1117 35.624 11.1709H35.5898C35.5306 11.1709 35.4736 11.18 35.4189 11.1982C35.3642 11.2165 35.3073 11.2256 35.248 11.2256C35.2344 11.2256 35.2207 11.2233 35.207 11.2188C35.1933 11.2188 35.1797 11.2188 35.166 11.2188L35.0976 11.1777C35.0748 11.1641 35.0521 11.1572 35.0293 11.1572C35.0065 11.1572 34.9769 11.1618 34.9404 11.1709C34.8766 10.9658 34.8265 10.7539 34.79 10.5352C34.7581 10.3164 34.7422 10.1022 34.7422 9.89258C34.7422 9.86979 34.7467 9.84701 34.7558 9.82422C34.7695 9.79688 34.7877 9.78776 34.8105 9.79688V9.66699C34.8105 9.52572 34.8219 9.389 34.8447 9.25684C34.872 9.12012 34.8857 8.97884 34.8857 8.83301C34.8857 8.79199 34.8834 8.75098 34.8789 8.70996C34.8789 8.66895 34.8766 8.63021 34.872 8.59375C34.8948 8.51628 34.9176 8.4388 34.9404 8.36133C34.9678 8.2793 34.9814 8.19499 34.9814 8.1084C34.9814 8.07194 34.9746 8.02865 34.9609 7.97852C34.9974 7.95117 35.0247 7.91699 35.0429 7.87598C35.0612 7.8304 35.0748 7.78255 35.084 7.73242C35.0931 7.67773 35.0999 7.62533 35.1045 7.5752C35.109 7.52507 35.1136 7.47949 35.1181 7.43848C35.1637 7.34733 35.1888 7.24935 35.1933 7.14453C35.1979 7.03971 35.2207 6.94173 35.2617 6.85059C35.2571 6.83236 35.2549 6.80046 35.2549 6.75488C35.2549 6.66374 35.2685 6.57259 35.2959 6.48145C35.3278 6.38574 35.3893 6.31283 35.4804 6.2627C35.5625 6.2946 35.6582 6.31055 35.7676 6.31055C35.8724 6.31055 35.9726 6.2946 36.0683 6.2627C36.0957 6.27181 36.1207 6.2832 36.1435 6.29688C36.1663 6.30599 36.1891 6.31738 36.2119 6.33105C36.2392 6.34017 36.2666 6.34928 36.2939 6.3584C36.3213 6.36296 36.3532 6.36296 36.3896 6.3584C36.4352 6.49056 36.4739 6.625 36.5058 6.76172C36.5423 6.89844 36.5696 7.03743 36.5879 7.17871C36.597 7.23796 36.5993 7.30176 36.5947 7.37012C36.5947 7.43848 36.5993 7.50228 36.6084 7.56152C36.6129 7.59798 36.6243 7.63216 36.6426 7.66406C36.6608 7.69141 36.679 7.72331 36.6972 7.75977C36.7155 7.79622 36.7291 7.83724 36.7383 7.88281C36.7519 7.92839 36.7565 7.98535 36.7519 8.05371C36.8021 8.1722 36.8567 8.28613 36.916 8.39551C36.9798 8.50033 37.0482 8.60514 37.1211 8.70996C37.1621 8.72363 37.1985 8.74186 37.2304 8.76465C37.2623 8.78288 37.2829 8.81478 37.292 8.86035C37.333 8.86035 37.3694 8.86719 37.4013 8.88086L37.5176 8.91504C37.6907 8.86035 37.8502 8.78743 37.9961 8.69629C38.1465 8.60514 38.3037 8.52767 38.4678 8.46387C38.6683 8.2679 38.8414 8.05143 38.9873 7.81445C39.1331 7.57292 39.2789 7.33366 39.4248 7.09668V6.94629C39.4521 6.93262 39.4749 6.91667 39.4931 6.89844C39.5159 6.87565 39.5433 6.8597 39.5752 6.85059C39.5797 6.7959 39.5911 6.74349 39.6094 6.69336C39.6321 6.63867 39.6549 6.58854 39.6777 6.54297C39.7051 6.49284 39.7278 6.44499 39.7461 6.39941C39.7643 6.34928 39.7734 6.29688 39.7734 6.24219C39.7734 6.21029 39.7711 6.18294 39.7666 6.16016C39.8349 6.0918 39.917 6.05762 40.0127 6.05762C40.1038 6.05762 40.195 6.0804 40.2861 6.12598C40.3818 6.16699 40.4707 6.20573 40.5527 6.24219C40.6028 6.35156 40.6393 6.46777 40.6621 6.59082C40.6894 6.70931 40.7077 6.83236 40.7168 6.95996C40.7259 7.08757 40.7304 7.21517 40.7304 7.34277V7.82812C40.7259 7.86458 40.7122 7.89193 40.6894 7.91016C40.6712 7.92383 40.6575 7.94661 40.6484 7.97852V8.04688C40.6484 8.06966 40.6461 8.09245 40.6416 8.11523C40.6416 8.21094 40.6302 8.3112 40.6074 8.41602C40.5846 8.54818 40.555 8.68262 40.5185 8.81934C40.4866 8.9515 40.4707 9.08594 40.4707 9.22266C40.4707 9.27279 40.473 9.32292 40.4775 9.37305C40.4821 9.42318 40.4912 9.47331 40.5049 9.52344C40.4821 9.56445 40.4707 9.61686 40.4707 9.68066C40.4707 9.75358 40.4821 9.82194 40.5049 9.88574C40.5322 9.94499 40.5641 10.0042 40.6006 10.0635C40.6644 10.0635 40.7282 10.0612 40.792 10.0566C40.8558 10.0521 40.9219 10.0498 40.9902 10.0498C41.054 10.0498 41.1133 10.0566 41.1679 10.0703C41.2226 10.0794 41.2796 10.1022 41.3388 10.1387ZM45.8916 6.65234V6.67969C45.8597 6.6888 45.8437 6.71159 45.8437 6.74805C45.7936 6.77083 45.7412 6.78906 45.6865 6.80273C45.6318 6.81185 45.5794 6.8278 45.5293 6.85059C45.4791 6.84603 45.4267 6.84375 45.372 6.84375C45.3219 6.83919 45.2718 6.83691 45.2217 6.83691C45.0849 6.83691 44.9482 6.84147 44.8115 6.85059C44.6748 6.8597 44.5381 6.8597 44.4013 6.85059C44.3375 6.88704 44.2669 6.91667 44.1894 6.93945C44.1165 6.95768 44.0459 6.9668 43.9775 6.9668C43.9228 6.9668 43.875 6.95996 43.834 6.94629C43.7246 7.00098 43.6038 7.04655 43.4717 7.08301C43.3441 7.11947 43.2142 7.15592 43.082 7.19238C42.9498 7.22428 42.8222 7.26302 42.6992 7.30859C42.5807 7.34961 42.4759 7.40885 42.3847 7.48633C42.3756 7.55013 42.3688 7.61393 42.3642 7.67773C42.3597 7.73698 42.3574 7.79622 42.3574 7.85547C42.3574 7.91927 42.3597 7.97852 42.3642 8.0332C42.3733 8.08789 42.3893 8.14258 42.4121 8.19727C42.4349 8.20638 42.4599 8.21322 42.4873 8.21777C42.5192 8.22233 42.5465 8.22461 42.5693 8.22461C42.5921 8.22461 42.6149 8.22233 42.6377 8.21777C42.6605 8.20866 42.6764 8.19271 42.6855 8.16992C42.7539 8.16081 42.8222 8.15853 42.8906 8.16309C42.959 8.16309 43.0273 8.16309 43.0957 8.16309C43.164 8.16309 43.2301 8.16081 43.2939 8.15625C43.3623 8.15169 43.4284 8.1403 43.4922 8.12207C43.5651 8.10384 43.6357 8.09245 43.7041 8.08789C43.777 8.08333 43.8476 8.07878 43.916 8.07422C43.9844 8.06966 44.055 8.06283 44.1279 8.05371C44.2008 8.04004 44.276 8.01497 44.3535 7.97852C44.4127 8.0013 44.472 8.0127 44.5312 8.0127C44.595 8.0127 44.6566 8.01725 44.7158 8.02637C44.7477 8.04915 44.7728 8.07422 44.791 8.10156C44.8138 8.12891 44.8252 8.16081 44.8252 8.19727C44.8252 8.26107 44.8024 8.32487 44.7568 8.38867C44.7112 8.45247 44.6748 8.51172 44.6474 8.56641H44.5722C44.4629 8.56641 44.3558 8.58236 44.251 8.61426C44.1507 8.6416 44.0482 8.67578 43.9433 8.7168C43.8431 8.75326 43.7405 8.78743 43.6357 8.81934C43.5355 8.84668 43.4306 8.86035 43.3213 8.86035C43.303 8.86035 43.2916 8.87174 43.2871 8.89453C43.2871 8.91276 43.2825 8.92643 43.2734 8.93555C43.2506 8.93099 43.2164 8.92871 43.1709 8.92871C43.0661 8.92871 42.9658 8.9401 42.8701 8.96289C42.7744 8.98568 42.6764 8.99707 42.5761 8.99707C42.5488 8.99707 42.5215 8.99707 42.4941 8.99707C42.4668 8.99251 42.4394 8.98796 42.4121 8.9834C42.3893 9.01986 42.3597 9.04492 42.3232 9.05859C42.2868 9.06771 42.2526 9.08594 42.2207 9.11328C42.207 9.1543 42.1979 9.20443 42.1933 9.26367C42.1933 9.32292 42.1911 9.38444 42.1865 9.44824C42.1865 9.50749 42.1819 9.56445 42.1728 9.61914C42.1637 9.67383 42.1455 9.71712 42.1181 9.74902C42.1227 9.77181 42.1409 9.78092 42.1728 9.77637C42.2047 9.76725 42.2207 9.78092 42.2207 9.81738C42.2207 9.8584 42.2161 9.90169 42.207 9.94727C42.1979 9.99284 42.1933 10.0384 42.1933 10.084C42.1933 10.1706 42.2025 10.2663 42.2207 10.3711C42.2435 10.4714 42.2754 10.5648 42.3164 10.6514C42.362 10.738 42.4212 10.8109 42.4941 10.8701C42.567 10.9248 42.6582 10.9521 42.7676 10.9521C42.8405 10.9521 42.9088 10.9385 42.9726 10.9111C43.0364 10.8838 43.0888 10.8382 43.1299 10.7744L43.164 10.7676C43.1823 10.7676 43.1982 10.7699 43.2119 10.7744C43.2301 10.779 43.2483 10.7812 43.2666 10.7812C43.2939 10.7812 43.3281 10.7653 43.3691 10.7334C43.4147 10.6969 43.4625 10.6559 43.5127 10.6104C43.5674 10.5648 43.622 10.5215 43.6767 10.4805C43.7314 10.4349 43.7838 10.403 43.834 10.3848C43.8659 10.321 43.8955 10.2572 43.9228 10.1934C43.9547 10.1296 44.0003 10.0794 44.0595 10.043V9.84473C44.1051 9.7946 44.153 9.74902 44.2031 9.70801C44.2578 9.66699 44.2988 9.61458 44.3261 9.55078C44.3489 9.5599 44.3694 9.56673 44.3877 9.57129C44.4105 9.57585 44.4332 9.57812 44.456 9.57812C44.4788 9.57812 44.5016 9.57585 44.5244 9.57129C44.5517 9.56673 44.5768 9.5599 44.5996 9.55078C44.636 9.60091 44.6634 9.65788 44.6816 9.72168C44.7044 9.78092 44.7317 9.83789 44.7636 9.89258C44.7226 9.97461 44.6748 10.0726 44.6201 10.1865C44.5654 10.3005 44.5062 10.4144 44.4424 10.5283C44.3786 10.6423 44.3102 10.7516 44.2373 10.8564C44.1689 10.9567 44.1006 11.0342 44.0322 11.0889C44.0185 11.1025 43.9889 11.1185 43.9433 11.1367C43.8932 11.1732 43.8476 11.2074 43.8066 11.2393C43.7656 11.2757 43.7269 11.3167 43.6904 11.3623C43.5582 11.4033 43.4306 11.458 43.3076 11.5264C43.1891 11.5947 43.0706 11.6608 42.9521 11.7246C42.8974 11.7109 42.8382 11.7041 42.7744 11.7041C42.7197 11.7041 42.665 11.7064 42.6103 11.7109C42.5556 11.7201 42.4964 11.7246 42.4326 11.7246C42.4144 11.7018 42.387 11.6859 42.3506 11.6768C42.3187 11.6722 42.3073 11.6494 42.3164 11.6084C42.1614 11.5993 42.0361 11.556 41.9404 11.4785C41.8447 11.4056 41.7627 11.3145 41.6943 11.2051C41.6305 11.0957 41.5781 10.9772 41.5371 10.8496C41.4961 10.722 41.4528 10.599 41.4072 10.4805V10.46C41.4072 10.4372 41.4163 10.4235 41.4345 10.4189C41.4528 10.4144 41.4619 10.4007 41.4619 10.3779C41.4619 10.3688 41.4596 10.362 41.4551 10.3574C41.4414 10.3073 41.43 10.264 41.4209 10.2275C41.4118 10.1911 41.4072 10.1478 41.4072 10.0977C41.4072 10.0247 41.4118 9.9541 41.4209 9.88574C41.43 9.81283 41.4345 9.73991 41.4345 9.66699C41.4345 9.59408 41.4254 9.53027 41.4072 9.47559C41.4254 9.4528 41.4414 9.42318 41.4551 9.38672C41.4642 9.3457 41.471 9.30469 41.4756 9.26367C41.4801 9.22266 41.4824 9.18164 41.4824 9.14062C41.487 9.09961 41.4938 9.06315 41.5029 9.03125C41.4847 8.98112 41.4687 8.93783 41.4551 8.90137C41.4414 8.86035 41.4345 8.8125 41.4345 8.75781V8.70996C41.4801 8.63249 41.5189 8.55273 41.5508 8.4707C41.5827 8.38867 41.6168 8.30436 41.6533 8.21777V8.19727C41.6533 8.0651 41.6487 7.93294 41.6396 7.80078C41.6305 7.66862 41.626 7.53646 41.626 7.4043V7.27441C41.626 7.22884 41.6282 7.18555 41.6328 7.14453C41.6692 7.1263 41.6966 7.10124 41.7148 7.06934C41.7331 7.03743 41.7604 7.01237 41.7969 6.99414H42.0224L42.0635 6.92578C42.0771 6.90299 42.0862 6.87793 42.0908 6.85059C42.1409 6.83691 42.1888 6.81868 42.2344 6.7959C42.2845 6.76855 42.3301 6.74121 42.3711 6.71387C42.4349 6.67741 42.4918 6.64551 42.542 6.61816C42.5967 6.58626 42.6491 6.5612 42.6992 6.54297C42.7539 6.52018 42.8108 6.50195 42.8701 6.48828C42.9293 6.47461 42.9977 6.46322 43.0752 6.4541C43.1116 6.4541 43.1344 6.44727 43.1435 6.43359C43.1572 6.41992 43.1754 6.40397 43.1982 6.38574C43.2529 6.39486 43.3076 6.40397 43.3623 6.41309C43.417 6.41764 43.4717 6.41992 43.5263 6.41992C43.6357 6.41992 43.7383 6.39941 43.834 6.3584C43.9707 6.3584 44.1051 6.35612 44.2373 6.35156C44.374 6.34701 44.5107 6.34473 44.6474 6.34473C44.7659 6.34473 44.8844 6.34928 45.0029 6.3584C45.1214 6.36751 45.2376 6.38346 45.3515 6.40625C45.3926 6.39258 45.4381 6.38574 45.4883 6.38574C45.5429 6.38574 45.5976 6.39258 45.6523 6.40625C45.7116 6.41536 45.7685 6.41536 45.8232 6.40625C45.8278 6.45638 45.8392 6.49967 45.8574 6.53613C45.8802 6.56803 45.8916 6.60677 45.8916 6.65234ZM50.9023 7.19922C50.9023 7.26302 50.9 7.32682 50.8955 7.39062C50.8909 7.45443 50.8841 7.51823 50.875 7.58203C50.8431 7.6276 50.8112 7.66862 50.7793 7.70508C50.7519 7.73698 50.7337 7.77799 50.7246 7.82812C50.6745 7.86458 50.6175 7.91471 50.5537 7.97852C50.4944 8.04232 50.4694 8.10612 50.4785 8.16992H50.3828C50.3281 8.25195 50.2643 8.32259 50.1914 8.38184C50.1185 8.44108 50.041 8.49805 49.959 8.55273L49.7197 8.70996C49.6422 8.76009 49.5693 8.81934 49.501 8.8877C49.4645 8.89225 49.4349 8.89909 49.4121 8.9082C49.3893 8.91732 49.3597 8.9196 49.3232 8.91504C49.1819 9.00618 49.0338 9.08594 48.8789 9.1543C48.7285 9.22266 48.5758 9.29102 48.4209 9.35938C48.2705 9.42318 48.1201 9.49154 47.9697 9.56445C47.8193 9.63737 47.6758 9.72168 47.539 9.81738C47.5254 9.81283 47.5071 9.81055 47.4844 9.81055C47.4433 9.81055 47.4023 9.81738 47.3613 9.83105C47.3203 9.84017 47.2793 9.84473 47.2383 9.84473C47.22 9.84473 47.195 9.84245 47.1631 9.83789C47.1357 9.83333 47.1152 9.8265 47.1015 9.81738C47.0788 9.80371 47.0582 9.7832 47.04 9.75586C47.0218 9.72852 47.0081 9.69889 46.999 9.66699C46.9899 9.63053 46.9831 9.59635 46.9785 9.56445C46.9739 9.53255 46.9717 9.50521 46.9717 9.48242C46.9717 9.45508 46.9739 9.42546 46.9785 9.39355C46.9831 9.36165 46.9899 9.33203 46.999 9.30469C47.1312 9.29557 47.2633 9.26139 47.3955 9.20215C47.5322 9.1429 47.6621 9.08594 47.7851 9.03125C47.817 9.01758 47.8421 9.00163 47.8603 8.9834C47.8831 8.96061 47.9059 8.94238 47.9287 8.92871C47.9515 8.91048 47.9765 8.89453 48.0039 8.88086C48.0312 8.86719 48.0654 8.86035 48.1064 8.86035H48.1269C48.414 8.72819 48.6943 8.58464 48.9678 8.42969C49.2457 8.27474 49.5215 8.11751 49.7949 7.95801C49.8086 7.91699 49.8291 7.87598 49.8564 7.83496C49.8883 7.79395 49.9179 7.75521 49.9453 7.71875C49.9726 7.67773 49.9977 7.63672 50.0205 7.5957C50.0433 7.55469 50.0547 7.51367 50.0547 7.47266C50.0547 7.39062 50.0159 7.32227 49.9385 7.26758H49.9111C49.8564 7.26758 49.8086 7.26074 49.7676 7.24707C49.7265 7.22884 49.6878 7.21289 49.6513 7.19922C49.6149 7.18099 49.5739 7.16732 49.5283 7.1582C49.4827 7.14453 49.4303 7.13997 49.3711 7.14453C49.3483 7.1263 49.3118 7.11035 49.2617 7.09668C49.2116 7.08301 49.1706 7.07617 49.1386 7.07617C48.9746 7.07617 48.8128 7.08757 48.6533 7.11035C48.4938 7.12858 48.3343 7.13997 48.1748 7.14453C48.1338 7.16732 48.095 7.18783 48.0586 7.20605C48.0221 7.22428 47.9788 7.2334 47.9287 7.2334C47.9059 7.2334 47.8854 7.2334 47.8672 7.2334C47.8489 7.22884 47.8284 7.22428 47.8056 7.21973C47.7191 7.25618 47.6211 7.28809 47.5117 7.31543C47.4023 7.33822 47.2929 7.36784 47.1836 7.4043C47.0788 7.4362 46.9808 7.47721 46.8896 7.52734C46.7985 7.57747 46.7278 7.64583 46.6777 7.73242C46.6777 7.75521 46.6823 7.77572 46.6914 7.79395C46.7005 7.80762 46.7051 7.82585 46.7051 7.84863V7.87598C46.6777 7.90332 46.6595 7.93522 46.6504 7.97168C46.6413 8.00358 46.6344 8.03776 46.6299 8.07422C46.6253 8.10612 46.6185 8.1403 46.6094 8.17676C46.6048 8.20866 46.5888 8.24056 46.5615 8.27246C46.5797 8.34082 46.5888 8.41602 46.5888 8.49805C46.5888 8.58919 46.582 8.68034 46.5683 8.77148C46.5592 8.86263 46.5547 8.95378 46.5547 9.04492C46.5547 9.13151 46.5638 9.20898 46.582 9.27734C46.5547 9.30469 46.5433 9.3457 46.5478 9.40039C46.5524 9.45508 46.541 9.49609 46.5136 9.52344C46.5136 9.5599 46.5228 9.58496 46.541 9.59863C46.5638 9.6123 46.5775 9.63509 46.582 9.66699C46.5638 9.74447 46.5547 9.82878 46.5547 9.91992C46.5547 10.0521 46.5683 10.1865 46.5957 10.3232C46.6276 10.46 46.664 10.5944 46.7051 10.7266C46.778 10.7038 46.8554 10.6855 46.9375 10.6719C47.0241 10.6536 47.1061 10.6445 47.1836 10.6445C47.1972 10.6445 47.2109 10.6468 47.2246 10.6514C47.2383 10.6514 47.2519 10.6514 47.2656 10.6514C47.2747 10.7015 47.2929 10.7471 47.3203 10.7881C47.3476 10.8291 47.3727 10.8747 47.3955 10.9248C47.3727 10.9567 47.3522 10.9818 47.334 11C47.3203 11.0228 47.3135 11.0524 47.3135 11.0889C47.2497 11.0934 47.1972 11.1094 47.1562 11.1367C47.1152 11.1686 47.0696 11.2028 47.0195 11.2393H46.9922C46.9147 11.2393 46.8509 11.2529 46.8008 11.2803C46.7506 11.3122 46.6937 11.3464 46.6299 11.3828C46.5752 11.36 46.5205 11.3486 46.4658 11.3486C46.4066 11.3486 46.3473 11.36 46.2881 11.3828C46.2151 11.3509 46.1559 11.3008 46.1103 11.2324C46.0648 11.1686 46.026 11.0957 45.9941 11.0137C45.9622 10.9362 45.9326 10.8564 45.9053 10.7744C45.8825 10.6924 45.8551 10.6172 45.8232 10.5488V10.4395C45.8232 10.3346 45.8141 10.2344 45.7959 10.1387C45.7822 10.0384 45.7754 9.93587 45.7754 9.83105C45.7754 9.79004 45.7776 9.74674 45.7822 9.70117C45.7913 9.6556 45.805 9.6123 45.8232 9.57129C45.8141 9.53027 45.8095 9.49154 45.8095 9.45508V9.3252C45.8095 9.18848 45.8141 9.05176 45.8232 8.91504C45.8369 8.77832 45.8437 8.6416 45.8437 8.50488C45.8437 8.40462 45.8369 8.30208 45.8232 8.19727C45.8004 8.20638 45.7799 8.21549 45.7617 8.22461C45.7435 8.23372 45.723 8.23828 45.7002 8.23828C45.6774 8.23828 45.6546 8.236 45.6318 8.23145C45.6136 8.22689 45.5954 8.22233 45.5771 8.21777C45.5316 8.17676 45.4997 8.12663 45.4814 8.06738C45.4632 8.00814 45.4381 7.95345 45.4062 7.90332C45.4062 7.81673 45.4199 7.74609 45.4472 7.69141C45.47 7.63216 45.4997 7.57975 45.5361 7.53418C45.5726 7.48405 45.609 7.4362 45.6455 7.39062C45.6865 7.34505 45.7207 7.28809 45.748 7.21973H45.7754C45.8483 7.21973 45.9212 7.19694 45.9941 7.15137C46.067 7.10124 46.1491 7.07617 46.2402 7.07617C46.2721 7.03516 46.3154 7.00098 46.3701 6.97363C46.4248 6.94173 46.4817 6.91667 46.541 6.89844C46.6048 6.88021 46.6663 6.86882 46.7256 6.86426C46.7894 6.85514 46.8486 6.85059 46.9033 6.85059C46.9215 6.81868 46.9489 6.79818 46.9853 6.78906C47.0218 6.77539 47.0582 6.764 47.0947 6.75488C47.1357 6.74121 47.1722 6.72982 47.2041 6.7207C47.2405 6.70703 47.2702 6.68424 47.2929 6.65234C47.3294 6.66146 47.3636 6.66602 47.3955 6.66602C47.4547 6.66602 47.5117 6.65918 47.5664 6.64551C47.6211 6.62728 47.6758 6.60905 47.7304 6.59082C47.7851 6.56803 47.8398 6.54753 47.8945 6.5293C47.9538 6.51107 48.0153 6.50195 48.0791 6.50195C48.1019 6.50195 48.1247 6.50423 48.1474 6.50879C48.1702 6.50879 48.193 6.50879 48.2158 6.50879C48.2523 6.50879 48.2728 6.49512 48.2773 6.46777C48.2864 6.44043 48.3024 6.41992 48.3252 6.40625C48.3388 6.41081 48.3639 6.41309 48.4004 6.41309C48.4915 6.41309 48.5804 6.40625 48.667 6.39258C48.7536 6.37435 48.8424 6.36523 48.9336 6.36523C48.9746 6.36523 49.0156 6.36751 49.0566 6.37207C49.0976 6.37663 49.1386 6.38802 49.1797 6.40625C49.1888 6.39258 49.1979 6.38118 49.207 6.37207C49.2161 6.36296 49.223 6.35156 49.2275 6.33789C49.4508 6.35156 49.6605 6.39714 49.8564 6.47461C50.0569 6.55208 50.2643 6.62044 50.4785 6.67969C50.5058 6.7207 50.5377 6.75716 50.5742 6.78906L50.6904 6.88477C50.7314 6.91667 50.7702 6.94857 50.8066 6.98047C50.8431 7.01237 50.875 7.05111 50.9023 7.09668V7.19922ZM55.5849 10.501C55.5713 10.5648 55.5416 10.6172 55.4961 10.6582C55.4551 10.6947 55.4049 10.7243 55.3457 10.7471C55.2864 10.7699 55.2249 10.7858 55.1611 10.7949C55.1019 10.7995 55.0472 10.8018 54.997 10.8018C54.9743 10.8018 54.9515 10.8018 54.9287 10.8018C54.9105 10.7972 54.89 10.7949 54.8672 10.7949C54.8444 10.7949 54.833 10.8063 54.833 10.8291C54.833 10.8519 54.8216 10.8678 54.7988 10.877C54.776 10.8678 54.7532 10.861 54.7304 10.8564C54.7077 10.8519 54.6849 10.8496 54.6621 10.8496C54.6302 10.8496 54.5983 10.8519 54.5664 10.8564C54.539 10.861 54.5117 10.8633 54.4844 10.8633C54.4479 10.8633 54.4206 10.8587 54.4023 10.8496C54.3886 10.8405 54.375 10.8314 54.3613 10.8223C54.3522 10.8086 54.3408 10.7949 54.3271 10.7812C54.318 10.7676 54.3021 10.7562 54.2793 10.7471C54.2474 10.7334 54.22 10.7311 54.1972 10.7402C54.179 10.7493 54.1494 10.7357 54.1084 10.6992C54.0537 10.6536 54.0058 10.599 53.9648 10.5352C53.9284 10.4668 53.8919 10.3962 53.8554 10.3232C53.819 10.2503 53.7803 10.1774 53.7392 10.1045C53.6982 10.0316 53.6504 9.96777 53.5957 9.91309H53.541C53.459 9.91309 53.402 9.94727 53.3701 10.0156C53.3473 10.002 53.3245 9.986 53.3017 9.96777C53.2789 9.94499 53.2539 9.92676 53.2265 9.91309C53.1217 9.94499 53.0123 9.97233 52.8984 9.99512C52.7845 10.0179 52.6706 10.0293 52.5566 10.0293H52.4609C52.4336 10.0293 52.4039 10.0247 52.372 10.0156C52.3265 10.0339 52.2855 10.0566 52.249 10.084C52.2125 10.1068 52.1715 10.1182 52.126 10.1182C52.0986 10.1182 52.0667 10.109 52.0303 10.0908C52.0029 10.0908 51.9892 10.1022 51.9892 10.125C51.9938 10.1478 51.9801 10.1592 51.9482 10.1592H51.8867C51.8229 10.1592 51.7591 10.1615 51.6953 10.166C51.636 10.1706 51.5745 10.1729 51.5107 10.1729C51.4241 10.1729 51.3353 10.1615 51.2441 10.1387C51.2213 10.1523 51.1963 10.1592 51.1689 10.1592C51.1507 10.1683 51.137 10.1842 51.1279 10.207C51.1188 10.2253 51.1097 10.2435 51.1006 10.2617C51.0914 10.2754 51.0778 10.2891 51.0595 10.3027C51.0459 10.3118 51.0254 10.3141 50.998 10.3096C50.9889 10.3643 50.9661 10.4076 50.9297 10.4395C50.8932 10.4714 50.875 10.5192 50.875 10.583C50.8248 10.6104 50.7838 10.6445 50.7519 10.6855C50.72 10.7266 50.6881 10.7699 50.6562 10.8154C50.6243 10.861 50.5901 10.9043 50.5537 10.9453C50.5218 10.9863 50.4808 11.0182 50.4306 11.041C50.4079 11.0684 50.401 11.1117 50.4101 11.1709C50.36 11.2119 50.2985 11.2484 50.2256 11.2803C50.1526 11.3122 50.0843 11.3281 50.0205 11.3281C49.8883 11.3281 49.7972 11.2575 49.747 11.1162C49.747 11.0706 49.7516 11.0228 49.7607 10.9727C49.7653 10.918 49.7744 10.8678 49.7881 10.8223C49.8017 10.7721 49.8222 10.7288 49.8496 10.6924C49.8769 10.6514 49.9157 10.6217 49.9658 10.6035C49.9658 10.5625 49.9521 10.5352 49.9248 10.5215C49.8974 10.5033 49.886 10.4736 49.8906 10.4326C50.0136 10.3734 50.1207 10.2959 50.2119 10.2002C50.303 10.1045 50.3851 10.0042 50.458 9.89941C50.5355 9.79004 50.6129 9.68066 50.6904 9.57129C50.7679 9.46191 50.8545 9.36393 50.9502 9.27734V9.13379C51.0869 8.98796 51.1758 8.82389 51.2168 8.6416C51.2669 8.63249 51.2988 8.6097 51.3125 8.57324C51.3307 8.53678 51.3398 8.49349 51.3398 8.44336C51.3626 8.44336 51.3763 8.43424 51.3808 8.41602C51.39 8.39323 51.4105 8.38639 51.4424 8.39551C51.4834 8.28613 51.5289 8.18587 51.5791 8.09473C51.6292 8.00358 51.6793 7.91243 51.7295 7.82129C51.7796 7.72559 51.8229 7.6276 51.8594 7.52734C51.9004 7.42708 51.93 7.31543 51.9482 7.19238C52.012 7.18783 52.0462 7.1582 52.0508 7.10352C52.0599 7.04427 52.069 6.99186 52.0781 6.94629C52.1465 6.88249 52.1966 6.80729 52.2285 6.7207C52.265 6.63411 52.2969 6.54525 52.3242 6.4541C52.3515 6.3584 52.3812 6.26497 52.4131 6.17383C52.4495 6.07812 52.4997 5.99382 52.5635 5.9209V5.90039C52.5635 5.8776 52.5543 5.86393 52.5361 5.85938C52.5179 5.85026 52.5088 5.83431 52.5088 5.81152C52.5133 5.80697 52.5156 5.80241 52.5156 5.79785C52.5703 5.77507 52.6113 5.73861 52.6386 5.68848C52.666 5.63379 52.707 5.59505 52.7617 5.57227C52.8574 5.64974 52.9417 5.69759 53.0146 5.71582C53.0875 5.72949 53.1832 5.74089 53.3017 5.75C53.361 5.8138 53.3929 5.89128 53.3974 5.98242C53.4066 6.06901 53.4225 6.1556 53.4453 6.24219C53.4817 6.38802 53.5205 6.53158 53.5615 6.67285C53.6071 6.80957 53.6413 6.95085 53.664 7.09668C53.6777 7.18327 53.7028 7.2653 53.7392 7.34277C53.7757 7.42025 53.8008 7.5 53.8144 7.58203C53.8235 7.64583 53.8235 7.71875 53.8144 7.80078C53.8053 7.87826 53.8144 7.94661 53.8418 8.00586L53.8896 8.11523C53.9124 8.16536 53.9306 8.21777 53.9443 8.27246C53.9625 8.32715 53.9785 8.38184 53.9922 8.43652C54.0286 8.57324 54.0605 8.72135 54.0879 8.88086C54.1198 9.03581 54.1676 9.17708 54.2314 9.30469C54.2542 9.35026 54.2884 9.38216 54.334 9.40039C54.3841 9.41862 54.4388 9.43229 54.498 9.44141C54.5573 9.44596 54.6142 9.44824 54.6689 9.44824C54.7282 9.44368 54.7783 9.44141 54.8193 9.44141H54.8877C54.915 9.44141 54.9424 9.44596 54.9697 9.45508C54.9879 9.49154 54.997 9.52344 54.997 9.55078C54.997 9.60547 54.9788 9.64876 54.9424 9.68066C54.9059 9.71257 54.8877 9.74902 54.8877 9.79004C54.8877 9.81283 54.8968 9.83789 54.915 9.86523C54.8968 9.86068 54.8694 9.8584 54.833 9.8584C54.7282 9.8584 54.6256 9.87663 54.5254 9.91309C54.5618 9.99056 54.6097 10.0566 54.6689 10.1113C54.7327 10.1615 54.7988 10.2093 54.8672 10.2549C54.9127 10.2184 54.9606 10.2002 55.0107 10.2002C55.0654 10.2002 55.1155 10.2139 55.1611 10.2412C55.2112 10.264 55.2636 10.2754 55.3183 10.2754C55.3594 10.2754 55.389 10.2686 55.4072 10.2549C55.4437 10.2959 55.4733 10.3392 55.4961 10.3848C55.5189 10.4258 55.5485 10.4645 55.5849 10.501ZM53.4453 9.40723C53.4362 9.32975 53.4202 9.27507 53.3974 9.24316C53.3792 9.20671 53.3633 9.16341 53.3496 9.11328C53.3314 9.04948 53.3177 8.98112 53.3086 8.9082C53.304 8.83529 53.2949 8.76465 53.2812 8.69629C53.2493 8.54134 53.2129 8.38639 53.1719 8.23145C53.1354 8.0765 53.0875 7.92611 53.0283 7.78027C53.0465 7.75293 53.0556 7.72786 53.0556 7.70508V7.68457C53.0146 7.639 52.985 7.58431 52.9668 7.52051C52.9485 7.45215 52.9303 7.38607 52.9121 7.32227C52.8984 7.25391 52.8779 7.19238 52.8506 7.1377C52.8278 7.07845 52.789 7.0306 52.7344 6.99414C52.7207 7.02148 52.7138 7.05339 52.7138 7.08984C52.7138 7.12174 52.7161 7.15137 52.7207 7.17871C52.7298 7.20605 52.7344 7.23568 52.7344 7.26758C52.6888 7.29036 52.6546 7.32682 52.6318 7.37695C52.6136 7.42253 52.5817 7.45898 52.5361 7.48633C52.4997 7.63216 52.4472 7.77116 52.3789 7.90332C52.3105 8.03092 52.2376 8.15853 52.1601 8.28613C52.0872 8.41374 52.0166 8.54362 51.9482 8.67578C51.8799 8.80339 51.8252 8.93783 51.7842 9.0791C51.7249 9.12012 51.6839 9.17253 51.6611 9.23633C51.6429 9.30013 51.6338 9.36393 51.6338 9.42773C51.6748 9.45052 51.7204 9.46419 51.7705 9.46875C51.8252 9.46875 51.8776 9.46875 51.9277 9.46875C51.9778 9.46875 52.0257 9.47331 52.0713 9.48242C52.1168 9.49154 52.1579 9.51432 52.1943 9.55078C52.2536 9.53255 52.3174 9.52116 52.3857 9.5166C52.4586 9.50749 52.5179 9.48698 52.5635 9.45508C52.6546 9.48698 52.7526 9.50293 52.8574 9.50293C52.9121 9.50293 52.9645 9.49837 53.0146 9.48926C53.0693 9.48014 53.1217 9.46875 53.1719 9.45508C53.2129 9.46419 53.2448 9.48014 53.2676 9.50293C53.2903 9.52116 53.3245 9.52799 53.3701 9.52344C53.3929 9.50521 53.4066 9.48698 53.4111 9.46875C53.4157 9.44596 53.4271 9.42546 53.4453 9.40723ZM62.6533 7.21973C62.6396 7.26074 62.6123 7.29036 62.5713 7.30859C62.5348 7.32227 62.4961 7.33366 62.4551 7.34277C62.414 7.35189 62.3753 7.36784 62.3388 7.39062C62.3069 7.40885 62.2864 7.44076 62.2773 7.48633L62.2636 7.49316C62.2454 7.49316 62.2317 7.48861 62.2226 7.47949C62.2181 7.46582 62.2135 7.45443 62.209 7.44531C62.2044 7.43164 62.1976 7.42025 62.1885 7.41113C62.1839 7.39746 62.1748 7.39062 62.1611 7.39062C62.111 7.39062 62.0608 7.39518 62.0107 7.4043C61.9651 7.41341 61.9196 7.41797 61.874 7.41797C61.8056 7.41797 61.7441 7.40885 61.6894 7.39062C61.6575 7.39974 61.6393 7.42025 61.6347 7.45215C61.6347 7.48405 61.6211 7.50456 61.5937 7.51367C61.5709 7.52279 61.5436 7.52734 61.5117 7.52734C61.4798 7.52279 61.4479 7.52507 61.416 7.53418L61.1972 7.58887C61.1243 7.6071 61.0514 7.61621 60.9785 7.61621C60.9375 7.61621 60.9079 7.61393 60.8896 7.60938C60.8213 7.66406 60.7438 7.70508 60.6572 7.73242C60.5706 7.75521 60.4795 7.77799 60.3838 7.80078C60.2926 7.81901 60.2015 7.84408 60.1103 7.87598C60.0237 7.90788 59.9463 7.95801 59.8779 8.02637C59.8414 8.01725 59.8095 8.0127 59.7822 8.0127C59.723 8.0127 59.6706 8.02637 59.625 8.05371C59.5794 8.0765 59.5316 8.09928 59.4814 8.12207C59.4586 8.13118 59.4358 8.13574 59.4131 8.13574C59.3903 8.13574 59.3652 8.1403 59.3379 8.14941C59.3105 8.15853 59.2923 8.17448 59.2832 8.19727C59.2786 8.21549 59.265 8.23372 59.2422 8.25195C59.2422 8.41602 59.2581 8.58008 59.29 8.74414C59.3219 8.90365 59.3379 9.06543 59.3379 9.22949V9.25684C59.347 9.33431 59.372 9.40723 59.4131 9.47559C59.4541 9.53939 59.4746 9.60547 59.4746 9.67383C59.4746 9.69661 59.47 9.72168 59.4609 9.74902C59.5794 9.77637 59.6569 9.83789 59.6933 9.93359C59.7344 10.0247 59.7663 10.125 59.789 10.2344C59.8164 10.3392 59.8506 10.4372 59.8916 10.5283C59.9372 10.6195 60.0237 10.6764 60.1513 10.6992C60.1605 10.7448 60.1673 10.7926 60.1719 10.8428C60.1764 10.8883 60.1787 10.9339 60.1787 10.9795C60.1787 11.0433 60.1719 11.1048 60.1582 11.1641C60.1445 11.2279 60.1172 11.2848 60.0761 11.335C60.0078 11.3395 59.9577 11.3418 59.9258 11.3418C59.8939 11.3418 59.846 11.3555 59.7822 11.3828C59.6911 11.3281 59.609 11.2643 59.5361 11.1914C59.4678 11.123 59.4017 11.0501 59.3379 10.9727C59.2786 10.8906 59.2194 10.8086 59.1601 10.7266C59.1009 10.64 59.0371 10.5579 58.9687 10.4805C58.7317 10.5397 58.4879 10.5807 58.2373 10.6035C57.9912 10.6217 57.7451 10.6309 57.499 10.6309C57.4899 10.64 57.4762 10.6445 57.458 10.6445C57.4398 10.6445 57.4215 10.6468 57.4033 10.6514C57.3896 10.6514 57.376 10.6559 57.3623 10.665C57.3532 10.6696 57.3509 10.681 57.3554 10.6992C57.3235 10.681 57.2871 10.6696 57.2461 10.665C57.2096 10.6559 57.1754 10.6514 57.1435 10.6514C57.1207 10.6514 57.098 10.6536 57.0752 10.6582C57.0524 10.6582 57.0296 10.665 57.0068 10.6787C56.8336 10.6468 56.665 10.6035 56.501 10.5488C56.3414 10.4896 56.1774 10.4417 56.0088 10.4053C56.0088 10.3688 55.9997 10.3438 55.9814 10.3301C55.9632 10.3118 55.9472 10.2868 55.9336 10.2549C55.7422 10.1364 55.5804 9.99284 55.4482 9.82422C55.3206 9.6556 55.2682 9.45052 55.291 9.20898L55.2431 9.11328C55.2431 9.04036 55.2591 8.98796 55.291 8.95605C55.2728 8.92415 55.2409 8.89225 55.1953 8.86035C55.2363 8.79655 55.2728 8.73047 55.3047 8.66211C55.3366 8.59375 55.3594 8.52083 55.373 8.44336C55.3776 8.42057 55.3799 8.40007 55.3799 8.38184C55.3799 8.36361 55.3844 8.3431 55.3935 8.32031C55.4026 8.29297 55.4163 8.26335 55.4345 8.23145C55.4482 8.19499 55.4619 8.16309 55.4756 8.13574C55.5485 7.98079 55.6282 7.83268 55.7148 7.69141C55.806 7.54557 55.9199 7.42025 56.0566 7.31543C56.0657 7.23796 56.0885 7.17415 56.125 7.12402C56.1614 7.06934 56.2002 7.02148 56.2412 6.98047C56.2868 6.9349 56.3301 6.88932 56.3711 6.84375C56.4166 6.79818 56.4508 6.74349 56.4736 6.67969C56.5648 6.60221 56.6559 6.52702 56.747 6.4541C56.8428 6.38118 56.9225 6.2946 56.9863 6.19434C57.0683 6.16699 57.1458 6.13281 57.2187 6.0918C57.2916 6.04622 57.3532 5.98926 57.4033 5.9209C57.5127 5.91178 57.6198 5.89128 57.7246 5.85938C57.834 5.82747 57.9479 5.81152 58.0664 5.81152C58.1165 5.81152 58.1758 5.82292 58.2441 5.8457C58.317 5.86393 58.3717 5.89811 58.4082 5.94824C58.4127 5.95736 58.415 5.96875 58.415 5.98242L58.4219 6.0166C58.4264 6.02572 58.431 6.03483 58.4355 6.04395C58.4446 6.0485 58.4583 6.0485 58.4765 6.04395C58.4765 6.14421 58.4651 6.24674 58.4424 6.35156C58.4196 6.45182 58.3603 6.5293 58.2646 6.58398C58.2054 6.56576 58.1416 6.55664 58.0732 6.55664C57.9821 6.55664 57.8978 6.57487 57.8203 6.61133C57.7474 6.64323 57.6745 6.68197 57.6015 6.72754C57.5332 6.76855 57.4625 6.81185 57.3896 6.85742C57.3167 6.89844 57.2392 6.92806 57.1572 6.94629C57.1481 6.98275 57.139 7.01693 57.1299 7.04883C57.1253 7.07617 57.1276 7.10807 57.1367 7.14453C57.1139 7.14453 57.0957 7.14225 57.082 7.1377C57.0729 7.12858 57.0569 7.12402 57.0342 7.12402C57.0023 7.12402 56.9795 7.14225 56.9658 7.17871C56.9567 7.21517 56.9476 7.24479 56.9385 7.26758C56.8519 7.30404 56.7789 7.35645 56.7197 7.4248C56.665 7.48861 56.6126 7.55924 56.5625 7.63672C56.5169 7.70964 56.4668 7.78027 56.4121 7.84863C56.3574 7.91699 56.289 7.9694 56.207 8.00586C56.1706 8.15169 56.1341 8.29525 56.0976 8.43652C56.0657 8.5778 56.027 8.71908 55.9814 8.86035C55.9951 8.91504 56.0019 8.97201 56.0019 9.03125C56.0019 9.10417 55.9951 9.17025 55.9814 9.22949C56.0042 9.26595 56.027 9.30924 56.0498 9.35938L56.1318 9.5166C56.1592 9.57129 56.1865 9.62142 56.2138 9.66699C56.2457 9.71257 56.2754 9.74674 56.3027 9.76953C56.3528 9.80599 56.4303 9.84017 56.5351 9.87207C56.64 9.89941 56.7334 9.94727 56.8154 10.0156C56.8245 10.0156 56.8359 10.0156 56.8496 10.0156C56.8633 10.0111 56.8747 10.0088 56.8838 10.0088C56.9385 10.0088 56.9977 10.0225 57.0615 10.0498C57.1253 10.0771 57.1663 10.0908 57.1845 10.0908C57.4398 10.0908 57.7178 10.0749 58.0185 10.043C58.3193 10.0065 58.5973 9.96322 58.8525 9.91309C58.8616 9.86751 58.8662 9.82878 58.8662 9.79688C58.8662 9.73763 58.8571 9.68066 58.8388 9.62598C58.8206 9.56673 58.791 9.5166 58.75 9.47559C58.75 9.40723 58.75 9.33887 58.75 9.27051C58.7545 9.20215 58.7568 9.13379 58.7568 9.06543C58.7568 8.9515 58.7523 8.83073 58.7431 8.70312C58.734 8.57552 58.7112 8.45703 58.6748 8.34766H58.6611C58.6019 8.34766 58.5472 8.36361 58.497 8.39551C58.4515 8.42285 58.4036 8.43652 58.3535 8.43652C58.3261 8.43652 58.3034 8.42969 58.2851 8.41602C58.2304 8.47982 58.1644 8.52767 58.0869 8.55957C58.0094 8.59147 57.9274 8.62109 57.8408 8.64844C57.7542 8.67122 57.6676 8.69629 57.581 8.72363C57.499 8.75098 57.4238 8.78971 57.3554 8.83984C57.319 8.82617 57.2848 8.81934 57.2529 8.81934C57.221 8.81934 57.1891 8.82161 57.1572 8.82617C57.1299 8.83073 57.098 8.83529 57.0615 8.83984C56.9658 8.75781 56.9179 8.65527 56.9179 8.53223C56.9179 8.46842 56.9271 8.4069 56.9453 8.34766C56.9681 8.28385 56.9977 8.22461 57.0342 8.16992C57.0569 8.15625 57.0843 8.14941 57.1162 8.14941C57.1481 8.14486 57.18 8.1403 57.2119 8.13574C57.2438 8.12663 57.2689 8.11523 57.2871 8.10156C57.3099 8.08789 57.3235 8.06283 57.3281 8.02637C57.3418 8.04004 57.3532 8.04688 57.3623 8.04688C57.3714 8.04688 57.3805 8.0446 57.3896 8.04004C57.3987 8.03548 57.4079 8.0332 57.417 8.0332C57.4261 8.0332 57.4329 8.03776 57.4375 8.04688C57.4466 8.05599 57.4511 8.0651 57.4511 8.07422C57.6471 7.9694 57.8476 7.88053 58.0527 7.80762C58.2578 7.7347 58.4651 7.66862 58.6748 7.60938C58.889 7.55013 59.1032 7.49544 59.3174 7.44531C59.5316 7.39062 59.7435 7.33138 59.9531 7.26758C59.985 7.24023 60.0192 7.21973 60.0556 7.20605C60.0921 7.19238 60.124 7.17188 60.1513 7.14453C60.1832 7.16276 60.222 7.17188 60.2676 7.17188C60.3314 7.17188 60.3997 7.16048 60.4726 7.1377C60.5501 7.11035 60.6139 7.07845 60.664 7.04199C60.6823 7.04655 60.6982 7.04883 60.7119 7.04883H60.7597C60.8509 7.04883 60.9352 7.03516 61.0127 7.00781C61.0947 6.98047 61.1745 6.94401 61.2519 6.89844H61.2861C61.4274 6.89844 61.5664 6.88249 61.7031 6.85059C61.8444 6.81868 61.9879 6.80273 62.1338 6.80273C62.3206 6.80273 62.4847 6.85059 62.626 6.94629V7.02832C62.626 7.06478 62.626 7.09896 62.626 7.13086C62.6305 7.1582 62.6396 7.18783 62.6533 7.21973ZM65.0049 6.65234V6.67969C64.973 6.6888 64.957 6.71159 64.957 6.74805C64.9069 6.77083 64.8545 6.78906 64.7998 6.80273C64.7451 6.81185 64.6927 6.8278 64.6426 6.85059C64.5924 6.84603 64.54 6.84375 64.4853 6.84375C64.4352 6.83919 64.3851 6.83691 64.3349 6.83691C64.1982 6.83691 64.0615 6.84147 63.9248 6.85059C63.7881 6.8597 63.6513 6.8597 63.5146 6.85059C63.4508 6.88704 63.3802 6.91667 63.3027 6.93945C63.2298 6.95768 63.1592 6.9668 63.0908 6.9668C63.0361 6.9668 62.9883 6.95996 62.9472 6.94629C62.8379 7.00098 62.7171 7.04655 62.5849 7.08301C62.4573 7.11947 62.3275 7.15592 62.1953 7.19238C62.0631 7.22428 61.9355 7.26302 61.8125 7.30859C61.694 7.34961 61.5892 7.40885 61.498 7.48633C61.4889 7.55013 61.4821 7.61393 61.4775 7.67773C61.473 7.73698 61.4707 7.79622 61.4707 7.85547C61.4707 7.91927 61.473 7.97852 61.4775 8.0332C61.4866 8.08789 61.5026 8.14258 61.5254 8.19727C61.5482 8.20638 61.5732 8.21322 61.6006 8.21777C61.6325 8.22233 61.6598 8.22461 61.6826 8.22461C61.7054 8.22461 61.7282 8.22233 61.751 8.21777C61.7737 8.20866 61.7897 8.19271 61.7988 8.16992C61.8672 8.16081 61.9355 8.15853 62.0039 8.16309C62.0722 8.16309 62.1406 8.16309 62.209 8.16309C62.2773 8.16309 62.3434 8.16081 62.4072 8.15625C62.4756 8.15169 62.5416 8.1403 62.6054 8.12207C62.6784 8.10384 62.749 8.09245 62.8174 8.08789C62.8903 8.08333 62.9609 8.07878 63.0293 8.07422C63.0976 8.06966 63.1683 8.06283 63.2412 8.05371C63.3141 8.04004 63.3893 8.01497 63.4668 7.97852C63.526 8.0013 63.5853 8.0127 63.6445 8.0127C63.7083 8.0127 63.7698 8.01725 63.8291 8.02637C63.861 8.04915 63.886 8.07422 63.9043 8.10156C63.9271 8.12891 63.9385 8.16081 63.9385 8.19727C63.9385 8.26107 63.9157 8.32487 63.8701 8.38867C63.8245 8.45247 63.7881 8.51172 63.7607 8.56641H63.6855C63.5761 8.56641 63.4691 8.58236 63.3642 8.61426C63.264 8.6416 63.1614 8.67578 63.0566 8.7168C62.9564 8.75326 62.8538 8.78743 62.749 8.81934C62.6487 8.84668 62.5439 8.86035 62.4345 8.86035C62.4163 8.86035 62.4049 8.87174 62.4004 8.89453C62.4004 8.91276 62.3958 8.92643 62.3867 8.93555C62.3639 8.93099 62.3297 8.92871 62.2842 8.92871C62.1793 8.92871 62.0791 8.9401 61.9834 8.96289C61.8877 8.98568 61.7897 8.99707 61.6894 8.99707C61.6621 8.99707 61.6347 8.99707 61.6074 8.99707C61.5801 8.99251 61.5527 8.98796 61.5254 8.9834C61.5026 9.01986 61.473 9.04492 61.4365 9.05859C61.4 9.06771 61.3659 9.08594 61.334 9.11328C61.3203 9.1543 61.3112 9.20443 61.3066 9.26367C61.3066 9.32292 61.3043 9.38444 61.2998 9.44824C61.2998 9.50749 61.2952 9.56445 61.2861 9.61914C61.277 9.67383 61.2588 9.71712 61.2314 9.74902C61.236 9.77181 61.2542 9.78092 61.2861 9.77637C61.318 9.76725 61.334 9.78092 61.334 9.81738C61.334 9.8584 61.3294 9.90169 61.3203 9.94727C61.3112 9.99284 61.3066 10.0384 61.3066 10.084C61.3066 10.1706 61.3157 10.2663 61.334 10.3711C61.3567 10.4714 61.3886 10.5648 61.4297 10.6514C61.4752 10.738 61.5345 10.8109 61.6074 10.8701C61.6803 10.9248 61.7715 10.9521 61.8808 10.9521C61.9538 10.9521 62.0221 10.9385 62.0859 10.9111C62.1497 10.8838 62.2021 10.8382 62.2431 10.7744L62.2773 10.7676C62.2956 10.7676 62.3115 10.7699 62.3252 10.7744C62.3434 10.779 62.3616 10.7812 62.3799 10.7812C62.4072 10.7812 62.4414 10.7653 62.4824 10.7334C62.528 10.6969 62.5758 10.6559 62.626 10.6104C62.6806 10.5648 62.7353 10.5215 62.79 10.4805C62.8447 10.4349 62.8971 10.403 62.9472 10.3848C62.9791 10.321 63.0088 10.2572 63.0361 10.1934C63.068 10.1296 63.1136 10.0794 63.1728 10.043V9.84473C63.2184 9.7946 63.2663 9.74902 63.3164 9.70801C63.3711 9.66699 63.4121 9.61458 63.4394 9.55078C63.4622 9.5599 63.4827 9.56673 63.501 9.57129C63.5237 9.57585 63.5465 9.57812 63.5693 9.57812C63.5921 9.57812 63.6149 9.57585 63.6377 9.57129C63.665 9.56673 63.6901 9.5599 63.7129 9.55078C63.7493 9.60091 63.7767 9.65788 63.7949 9.72168C63.8177 9.78092 63.845 9.83789 63.8769 9.89258C63.8359 9.97461 63.7881 10.0726 63.7334 10.1865C63.6787 10.3005 63.6194 10.4144 63.5556 10.5283C63.4918 10.6423 63.4235 10.7516 63.3506 10.8564C63.2822 10.9567 63.2138 11.0342 63.1455 11.0889C63.1318 11.1025 63.1022 11.1185 63.0566 11.1367C63.0065 11.1732 62.9609 11.2074 62.9199 11.2393C62.8789 11.2757 62.8401 11.3167 62.8037 11.3623C62.6715 11.4033 62.5439 11.458 62.4209 11.5264C62.3024 11.5947 62.1839 11.6608 62.0654 11.7246C62.0107 11.7109 61.9515 11.7041 61.8877 11.7041C61.833 11.7041 61.7783 11.7064 61.7236 11.7109C61.6689 11.7201 61.6097 11.7246 61.5459 11.7246C61.5276 11.7018 61.5003 11.6859 61.4638 11.6768C61.4319 11.6722 61.4206 11.6494 61.4297 11.6084C61.2747 11.5993 61.1494 11.556 61.0537 11.4785C60.958 11.4056 60.876 11.3145 60.8076 11.2051C60.7438 11.0957 60.6914 10.9772 60.6504 10.8496C60.6094 10.722 60.5661 10.599 60.5205 10.4805V10.46C60.5205 10.4372 60.5296 10.4235 60.5478 10.4189C60.5661 10.4144 60.5752 10.4007 60.5752 10.3779C60.5752 10.3688 60.5729 10.362 60.5683 10.3574C60.5547 10.3073 60.5433 10.264 60.5342 10.2275C60.525 10.1911 60.5205 10.1478 60.5205 10.0977C60.5205 10.0247 60.525 9.9541 60.5342 9.88574C60.5433 9.81283 60.5478 9.73991 60.5478 9.66699C60.5478 9.59408 60.5387 9.53027 60.5205 9.47559C60.5387 9.4528 60.5547 9.42318 60.5683 9.38672C60.5775 9.3457 60.5843 9.30469 60.5888 9.26367C60.5934 9.22266 60.5957 9.18164 60.5957 9.14062C60.6002 9.09961 60.6071 9.06315 60.6162 9.03125C60.598 8.98112 60.582 8.93783 60.5683 8.90137C60.5547 8.86035 60.5478 8.8125 60.5478 8.75781V8.70996C60.5934 8.63249 60.6321 8.55273 60.664 8.4707C60.6959 8.38867 60.7301 8.30436 60.7666 8.21777V8.19727C60.7666 8.0651 60.762 7.93294 60.7529 7.80078C60.7438 7.66862 60.7392 7.53646 60.7392 7.4043V7.27441C60.7392 7.22884 60.7415 7.18555 60.7461 7.14453C60.7825 7.1263 60.8099 7.10124 60.8281 7.06934C60.8463 7.03743 60.8737 7.01237 60.9101 6.99414H61.1357L61.1767 6.92578C61.1904 6.90299 61.1995 6.87793 61.2041 6.85059C61.2542 6.83691 61.3021 6.81868 61.3476 6.7959C61.3978 6.76855 61.4433 6.74121 61.4844 6.71387C61.5482 6.67741 61.6051 6.64551 61.6553 6.61816C61.7099 6.58626 61.7623 6.5612 61.8125 6.54297C61.8672 6.52018 61.9241 6.50195 61.9834 6.48828C62.0426 6.47461 62.111 6.46322 62.1885 6.4541C62.2249 6.4541 62.2477 6.44727 62.2568 6.43359C62.2705 6.41992 62.2887 6.40397 62.3115 6.38574C62.3662 6.39486 62.4209 6.40397 62.4756 6.41309C62.5303 6.41764 62.5849 6.41992 62.6396 6.41992C62.749 6.41992 62.8515 6.39941 62.9472 6.3584C63.084 6.3584 63.2184 6.35612 63.3506 6.35156C63.4873 6.34701 63.624 6.34473 63.7607 6.34473C63.8792 6.34473 63.9977 6.34928 64.1162 6.3584C64.2347 6.36751 64.3509 6.38346 64.4648 6.40625C64.5058 6.39258 64.5514 6.38574 64.6015 6.38574C64.6562 6.38574 64.7109 6.39258 64.7656 6.40625C64.8248 6.41536 64.8818 6.41536 64.9365 6.40625C64.9411 6.45638 64.9525 6.49967 64.9707 6.53613C64.9935 6.56803 65.0049 6.60677 65.0049 6.65234Z" fill="#207A80"/>
<path d="M79.4226 11.5888C86.9285 10.0214 104.109 11.2885 112.785 28.896" stroke="#207A80" stroke-linecap="round" stroke-linejoin="round"/>
<path d="M110.378 35.3391L115.566 37.1797L117.266 32.1321" stroke="#207A80" stroke-linecap="round" stroke-linejoin="round"/>
</svg>
