<svg width="106" height="42" viewBox="0 0 106 42" fill="none" xmlns="http://www.w3.org/2000/svg">
<path d="M33.4355 7.19922C33.4355 7.26302 33.4333 7.32682 33.4287 7.39062C33.4242 7.45443 33.4173 7.51823 33.4082 7.58203C33.3763 7.6276 33.3444 7.66862 33.3125 7.70508C33.2852 7.73698 33.2669 7.77799 33.2578 7.82812C33.2077 7.86458 33.1507 7.91471 33.0869 7.97852C33.0277 8.04232 33.0026 8.10612 33.0117 8.16992H32.916C32.8613 8.25195 32.7975 8.32259 32.7246 8.38184C32.6517 8.44108 32.5742 8.49805 32.4922 8.55273L32.2529 8.70996C32.1755 8.76009 32.1025 8.81934 32.0342 8.8877C31.9977 8.89225 31.9681 8.89909 31.9453 8.9082C31.9225 8.91732 31.8929 8.9196 31.8564 8.91504C31.7152 9.00618 31.5671 9.08594 31.4121 9.1543C31.2617 9.22266 31.109 9.29102 30.9541 9.35938C30.8037 9.42318 30.6533 9.49154 30.5029 9.56445C30.3525 9.63737 30.209 9.72168 30.0723 9.81738C30.0586 9.81283 30.0404 9.81055 30.0176 9.81055C29.9766 9.81055 29.9355 9.81738 29.8945 9.83105C29.8535 9.84017 29.8125 9.84473 29.7715 9.84473C29.7533 9.84473 29.7282 9.84245 29.6963 9.83789C29.6689 9.83333 29.6484 9.8265 29.6348 9.81738C29.612 9.80371 29.5915 9.7832 29.5732 9.75586C29.555 9.72852 29.5413 9.69889 29.5322 9.66699C29.5231 9.63053 29.5163 9.59635 29.5117 9.56445C29.5072 9.53255 29.5049 9.50521 29.5049 9.48242C29.5049 9.45508 29.5072 9.42546 29.5117 9.39355C29.5163 9.36165 29.5231 9.33203 29.5322 9.30469C29.6644 9.29557 29.7965 9.26139 29.9287 9.20215C30.0654 9.1429 30.1953 9.08594 30.3184 9.03125C30.3503 9.01758 30.3753 9.00163 30.3936 8.9834C30.4163 8.96061 30.4391 8.94238 30.4619 8.92871C30.4847 8.91048 30.5098 8.89453 30.5371 8.88086C30.5645 8.86719 30.5986 8.86035 30.6396 8.86035H30.6602C30.9473 8.72819 31.2275 8.58464 31.501 8.42969C31.779 8.27474 32.0547 8.11751 32.3281 7.95801C32.3418 7.91699 32.3623 7.87598 32.3896 7.83496C32.4215 7.79395 32.4512 7.75521 32.4785 7.71875C32.5059 7.67773 32.5309 7.63672 32.5537 7.5957C32.5765 7.55469 32.5879 7.51367 32.5879 7.47266C32.5879 7.39062 32.5492 7.32227 32.4717 7.26758H32.4443C32.3896 7.26758 32.3418 7.26074 32.3008 7.24707C32.2598 7.22884 32.221 7.21289 32.1846 7.19922C32.1481 7.18099 32.1071 7.16732 32.0615 7.1582C32.016 7.14453 31.9635 7.13997 31.9043 7.14453C31.8815 7.1263 31.8451 7.11035 31.7949 7.09668C31.7448 7.08301 31.7038 7.07617 31.6719 7.07617C31.5078 7.07617 31.346 7.08757 31.1865 7.11035C31.027 7.12858 30.8675 7.13997 30.708 7.14453C30.667 7.16732 30.6283 7.18783 30.5918 7.20605C30.5553 7.22428 30.512 7.2334 30.4619 7.2334C30.4391 7.2334 30.4186 7.2334 30.4004 7.2334C30.3822 7.22884 30.3617 7.22428 30.3389 7.21973C30.2523 7.25618 30.1543 7.28809 30.0449 7.31543C29.9355 7.33822 29.8262 7.36784 29.7168 7.4043C29.612 7.4362 29.514 7.47721 29.4229 7.52734C29.3317 7.57747 29.2611 7.64583 29.2109 7.73242C29.2109 7.75521 29.2155 7.77572 29.2246 7.79395C29.2337 7.80762 29.2383 7.82585 29.2383 7.84863V7.87598C29.2109 7.90332 29.1927 7.93522 29.1836 7.97168C29.1745 8.00358 29.1676 8.03776 29.1631 8.07422C29.1585 8.10612 29.1517 8.1403 29.1426 8.17676C29.138 8.20866 29.1221 8.24056 29.0947 8.27246C29.113 8.34082 29.1221 8.41602 29.1221 8.49805C29.1221 8.58919 29.1152 8.68034 29.1016 8.77148C29.0924 8.86263 29.0879 8.95378 29.0879 9.04492C29.0879 9.13151 29.097 9.20898 29.1152 9.27734C29.0879 9.30469 29.0765 9.3457 29.0811 9.40039C29.0856 9.45508 29.0742 9.49609 29.0469 9.52344C29.0469 9.5599 29.056 9.58496 29.0742 9.59863C29.097 9.6123 29.1107 9.63509 29.1152 9.66699C29.097 9.74447 29.0879 9.82878 29.0879 9.91992C29.0879 10.0521 29.1016 10.1865 29.1289 10.3232C29.1608 10.46 29.1973 10.5944 29.2383 10.7266C29.3112 10.7038 29.3887 10.6855 29.4707 10.6719C29.5573 10.6536 29.6393 10.6445 29.7168 10.6445C29.7305 10.6445 29.7441 10.6468 29.7578 10.6514C29.7715 10.6514 29.7852 10.6514 29.7988 10.6514C29.8079 10.7015 29.8262 10.7471 29.8535 10.7881C29.8809 10.8291 29.9059 10.8747 29.9287 10.9248C29.9059 10.9567 29.8854 10.9818 29.8672 11C29.8535 11.0228 29.8467 11.0524 29.8467 11.0889C29.7829 11.0934 29.7305 11.1094 29.6895 11.1367C29.6484 11.1686 29.6029 11.2028 29.5527 11.2393H29.5254C29.4479 11.2393 29.3841 11.2529 29.334 11.2803C29.2839 11.3122 29.2269 11.3464 29.1631 11.3828C29.1084 11.36 29.0537 11.3486 28.999 11.3486C28.9398 11.3486 28.8805 11.36 28.8213 11.3828C28.7484 11.3509 28.6891 11.3008 28.6436 11.2324C28.598 11.1686 28.5592 11.0957 28.5273 11.0137C28.4954 10.9362 28.4658 10.8564 28.4385 10.7744C28.4157 10.6924 28.3883 10.6172 28.3564 10.5488V10.4395C28.3564 10.3346 28.3473 10.2344 28.3291 10.1387C28.3154 10.0384 28.3086 9.93587 28.3086 9.83105C28.3086 9.79004 28.3109 9.74674 28.3154 9.70117C28.3245 9.6556 28.3382 9.6123 28.3564 9.57129C28.3473 9.53027 28.3428 9.49154 28.3428 9.45508V9.3252C28.3428 9.18848 28.3473 9.05176 28.3564 8.91504C28.3701 8.77832 28.377 8.6416 28.377 8.50488C28.377 8.40462 28.3701 8.30208 28.3564 8.19727C28.3337 8.20638 28.3132 8.21549 28.2949 8.22461C28.2767 8.23372 28.2562 8.23828 28.2334 8.23828C28.2106 8.23828 28.1878 8.236 28.165 8.23145C28.1468 8.22689 28.1286 8.22233 28.1104 8.21777C28.0648 8.17676 28.0329 8.12663 28.0146 8.06738C27.9964 8.00814 27.9714 7.95345 27.9395 7.90332C27.9395 7.81673 27.9531 7.74609 27.9805 7.69141C28.0033 7.63216 28.0329 7.57975 28.0693 7.53418C28.1058 7.48405 28.1423 7.4362 28.1787 7.39062C28.2197 7.34505 28.2539 7.28809 28.2812 7.21973H28.3086C28.3815 7.21973 28.4544 7.19694 28.5273 7.15137C28.6003 7.10124 28.6823 7.07617 28.7734 7.07617C28.8053 7.03516 28.8486 7.00098 28.9033 6.97363C28.958 6.94173 29.015 6.91667 29.0742 6.89844C29.138 6.88021 29.1995 6.86882 29.2588 6.86426C29.3226 6.85514 29.3818 6.85059 29.4365 6.85059C29.4548 6.81868 29.4821 6.79818 29.5186 6.78906C29.555 6.77539 29.5915 6.764 29.6279 6.75488C29.6689 6.74121 29.7054 6.72982 29.7373 6.7207C29.7738 6.70703 29.8034 6.68424 29.8262 6.65234C29.8626 6.66146 29.8968 6.66602 29.9287 6.66602C29.988 6.66602 30.0449 6.65918 30.0996 6.64551C30.1543 6.62728 30.209 6.60905 30.2637 6.59082C30.3184 6.56803 30.373 6.54753 30.4277 6.5293C30.487 6.51107 30.5485 6.50195 30.6123 6.50195C30.6351 6.50195 30.6579 6.50423 30.6807 6.50879C30.7035 6.50879 30.7262 6.50879 30.749 6.50879C30.7855 6.50879 30.806 6.49512 30.8105 6.46777C30.8197 6.44043 30.8356 6.41992 30.8584 6.40625C30.8721 6.41081 30.8971 6.41309 30.9336 6.41309C31.0247 6.41309 31.1136 6.40625 31.2002 6.39258C31.2868 6.37435 31.3757 6.36523 31.4668 6.36523C31.5078 6.36523 31.5488 6.36751 31.5898 6.37207C31.6309 6.37663 31.6719 6.38802 31.7129 6.40625C31.722 6.39258 31.7311 6.38118 31.7402 6.37207C31.7493 6.36296 31.7562 6.35156 31.7607 6.33789C31.984 6.35156 32.1937 6.39714 32.3896 6.47461C32.5902 6.55208 32.7975 6.62044 33.0117 6.67969C33.0391 6.7207 33.071 6.75716 33.1074 6.78906L33.2236 6.88477C33.2646 6.91667 33.3034 6.94857 33.3398 6.98047C33.3763 7.01237 33.4082 7.05111 33.4355 7.09668V7.19922ZM38.1182 10.501C38.1045 10.5648 38.0749 10.6172 38.0293 10.6582C37.9883 10.6947 37.9382 10.7243 37.8789 10.7471C37.8197 10.7699 37.7581 10.7858 37.6943 10.7949C37.6351 10.7995 37.5804 10.8018 37.5303 10.8018C37.5075 10.8018 37.4847 10.8018 37.4619 10.8018C37.4437 10.7972 37.4232 10.7949 37.4004 10.7949C37.3776 10.7949 37.3662 10.8063 37.3662 10.8291C37.3662 10.8519 37.3548 10.8678 37.332 10.877C37.3092 10.8678 37.2865 10.861 37.2637 10.8564C37.2409 10.8519 37.2181 10.8496 37.1953 10.8496C37.1634 10.8496 37.1315 10.8519 37.0996 10.8564C37.0723 10.861 37.0449 10.8633 37.0176 10.8633C36.9811 10.8633 36.9538 10.8587 36.9355 10.8496C36.9219 10.8405 36.9082 10.8314 36.8945 10.8223C36.8854 10.8086 36.874 10.7949 36.8604 10.7812C36.8512 10.7676 36.8353 10.7562 36.8125 10.7471C36.7806 10.7334 36.7533 10.7311 36.7305 10.7402C36.7122 10.7493 36.6826 10.7357 36.6416 10.6992C36.5869 10.6536 36.5391 10.599 36.498 10.5352C36.4616 10.4668 36.4251 10.3962 36.3887 10.3232C36.3522 10.2503 36.3135 10.1774 36.2725 10.1045C36.2314 10.0316 36.1836 9.96777 36.1289 9.91309H36.0742C35.9922 9.91309 35.9352 9.94727 35.9033 10.0156C35.8805 10.002 35.8577 9.986 35.835 9.96777C35.8122 9.94499 35.7871 9.92676 35.7598 9.91309C35.6549 9.94499 35.5456 9.97233 35.4316 9.99512C35.3177 10.0179 35.2038 10.0293 35.0898 10.0293H34.9941C34.9668 10.0293 34.9372 10.0247 34.9053 10.0156C34.8597 10.0339 34.8187 10.0566 34.7822 10.084C34.7458 10.1068 34.7048 10.1182 34.6592 10.1182C34.6318 10.1182 34.5999 10.109 34.5635 10.0908C34.5361 10.0908 34.5225 10.1022 34.5225 10.125C34.527 10.1478 34.5133 10.1592 34.4814 10.1592H34.4199C34.3561 10.1592 34.2923 10.1615 34.2285 10.166C34.1693 10.1706 34.1077 10.1729 34.0439 10.1729C33.9574 10.1729 33.8685 10.1615 33.7773 10.1387C33.7546 10.1523 33.7295 10.1592 33.7021 10.1592C33.6839 10.1683 33.6702 10.1842 33.6611 10.207C33.652 10.2253 33.6429 10.2435 33.6338 10.2617C33.6247 10.2754 33.611 10.2891 33.5928 10.3027C33.5791 10.3118 33.5586 10.3141 33.5312 10.3096C33.5221 10.3643 33.4993 10.4076 33.4629 10.4395C33.4264 10.4714 33.4082 10.5192 33.4082 10.583C33.3581 10.6104 33.3171 10.6445 33.2852 10.6855C33.2533 10.7266 33.2214 10.7699 33.1895 10.8154C33.1576 10.861 33.1234 10.9043 33.0869 10.9453C33.055 10.9863 33.014 11.0182 32.9639 11.041C32.9411 11.0684 32.9342 11.1117 32.9434 11.1709C32.8932 11.2119 32.8317 11.2484 32.7588 11.2803C32.6859 11.3122 32.6175 11.3281 32.5537 11.3281C32.4215 11.3281 32.3304 11.2575 32.2803 11.1162C32.2803 11.0706 32.2848 11.0228 32.2939 10.9727C32.2985 10.918 32.3076 10.8678 32.3213 10.8223C32.335 10.7721 32.3555 10.7288 32.3828 10.6924C32.4102 10.6514 32.4489 10.6217 32.499 10.6035C32.499 10.5625 32.4854 10.5352 32.458 10.5215C32.4307 10.5033 32.4193 10.4736 32.4238 10.4326C32.5469 10.3734 32.654 10.2959 32.7451 10.2002C32.8363 10.1045 32.9183 10.0042 32.9912 9.89941C33.0687 9.79004 33.1462 9.68066 33.2236 9.57129C33.3011 9.46191 33.3877 9.36393 33.4834 9.27734V9.13379C33.6201 8.98796 33.709 8.82389 33.75 8.6416C33.8001 8.63249 33.832 8.6097 33.8457 8.57324C33.8639 8.53678 33.873 8.49349 33.873 8.44336C33.8958 8.44336 33.9095 8.43424 33.9141 8.41602C33.9232 8.39323 33.9437 8.38639 33.9756 8.39551C34.0166 8.28613 34.0622 8.18587 34.1123 8.09473C34.1624 8.00358 34.2126 7.91243 34.2627 7.82129C34.3128 7.72559 34.3561 7.6276 34.3926 7.52734C34.4336 7.42708 34.4632 7.31543 34.4814 7.19238C34.5452 7.18783 34.5794 7.1582 34.584 7.10352C34.5931 7.04427 34.6022 6.99186 34.6113 6.94629C34.6797 6.88249 34.7298 6.80729 34.7617 6.7207C34.7982 6.63411 34.8301 6.54525 34.8574 6.4541C34.8848 6.3584 34.9144 6.26497 34.9463 6.17383C34.9827 6.07812 35.0329 5.99382 35.0967 5.9209V5.90039C35.0967 5.8776 35.0876 5.86393 35.0693 5.85938C35.0511 5.85026 35.042 5.83431 35.042 5.81152C35.0465 5.80697 35.0488 5.80241 35.0488 5.79785C35.1035 5.77507 35.1445 5.73861 35.1719 5.68848C35.1992 5.63379 35.2402 5.59505 35.2949 5.57227C35.3906 5.64974 35.4749 5.69759 35.5479 5.71582C35.6208 5.72949 35.7165 5.74089 35.835 5.75C35.8942 5.8138 35.9261 5.89128 35.9307 5.98242C35.9398 6.06901 35.9557 6.1556 35.9785 6.24219C36.015 6.38802 36.0537 6.53158 36.0947 6.67285C36.1403 6.80957 36.1745 6.95085 36.1973 7.09668C36.2109 7.18327 36.236 7.2653 36.2725 7.34277C36.3089 7.42025 36.334 7.5 36.3477 7.58203C36.3568 7.64583 36.3568 7.71875 36.3477 7.80078C36.3385 7.87826 36.3477 7.94661 36.375 8.00586L36.4229 8.11523C36.4456 8.16536 36.4639 8.21777 36.4775 8.27246C36.4958 8.32715 36.5117 8.38184 36.5254 8.43652C36.5618 8.57324 36.5938 8.72135 36.6211 8.88086C36.653 9.03581 36.7008 9.17708 36.7646 9.30469C36.7874 9.35026 36.8216 9.38216 36.8672 9.40039C36.9173 9.41862 36.972 9.43229 37.0312 9.44141C37.0905 9.44596 37.1475 9.44824 37.2021 9.44824C37.2614 9.44368 37.3115 9.44141 37.3525 9.44141H37.4209C37.4482 9.44141 37.4756 9.44596 37.5029 9.45508C37.5212 9.49154 37.5303 9.52344 37.5303 9.55078C37.5303 9.60547 37.512 9.64876 37.4756 9.68066C37.4391 9.71257 37.4209 9.74902 37.4209 9.79004C37.4209 9.81283 37.43 9.83789 37.4482 9.86523C37.43 9.86068 37.4027 9.8584 37.3662 9.8584C37.2614 9.8584 37.1589 9.87663 37.0586 9.91309C37.0951 9.99056 37.1429 10.0566 37.2021 10.1113C37.266 10.1615 37.332 10.2093 37.4004 10.2549C37.446 10.2184 37.4938 10.2002 37.5439 10.2002C37.5986 10.2002 37.6488 10.2139 37.6943 10.2412C37.7445 10.264 37.7969 10.2754 37.8516 10.2754C37.8926 10.2754 37.9222 10.2686 37.9404 10.2549C37.9769 10.2959 38.0065 10.3392 38.0293 10.3848C38.0521 10.4258 38.0817 10.4645 38.1182 10.501ZM35.9785 9.40723C35.9694 9.32975 35.9535 9.27507 35.9307 9.24316C35.9124 9.20671 35.8965 9.16341 35.8828 9.11328C35.8646 9.04948 35.8509 8.98112 35.8418 8.9082C35.8372 8.83529 35.8281 8.76465 35.8145 8.69629C35.7826 8.54134 35.7461 8.38639 35.7051 8.23145C35.6686 8.0765 35.6208 7.92611 35.5615 7.78027C35.5798 7.75293 35.5889 7.72786 35.5889 7.70508V7.68457C35.5479 7.639 35.5182 7.58431 35.5 7.52051C35.4818 7.45215 35.4635 7.38607 35.4453 7.32227C35.4316 7.25391 35.4111 7.19238 35.3838 7.1377C35.361 7.07845 35.3223 7.0306 35.2676 6.99414C35.2539 7.02148 35.2471 7.05339 35.2471 7.08984C35.2471 7.12174 35.2493 7.15137 35.2539 7.17871C35.263 7.20605 35.2676 7.23568 35.2676 7.26758C35.222 7.29036 35.1878 7.32682 35.165 7.37695C35.1468 7.42253 35.1149 7.45898 35.0693 7.48633C35.0329 7.63216 34.9805 7.77116 34.9121 7.90332C34.8438 8.03092 34.7708 8.15853 34.6934 8.28613C34.6204 8.41374 34.5498 8.54362 34.4814 8.67578C34.4131 8.80339 34.3584 8.93783 34.3174 9.0791C34.2581 9.12012 34.2171 9.17253 34.1943 9.23633C34.1761 9.30013 34.167 9.36393 34.167 9.42773C34.208 9.45052 34.2536 9.46419 34.3037 9.46875C34.3584 9.46875 34.4108 9.46875 34.4609 9.46875C34.5111 9.46875 34.5589 9.47331 34.6045 9.48242C34.6501 9.49154 34.6911 9.51432 34.7275 9.55078C34.7868 9.53255 34.8506 9.52116 34.9189 9.5166C34.9919 9.50749 35.0511 9.48698 35.0967 9.45508C35.1878 9.48698 35.2858 9.50293 35.3906 9.50293C35.4453 9.50293 35.4977 9.49837 35.5479 9.48926C35.6025 9.48014 35.6549 9.46875 35.7051 9.45508C35.7461 9.46419 35.778 9.48014 35.8008 9.50293C35.8236 9.52116 35.8577 9.52799 35.9033 9.52344C35.9261 9.50521 35.9398 9.48698 35.9443 9.46875C35.9489 9.44596 35.9603 9.42546 35.9785 9.40723ZM45.1865 7.21973C45.1729 7.26074 45.1455 7.29036 45.1045 7.30859C45.068 7.32227 45.0293 7.33366 44.9883 7.34277C44.9473 7.35189 44.9085 7.36784 44.8721 7.39062C44.8402 7.40885 44.8197 7.44076 44.8105 7.48633L44.7969 7.49316C44.7786 7.49316 44.765 7.48861 44.7559 7.47949C44.7513 7.46582 44.7467 7.45443 44.7422 7.44531C44.7376 7.43164 44.7308 7.42025 44.7217 7.41113C44.7171 7.39746 44.708 7.39062 44.6943 7.39062C44.6442 7.39062 44.5941 7.39518 44.5439 7.4043C44.4984 7.41341 44.4528 7.41797 44.4072 7.41797C44.3389 7.41797 44.2773 7.40885 44.2227 7.39062C44.1908 7.39974 44.1725 7.42025 44.168 7.45215C44.168 7.48405 44.1543 7.50456 44.127 7.51367C44.1042 7.52279 44.0768 7.52734 44.0449 7.52734C44.013 7.52279 43.9811 7.52507 43.9492 7.53418L43.7305 7.58887C43.6576 7.6071 43.5846 7.61621 43.5117 7.61621C43.4707 7.61621 43.4411 7.61393 43.4229 7.60938C43.3545 7.66406 43.277 7.70508 43.1904 7.73242C43.1038 7.75521 43.0127 7.77799 42.917 7.80078C42.8258 7.81901 42.7347 7.84408 42.6436 7.87598C42.557 7.90788 42.4795 7.95801 42.4111 8.02637C42.3747 8.01725 42.3428 8.0127 42.3154 8.0127C42.2562 8.0127 42.2038 8.02637 42.1582 8.05371C42.1126 8.0765 42.0648 8.09928 42.0146 8.12207C41.9919 8.13118 41.9691 8.13574 41.9463 8.13574C41.9235 8.13574 41.8984 8.1403 41.8711 8.14941C41.8438 8.15853 41.8255 8.17448 41.8164 8.19727C41.8118 8.21549 41.7982 8.23372 41.7754 8.25195C41.7754 8.41602 41.7913 8.58008 41.8232 8.74414C41.8551 8.90365 41.8711 9.06543 41.8711 9.22949V9.25684C41.8802 9.33431 41.9053 9.40723 41.9463 9.47559C41.9873 9.53939 42.0078 9.60547 42.0078 9.67383C42.0078 9.69661 42.0033 9.72168 41.9941 9.74902C42.1126 9.77637 42.1901 9.83789 42.2266 9.93359C42.2676 10.0247 42.2995 10.125 42.3223 10.2344C42.3496 10.3392 42.3838 10.4372 42.4248 10.5283C42.4704 10.6195 42.557 10.6764 42.6846 10.6992C42.6937 10.7448 42.7005 10.7926 42.7051 10.8428C42.7096 10.8883 42.7119 10.9339 42.7119 10.9795C42.7119 11.0433 42.7051 11.1048 42.6914 11.1641C42.6777 11.2279 42.6504 11.2848 42.6094 11.335C42.541 11.3395 42.4909 11.3418 42.459 11.3418C42.4271 11.3418 42.3792 11.3555 42.3154 11.3828C42.2243 11.3281 42.1423 11.2643 42.0693 11.1914C42.001 11.123 41.9349 11.0501 41.8711 10.9727C41.8118 10.8906 41.7526 10.8086 41.6934 10.7266C41.6341 10.64 41.5703 10.5579 41.502 10.4805C41.265 10.5397 41.0212 10.5807 40.7705 10.6035C40.5244 10.6217 40.2783 10.6309 40.0322 10.6309C40.0231 10.64 40.0094 10.6445 39.9912 10.6445C39.973 10.6445 39.9548 10.6468 39.9365 10.6514C39.9229 10.6514 39.9092 10.6559 39.8955 10.665C39.8864 10.6696 39.8841 10.681 39.8887 10.6992C39.8568 10.681 39.8203 10.6696 39.7793 10.665C39.7428 10.6559 39.7087 10.6514 39.6768 10.6514C39.654 10.6514 39.6312 10.6536 39.6084 10.6582C39.5856 10.6582 39.5628 10.665 39.54 10.6787C39.3669 10.6468 39.1982 10.6035 39.0342 10.5488C38.8747 10.4896 38.7106 10.4417 38.542 10.4053C38.542 10.3688 38.5329 10.3438 38.5146 10.3301C38.4964 10.3118 38.4805 10.2868 38.4668 10.2549C38.2754 10.1364 38.1136 9.99284 37.9814 9.82422C37.8538 9.6556 37.8014 9.45052 37.8242 9.20898L37.7764 9.11328C37.7764 9.04036 37.7923 8.98796 37.8242 8.95605C37.806 8.92415 37.7741 8.89225 37.7285 8.86035C37.7695 8.79655 37.806 8.73047 37.8379 8.66211C37.8698 8.59375 37.8926 8.52083 37.9062 8.44336C37.9108 8.42057 37.9131 8.40007 37.9131 8.38184C37.9131 8.36361 37.9176 8.3431 37.9268 8.32031C37.9359 8.29297 37.9495 8.26335 37.9678 8.23145C37.9814 8.19499 37.9951 8.16309 38.0088 8.13574C38.0817 7.98079 38.1615 7.83268 38.248 7.69141C38.3392 7.54557 38.4531 7.42025 38.5898 7.31543C38.599 7.23796 38.6217 7.17415 38.6582 7.12402C38.6947 7.06934 38.7334 7.02148 38.7744 6.98047C38.82 6.9349 38.8633 6.88932 38.9043 6.84375C38.9499 6.79818 38.984 6.74349 39.0068 6.67969C39.098 6.60221 39.1891 6.52702 39.2803 6.4541C39.376 6.38118 39.4557 6.2946 39.5195 6.19434C39.6016 6.16699 39.679 6.13281 39.752 6.0918C39.8249 6.04622 39.8864 5.98926 39.9365 5.9209C40.0459 5.91178 40.153 5.89128 40.2578 5.85938C40.3672 5.82747 40.4811 5.81152 40.5996 5.81152C40.6497 5.81152 40.709 5.82292 40.7773 5.8457C40.8503 5.86393 40.9049 5.89811 40.9414 5.94824C40.946 5.95736 40.9482 5.96875 40.9482 5.98242L40.9551 6.0166C40.9596 6.02572 40.9642 6.03483 40.9688 6.04395C40.9779 6.0485 40.9915 6.0485 41.0098 6.04395C41.0098 6.14421 40.9984 6.24674 40.9756 6.35156C40.9528 6.45182 40.8936 6.5293 40.7979 6.58398C40.7386 6.56576 40.6748 6.55664 40.6064 6.55664C40.5153 6.55664 40.431 6.57487 40.3535 6.61133C40.2806 6.64323 40.2077 6.68197 40.1348 6.72754C40.0664 6.76855 39.9958 6.81185 39.9229 6.85742C39.8499 6.89844 39.7725 6.92806 39.6904 6.94629C39.6813 6.98275 39.6722 7.01693 39.6631 7.04883C39.6585 7.07617 39.6608 7.10807 39.6699 7.14453C39.6471 7.14453 39.6289 7.14225 39.6152 7.1377C39.6061 7.12858 39.5902 7.12402 39.5674 7.12402C39.5355 7.12402 39.5127 7.14225 39.499 7.17871C39.4899 7.21517 39.4808 7.24479 39.4717 7.26758C39.3851 7.30404 39.3122 7.35645 39.2529 7.4248C39.1982 7.48861 39.1458 7.55924 39.0957 7.63672C39.0501 7.70964 39 7.78027 38.9453 7.84863C38.8906 7.91699 38.8223 7.9694 38.7402 8.00586C38.7038 8.15169 38.6673 8.29525 38.6309 8.43652C38.599 8.5778 38.5602 8.71908 38.5146 8.86035C38.5283 8.91504 38.5352 8.97201 38.5352 9.03125C38.5352 9.10417 38.5283 9.17025 38.5146 9.22949C38.5374 9.26595 38.5602 9.30924 38.583 9.35938L38.665 9.5166C38.6924 9.57129 38.7197 9.62142 38.7471 9.66699C38.779 9.71257 38.8086 9.74674 38.8359 9.76953C38.8861 9.80599 38.9635 9.84017 39.0684 9.87207C39.1732 9.89941 39.2666 9.94727 39.3486 10.0156C39.3577 10.0156 39.3691 10.0156 39.3828 10.0156C39.3965 10.0111 39.4079 10.0088 39.417 10.0088C39.4717 10.0088 39.5309 10.0225 39.5947 10.0498C39.6585 10.0771 39.6995 10.0908 39.7178 10.0908C39.973 10.0908 40.251 10.0749 40.5518 10.043C40.8525 10.0065 41.1305 9.96322 41.3857 9.91309C41.3949 9.86751 41.3994 9.82878 41.3994 9.79688C41.3994 9.73763 41.3903 9.68066 41.3721 9.62598C41.3538 9.56673 41.3242 9.5166 41.2832 9.47559C41.2832 9.40723 41.2832 9.33887 41.2832 9.27051C41.2878 9.20215 41.29 9.13379 41.29 9.06543C41.29 8.9515 41.2855 8.83073 41.2764 8.70312C41.2673 8.57552 41.2445 8.45703 41.208 8.34766H41.1943C41.1351 8.34766 41.0804 8.36361 41.0303 8.39551C40.9847 8.42285 40.9368 8.43652 40.8867 8.43652C40.8594 8.43652 40.8366 8.42969 40.8184 8.41602C40.7637 8.47982 40.6976 8.52767 40.6201 8.55957C40.5426 8.59147 40.4606 8.62109 40.374 8.64844C40.2874 8.67122 40.2008 8.69629 40.1143 8.72363C40.0322 8.75098 39.957 8.78971 39.8887 8.83984C39.8522 8.82617 39.818 8.81934 39.7861 8.81934C39.7542 8.81934 39.7223 8.82161 39.6904 8.82617C39.6631 8.83073 39.6312 8.83529 39.5947 8.83984C39.499 8.75781 39.4512 8.65527 39.4512 8.53223C39.4512 8.46842 39.4603 8.4069 39.4785 8.34766C39.5013 8.28385 39.5309 8.22461 39.5674 8.16992C39.5902 8.15625 39.6175 8.14941 39.6494 8.14941C39.6813 8.14486 39.7132 8.1403 39.7451 8.13574C39.777 8.12663 39.8021 8.11523 39.8203 8.10156C39.8431 8.08789 39.8568 8.06283 39.8613 8.02637C39.875 8.04004 39.8864 8.04688 39.8955 8.04688C39.9046 8.04688 39.9137 8.0446 39.9229 8.04004C39.932 8.03548 39.9411 8.0332 39.9502 8.0332C39.9593 8.0332 39.9661 8.03776 39.9707 8.04688C39.9798 8.05599 39.9844 8.0651 39.9844 8.07422C40.1803 7.9694 40.3809 7.88053 40.5859 7.80762C40.791 7.7347 40.9984 7.66862 41.208 7.60938C41.4222 7.55013 41.6364 7.49544 41.8506 7.44531C42.0648 7.39062 42.2767 7.33138 42.4863 7.26758C42.5182 7.24023 42.5524 7.21973 42.5889 7.20605C42.6253 7.19238 42.6572 7.17188 42.6846 7.14453C42.7165 7.16276 42.7552 7.17188 42.8008 7.17188C42.8646 7.17188 42.9329 7.16048 43.0059 7.1377C43.0833 7.11035 43.1471 7.07845 43.1973 7.04199C43.2155 7.04655 43.2314 7.04883 43.2451 7.04883H43.293C43.3841 7.04883 43.4684 7.03516 43.5459 7.00781C43.6279 6.98047 43.7077 6.94401 43.7852 6.89844H43.8193C43.9606 6.89844 44.0996 6.88249 44.2363 6.85059C44.3776 6.81868 44.5212 6.80273 44.667 6.80273C44.8538 6.80273 45.0179 6.85059 45.1592 6.94629V7.02832C45.1592 7.06478 45.1592 7.09896 45.1592 7.13086C45.1637 7.1582 45.1729 7.18783 45.1865 7.21973ZM47.5381 6.65234V6.67969C47.5062 6.6888 47.4902 6.71159 47.4902 6.74805C47.4401 6.77083 47.3877 6.78906 47.333 6.80273C47.2783 6.81185 47.2259 6.8278 47.1758 6.85059C47.1257 6.84603 47.0732 6.84375 47.0186 6.84375C46.9684 6.83919 46.9183 6.83691 46.8682 6.83691C46.7314 6.83691 46.5947 6.84147 46.458 6.85059C46.3213 6.8597 46.1846 6.8597 46.0479 6.85059C45.984 6.88704 45.9134 6.91667 45.8359 6.93945C45.763 6.95768 45.6924 6.9668 45.624 6.9668C45.5693 6.9668 45.5215 6.95996 45.4805 6.94629C45.3711 7.00098 45.2503 7.04655 45.1182 7.08301C44.9906 7.11947 44.8607 7.15592 44.7285 7.19238C44.5964 7.22428 44.4688 7.26302 44.3457 7.30859C44.2272 7.34961 44.1224 7.40885 44.0312 7.48633C44.0221 7.55013 44.0153 7.61393 44.0107 7.67773C44.0062 7.73698 44.0039 7.79622 44.0039 7.85547C44.0039 7.91927 44.0062 7.97852 44.0107 8.0332C44.0199 8.08789 44.0358 8.14258 44.0586 8.19727C44.0814 8.20638 44.1064 8.21322 44.1338 8.21777C44.1657 8.22233 44.193 8.22461 44.2158 8.22461C44.2386 8.22461 44.2614 8.22233 44.2842 8.21777C44.307 8.20866 44.3229 8.19271 44.332 8.16992C44.4004 8.16081 44.4688 8.15853 44.5371 8.16309C44.6055 8.16309 44.6738 8.16309 44.7422 8.16309C44.8105 8.16309 44.8766 8.16081 44.9404 8.15625C45.0088 8.15169 45.0749 8.1403 45.1387 8.12207C45.2116 8.10384 45.2822 8.09245 45.3506 8.08789C45.4235 8.08333 45.4941 8.07878 45.5625 8.07422C45.6309 8.06966 45.7015 8.06283 45.7744 8.05371C45.8473 8.04004 45.9225 8.01497 46 7.97852C46.0592 8.0013 46.1185 8.0127 46.1777 8.0127C46.2415 8.0127 46.3031 8.01725 46.3623 8.02637C46.3942 8.04915 46.4193 8.07422 46.4375 8.10156C46.4603 8.12891 46.4717 8.16081 46.4717 8.19727C46.4717 8.26107 46.4489 8.32487 46.4033 8.38867C46.3577 8.45247 46.3213 8.51172 46.2939 8.56641H46.2188C46.1094 8.56641 46.0023 8.58236 45.8975 8.61426C45.7972 8.6416 45.6947 8.67578 45.5898 8.7168C45.4896 8.75326 45.387 8.78743 45.2822 8.81934C45.182 8.84668 45.0771 8.86035 44.9678 8.86035C44.9495 8.86035 44.9382 8.87174 44.9336 8.89453C44.9336 8.91276 44.929 8.92643 44.9199 8.93555C44.8971 8.93099 44.863 8.92871 44.8174 8.92871C44.7126 8.92871 44.6123 8.9401 44.5166 8.96289C44.4209 8.98568 44.3229 8.99707 44.2227 8.99707C44.1953 8.99707 44.168 8.99707 44.1406 8.99707C44.1133 8.99251 44.0859 8.98796 44.0586 8.9834C44.0358 9.01986 44.0062 9.04492 43.9697 9.05859C43.9333 9.06771 43.8991 9.08594 43.8672 9.11328C43.8535 9.1543 43.8444 9.20443 43.8398 9.26367C43.8398 9.32292 43.8376 9.38444 43.833 9.44824C43.833 9.50749 43.8285 9.56445 43.8193 9.61914C43.8102 9.67383 43.792 9.71712 43.7646 9.74902C43.7692 9.77181 43.7874 9.78092 43.8193 9.77637C43.8512 9.76725 43.8672 9.78092 43.8672 9.81738C43.8672 9.8584 43.8626 9.90169 43.8535 9.94727C43.8444 9.99284 43.8398 10.0384 43.8398 10.084C43.8398 10.1706 43.849 10.2663 43.8672 10.3711C43.89 10.4714 43.9219 10.5648 43.9629 10.6514C44.0085 10.738 44.0677 10.8109 44.1406 10.8701C44.2135 10.9248 44.3047 10.9521 44.4141 10.9521C44.487 10.9521 44.5553 10.9385 44.6191 10.9111C44.6829 10.8838 44.7354 10.8382 44.7764 10.7744L44.8105 10.7676C44.8288 10.7676 44.8447 10.7699 44.8584 10.7744C44.8766 10.779 44.8949 10.7812 44.9131 10.7812C44.9404 10.7812 44.9746 10.7653 45.0156 10.7334C45.0612 10.6969 45.109 10.6559 45.1592 10.6104C45.2139 10.5648 45.2686 10.5215 45.3232 10.4805C45.3779 10.4349 45.4303 10.403 45.4805 10.3848C45.5124 10.321 45.542 10.2572 45.5693 10.1934C45.6012 10.1296 45.6468 10.0794 45.7061 10.043V9.84473C45.7516 9.7946 45.7995 9.74902 45.8496 9.70801C45.9043 9.66699 45.9453 9.61458 45.9727 9.55078C45.9954 9.5599 46.016 9.56673 46.0342 9.57129C46.057 9.57585 46.0798 9.57812 46.1025 9.57812C46.1253 9.57812 46.1481 9.57585 46.1709 9.57129C46.1982 9.56673 46.2233 9.5599 46.2461 9.55078C46.2826 9.60091 46.3099 9.65788 46.3281 9.72168C46.3509 9.78092 46.3783 9.83789 46.4102 9.89258C46.3691 9.97461 46.3213 10.0726 46.2666 10.1865C46.2119 10.3005 46.1527 10.4144 46.0889 10.5283C46.0251 10.6423 45.9567 10.7516 45.8838 10.8564C45.8154 10.9567 45.7471 11.0342 45.6787 11.0889C45.665 11.1025 45.6354 11.1185 45.5898 11.1367C45.5397 11.1732 45.4941 11.2074 45.4531 11.2393C45.4121 11.2757 45.3734 11.3167 45.3369 11.3623C45.2048 11.4033 45.0771 11.458 44.9541 11.5264C44.8356 11.5947 44.7171 11.6608 44.5986 11.7246C44.5439 11.7109 44.4847 11.7041 44.4209 11.7041C44.3662 11.7041 44.3115 11.7064 44.2568 11.7109C44.2021 11.7201 44.1429 11.7246 44.0791 11.7246C44.0609 11.7018 44.0335 11.6859 43.9971 11.6768C43.9652 11.6722 43.9538 11.6494 43.9629 11.6084C43.8079 11.5993 43.6826 11.556 43.5869 11.4785C43.4912 11.4056 43.4092 11.3145 43.3408 11.2051C43.277 11.0957 43.2246 10.9772 43.1836 10.8496C43.1426 10.722 43.0993 10.599 43.0537 10.4805V10.46C43.0537 10.4372 43.0628 10.4235 43.0811 10.4189C43.0993 10.4144 43.1084 10.4007 43.1084 10.3779C43.1084 10.3688 43.1061 10.362 43.1016 10.3574C43.0879 10.3073 43.0765 10.264 43.0674 10.2275C43.0583 10.1911 43.0537 10.1478 43.0537 10.0977C43.0537 10.0247 43.0583 9.9541 43.0674 9.88574C43.0765 9.81283 43.0811 9.73991 43.0811 9.66699C43.0811 9.59408 43.0719 9.53027 43.0537 9.47559C43.0719 9.4528 43.0879 9.42318 43.1016 9.38672C43.1107 9.3457 43.1175 9.30469 43.1221 9.26367C43.1266 9.22266 43.1289 9.18164 43.1289 9.14062C43.1335 9.09961 43.1403 9.06315 43.1494 9.03125C43.1312 8.98112 43.1152 8.93783 43.1016 8.90137C43.0879 8.86035 43.0811 8.8125 43.0811 8.75781V8.70996C43.1266 8.63249 43.1654 8.55273 43.1973 8.4707C43.2292 8.38867 43.2633 8.30436 43.2998 8.21777V8.19727C43.2998 8.0651 43.2952 7.93294 43.2861 7.80078C43.277 7.66862 43.2725 7.53646 43.2725 7.4043V7.27441C43.2725 7.22884 43.2747 7.18555 43.2793 7.14453C43.3158 7.1263 43.3431 7.10124 43.3613 7.06934C43.3796 7.03743 43.4069 7.01237 43.4434 6.99414H43.6689L43.71 6.92578C43.7236 6.90299 43.7327 6.87793 43.7373 6.85059C43.7874 6.83691 43.8353 6.81868 43.8809 6.7959C43.931 6.76855 43.9766 6.74121 44.0176 6.71387C44.0814 6.67741 44.1383 6.64551 44.1885 6.61816C44.2432 6.58626 44.2956 6.5612 44.3457 6.54297C44.4004 6.52018 44.4574 6.50195 44.5166 6.48828C44.5758 6.47461 44.6442 6.46322 44.7217 6.4541C44.7581 6.4541 44.7809 6.44727 44.79 6.43359C44.8037 6.41992 44.8219 6.40397 44.8447 6.38574C44.8994 6.39486 44.9541 6.40397 45.0088 6.41309C45.0635 6.41764 45.1182 6.41992 45.1729 6.41992C45.2822 6.41992 45.3848 6.39941 45.4805 6.3584C45.6172 6.3584 45.7516 6.35612 45.8838 6.35156C46.0205 6.34701 46.1572 6.34473 46.2939 6.34473C46.4124 6.34473 46.5309 6.34928 46.6494 6.3584C46.7679 6.36751 46.8841 6.38346 46.998 6.40625C47.0391 6.39258 47.0846 6.38574 47.1348 6.38574C47.1895 6.38574 47.2441 6.39258 47.2988 6.40625C47.3581 6.41536 47.415 6.41536 47.4697 6.40625C47.4743 6.45638 47.4857 6.49967 47.5039 6.53613C47.5267 6.56803 47.5381 6.60677 47.5381 6.65234ZM27.6284 24.1992C27.6284 24.263 27.6261 24.3268 27.6216 24.3906C27.617 24.4544 27.6102 24.5182 27.6011 24.582C27.5692 24.6276 27.5373 24.6686 27.5054 24.7051C27.478 24.737 27.4598 24.778 27.4507 24.8281C27.4006 24.8646 27.3436 24.9147 27.2798 24.9785C27.2205 25.0423 27.1955 25.1061 27.2046 25.1699H27.1089C27.0542 25.252 26.9904 25.3226 26.9175 25.3818C26.8446 25.4411 26.7671 25.498 26.6851 25.5527L26.4458 25.71C26.3683 25.7601 26.2954 25.8193 26.2271 25.8877C26.1906 25.8923 26.161 25.8991 26.1382 25.9082C26.1154 25.9173 26.0858 25.9196 26.0493 25.915C25.908 26.0062 25.7599 26.0859 25.605 26.1543C25.4546 26.2227 25.3019 26.291 25.147 26.3594C24.9966 26.4232 24.8462 26.4915 24.6958 26.5645C24.5454 26.6374 24.4019 26.7217 24.2651 26.8174C24.2515 26.8128 24.2332 26.8105 24.2104 26.8105C24.1694 26.8105 24.1284 26.8174 24.0874 26.8311C24.0464 26.8402 24.0054 26.8447 23.9644 26.8447C23.9461 26.8447 23.9211 26.8424 23.8892 26.8379C23.8618 26.8333 23.8413 26.8265 23.8276 26.8174C23.8049 26.8037 23.7843 26.7832 23.7661 26.7559C23.7479 26.7285 23.7342 26.6989 23.7251 26.667C23.716 26.6305 23.7091 26.5964 23.7046 26.5645C23.7 26.5326 23.6978 26.5052 23.6978 26.4824C23.6978 26.4551 23.7 26.4255 23.7046 26.3936C23.7091 26.3617 23.716 26.332 23.7251 26.3047C23.8573 26.2956 23.9894 26.2614 24.1216 26.2021C24.2583 26.1429 24.3882 26.0859 24.5112 26.0312C24.5431 26.0176 24.5682 26.0016 24.5864 25.9834C24.6092 25.9606 24.632 25.9424 24.6548 25.9287C24.6776 25.9105 24.7026 25.8945 24.73 25.8809C24.7573 25.8672 24.7915 25.8604 24.8325 25.8604H24.853C25.1401 25.7282 25.4204 25.5846 25.6938 25.4297C25.9718 25.2747 26.2476 25.1175 26.521 24.958C26.5347 24.917 26.5552 24.876 26.5825 24.835C26.6144 24.7939 26.644 24.7552 26.6714 24.7188C26.6987 24.6777 26.7238 24.6367 26.7466 24.5957C26.7694 24.5547 26.7808 24.5137 26.7808 24.4727C26.7808 24.3906 26.742 24.3223 26.6646 24.2676H26.6372C26.5825 24.2676 26.5347 24.2607 26.4937 24.2471C26.4526 24.2288 26.4139 24.2129 26.3774 24.1992C26.341 24.181 26.3 24.1673 26.2544 24.1582C26.2088 24.1445 26.1564 24.14 26.0972 24.1445C26.0744 24.1263 26.0379 24.1104 25.9878 24.0967C25.9377 24.083 25.8966 24.0762 25.8647 24.0762C25.7007 24.0762 25.5389 24.0876 25.3794 24.1104C25.2199 24.1286 25.0604 24.14 24.9009 24.1445C24.8599 24.1673 24.8211 24.1878 24.7847 24.2061C24.7482 24.2243 24.7049 24.2334 24.6548 24.2334C24.632 24.2334 24.6115 24.2334 24.5933 24.2334C24.575 24.2288 24.5545 24.2243 24.5317 24.2197C24.4451 24.2562 24.3472 24.2881 24.2378 24.3154C24.1284 24.3382 24.019 24.3678 23.9097 24.4043C23.8049 24.4362 23.7069 24.4772 23.6157 24.5273C23.5246 24.5775 23.4539 24.6458 23.4038 24.7324C23.4038 24.7552 23.4084 24.7757 23.4175 24.7939C23.4266 24.8076 23.4312 24.8258 23.4312 24.8486V24.876C23.4038 24.9033 23.3856 24.9352 23.3765 24.9717C23.3674 25.0036 23.3605 25.0378 23.356 25.0742C23.3514 25.1061 23.3446 25.1403 23.3354 25.1768C23.3309 25.2087 23.3149 25.2406 23.2876 25.2725C23.3058 25.3408 23.3149 25.416 23.3149 25.498C23.3149 25.5892 23.3081 25.6803 23.2944 25.7715C23.2853 25.8626 23.2808 25.9538 23.2808 26.0449C23.2808 26.1315 23.2899 26.209 23.3081 26.2773C23.2808 26.3047 23.2694 26.3457 23.2739 26.4004C23.2785 26.4551 23.2671 26.4961 23.2397 26.5234C23.2397 26.5599 23.2489 26.585 23.2671 26.5986C23.2899 26.6123 23.3035 26.6351 23.3081 26.667C23.2899 26.7445 23.2808 26.8288 23.2808 26.9199C23.2808 27.0521 23.2944 27.1865 23.3218 27.3232C23.3537 27.46 23.3901 27.5944 23.4312 27.7266C23.5041 27.7038 23.5815 27.6855 23.6636 27.6719C23.7502 27.6536 23.8322 27.6445 23.9097 27.6445C23.9233 27.6445 23.937 27.6468 23.9507 27.6514C23.9644 27.6514 23.978 27.6514 23.9917 27.6514C24.0008 27.7015 24.019 27.7471 24.0464 27.7881C24.0737 27.8291 24.0988 27.8747 24.1216 27.9248C24.0988 27.9567 24.0783 27.9818 24.0601 28C24.0464 28.0228 24.0396 28.0524 24.0396 28.0889C23.9757 28.0934 23.9233 28.1094 23.8823 28.1367C23.8413 28.1686 23.7957 28.2028 23.7456 28.2393H23.7183C23.6408 28.2393 23.577 28.2529 23.5269 28.2803C23.4767 28.3122 23.4198 28.3464 23.356 28.3828C23.3013 28.36 23.2466 28.3486 23.1919 28.3486C23.1326 28.3486 23.0734 28.36 23.0142 28.3828C22.9412 28.3509 22.882 28.3008 22.8364 28.2324C22.7909 28.1686 22.7521 28.0957 22.7202 28.0137C22.6883 27.9362 22.6587 27.8564 22.6313 27.7744C22.6086 27.6924 22.5812 27.6172 22.5493 27.5488V27.4395C22.5493 27.3346 22.5402 27.2344 22.522 27.1387C22.5083 27.0384 22.5015 26.9359 22.5015 26.8311C22.5015 26.79 22.5037 26.7467 22.5083 26.7012C22.5174 26.6556 22.5311 26.6123 22.5493 26.5713C22.5402 26.5303 22.5356 26.4915 22.5356 26.4551V26.3252C22.5356 26.1885 22.5402 26.0518 22.5493 25.915C22.563 25.7783 22.5698 25.6416 22.5698 25.5049C22.5698 25.4046 22.563 25.3021 22.5493 25.1973C22.5265 25.2064 22.506 25.2155 22.4878 25.2246C22.4696 25.2337 22.4491 25.2383 22.4263 25.2383C22.4035 25.2383 22.3807 25.236 22.3579 25.2314C22.3397 25.2269 22.3215 25.2223 22.3032 25.2178C22.2576 25.1768 22.2257 25.1266 22.2075 25.0674C22.1893 25.0081 22.1642 24.9535 22.1323 24.9033C22.1323 24.8167 22.146 24.7461 22.1733 24.6914C22.1961 24.6322 22.2257 24.5798 22.2622 24.5342C22.2987 24.484 22.3351 24.4362 22.3716 24.3906C22.4126 24.3451 22.4468 24.2881 22.4741 24.2197H22.5015C22.5744 24.2197 22.6473 24.1969 22.7202 24.1514C22.7931 24.1012 22.8752 24.0762 22.9663 24.0762C22.9982 24.0352 23.0415 24.001 23.0962 23.9736C23.1509 23.9417 23.2078 23.9167 23.2671 23.8984C23.3309 23.8802 23.3924 23.8688 23.4517 23.8643C23.5155 23.8551 23.5747 23.8506 23.6294 23.8506C23.6476 23.8187 23.675 23.7982 23.7114 23.7891C23.7479 23.7754 23.7843 23.764 23.8208 23.7549C23.8618 23.7412 23.8983 23.7298 23.9302 23.7207C23.9666 23.707 23.9963 23.6842 24.019 23.6523C24.0555 23.6615 24.0897 23.666 24.1216 23.666C24.1808 23.666 24.2378 23.6592 24.2925 23.6455C24.3472 23.6273 24.4019 23.609 24.4565 23.5908C24.5112 23.568 24.5659 23.5475 24.6206 23.5293C24.6799 23.5111 24.7414 23.502 24.8052 23.502C24.828 23.502 24.8507 23.5042 24.8735 23.5088C24.8963 23.5088 24.9191 23.5088 24.9419 23.5088C24.9784 23.5088 24.9989 23.4951 25.0034 23.4678C25.0125 23.4404 25.0285 23.4199 25.0513 23.4062C25.0649 23.4108 25.09 23.4131 25.1265 23.4131C25.2176 23.4131 25.3065 23.4062 25.3931 23.3926C25.4797 23.3743 25.5685 23.3652 25.6597 23.3652C25.7007 23.3652 25.7417 23.3675 25.7827 23.3721C25.8237 23.3766 25.8647 23.388 25.9058 23.4062C25.9149 23.3926 25.924 23.3812 25.9331 23.3721C25.9422 23.363 25.9491 23.3516 25.9536 23.3379C26.1769 23.3516 26.3866 23.3971 26.5825 23.4746C26.783 23.5521 26.9904 23.6204 27.2046 23.6797C27.2319 23.7207 27.2638 23.7572 27.3003 23.7891L27.4165 23.8848C27.4575 23.9167 27.4963 23.9486 27.5327 23.9805C27.5692 24.0124 27.6011 24.0511 27.6284 24.0967V24.1992ZM36.5972 26.8105C36.5881 26.8789 36.563 26.9313 36.522 26.9678C36.4855 27.0042 36.4422 27.0384 36.3921 27.0703C36.3693 27.0658 36.3465 27.0635 36.3237 27.0635C36.3055 27.0589 36.285 27.0566 36.2622 27.0566C36.1209 27.0521 35.9865 27.0703 35.8589 27.1113C35.7358 27.1523 35.6082 27.182 35.4761 27.2002C35.4305 27.2093 35.3872 27.2139 35.3462 27.2139C35.3097 27.2093 35.271 27.2116 35.23 27.2207C35.0841 27.2435 34.9292 27.2617 34.7651 27.2754C34.6011 27.2891 34.437 27.3073 34.2729 27.3301C34.1089 27.3483 33.9471 27.3734 33.7876 27.4053C33.6326 27.4326 33.4868 27.4736 33.3501 27.5283C33.3364 27.5192 33.3228 27.5101 33.3091 27.501C33.2954 27.4873 33.2795 27.4805 33.2612 27.4805C33.2157 27.4805 33.1724 27.4873 33.1313 27.501C33.0903 27.5146 33.0493 27.5192 33.0083 27.5146C32.9627 27.542 32.9126 27.5625 32.8579 27.5762C32.8078 27.5853 32.7554 27.5944 32.7007 27.6035C32.6506 27.6081 32.6004 27.6172 32.5503 27.6309C32.5002 27.6445 32.4523 27.6696 32.4067 27.7061C32.3703 27.6878 32.3247 27.6787 32.27 27.6787C32.2199 27.6742 32.1857 27.6559 32.1675 27.624C32.0627 27.6742 31.951 27.7061 31.8325 27.7197C31.7186 27.7334 31.6024 27.738 31.4839 27.7334C31.4064 27.7288 31.3175 27.7174 31.2173 27.6992C31.117 27.681 31.0168 27.6559 30.9165 27.624C30.8162 27.5876 30.7228 27.5465 30.6362 27.501C30.5496 27.4508 30.4836 27.3916 30.438 27.3232C30.4061 27.2777 30.3833 27.2275 30.3696 27.1729C30.356 27.1182 30.3241 27.0771 30.2739 27.0498C30.2876 26.945 30.3035 26.8424 30.3218 26.7422C30.34 26.6419 30.3582 26.5394 30.3765 26.4346C30.4676 26.3571 30.5542 26.2751 30.6362 26.1885C30.7183 26.1019 30.7957 26.0107 30.8687 25.915C30.9552 25.874 31.035 25.8239 31.1079 25.7646C31.1854 25.7054 31.2606 25.6462 31.3335 25.5869C31.411 25.5231 31.4862 25.4616 31.5591 25.4023C31.6366 25.3431 31.7186 25.2907 31.8052 25.2451C31.8188 25.2132 31.8371 25.1882 31.8599 25.1699C31.8872 25.1471 31.9146 25.1266 31.9419 25.1084C31.9692 25.0856 31.9943 25.0628 32.0171 25.04C32.0399 25.0127 32.0558 24.9808 32.0649 24.9443C32.2244 24.8486 32.3634 24.7279 32.4819 24.582C32.6004 24.4362 32.6779 24.2721 32.7144 24.0898C32.6369 24.026 32.548 23.985 32.4478 23.9668C32.3521 23.944 32.2518 23.9281 32.147 23.9189C32.0558 23.9144 31.9601 23.9144 31.8599 23.9189C31.7642 23.9235 31.6662 23.9212 31.5659 23.9121C31.4657 23.944 31.3608 23.9645 31.2515 23.9736C31.1466 23.9827 31.0418 23.9919 30.937 24.001C30.8322 24.0055 30.7274 24.0192 30.6226 24.042C30.5223 24.0602 30.4243 24.0967 30.3286 24.1514C30.3104 24.1514 30.2922 24.1491 30.2739 24.1445C30.2603 24.14 30.2443 24.1377 30.2261 24.1377C30.0802 24.1331 29.9435 24.1628 29.8159 24.2266C29.6883 24.2858 29.563 24.3451 29.4399 24.4043C29.4308 24.4225 29.4263 24.4362 29.4263 24.4453C29.4263 24.4727 29.4308 24.5 29.4399 24.5273C29.4536 24.5501 29.4604 24.5752 29.4604 24.6025C29.4559 24.6071 29.4536 24.6117 29.4536 24.6162C29.4536 24.6208 29.4513 24.6253 29.4468 24.6299C29.4422 24.6527 29.4354 24.6732 29.4263 24.6914C29.4217 24.7096 29.4149 24.7301 29.4058 24.7529C29.3556 24.8988 29.3283 25.0423 29.3237 25.1836C29.3192 25.3021 29.3192 25.4183 29.3237 25.5322C29.3283 25.6462 29.3283 25.7624 29.3237 25.8809C29.3146 26.0267 29.2918 26.1634 29.2554 26.291C29.2782 26.4004 29.2987 26.5166 29.3169 26.6396C29.3351 26.7581 29.3579 26.8766 29.3853 26.9951C29.4126 27.1136 29.4445 27.2298 29.481 27.3438C29.522 27.4531 29.5744 27.5579 29.6382 27.6582C29.6336 27.6673 29.6359 27.6742 29.645 27.6787C29.6541 27.6833 29.6632 27.6855 29.6724 27.6855H29.7271C29.7498 27.6855 29.759 27.6947 29.7544 27.7129C29.7635 27.7266 29.7703 27.7402 29.7749 27.7539C29.7795 27.763 29.7886 27.7721 29.8022 27.7812C29.8114 27.7949 29.8114 27.8132 29.8022 27.8359C29.7977 27.9271 29.7749 28.0114 29.7339 28.0889C29.6929 28.1663 29.6678 28.2507 29.6587 28.3418C29.604 28.3555 29.5539 28.3623 29.5083 28.3623C29.4308 28.3577 29.3625 28.335 29.3032 28.2939C29.244 28.2575 29.1893 28.2119 29.1392 28.1572C29.089 28.1025 29.0412 28.0479 28.9956 27.9932C28.95 27.9339 28.8999 27.8838 28.8452 27.8428C28.8133 27.7152 28.7814 27.5739 28.7495 27.4189C28.7222 27.264 28.6743 27.1318 28.606 27.0225C28.6242 26.9814 28.6333 26.9313 28.6333 26.8721C28.6379 26.7809 28.6287 26.6921 28.606 26.6055C28.5877 26.5143 28.5832 26.4232 28.5923 26.332C28.5923 26.2819 28.5968 26.2318 28.606 26.1816C28.6196 26.1315 28.6287 26.0814 28.6333 26.0312C28.6379 25.9538 28.6287 25.8786 28.606 25.8057C28.5877 25.7327 28.5809 25.6576 28.5854 25.5801C28.59 25.5436 28.5968 25.5094 28.606 25.4775C28.6196 25.4411 28.6379 25.4092 28.6606 25.3818C28.6379 25.3271 28.631 25.2747 28.6401 25.2246C28.6447 25.1471 28.6538 25.0742 28.6675 25.0059C28.6812 24.9375 28.6903 24.8691 28.6948 24.8008C28.6948 24.7643 28.6925 24.7301 28.688 24.6982C28.6834 24.6618 28.6766 24.6276 28.6675 24.5957L28.606 24.5752C28.5786 24.5752 28.5513 24.582 28.5239 24.5957C28.5011 24.6094 28.4806 24.6253 28.4624 24.6436C28.4442 24.6618 28.4282 24.6777 28.4146 24.6914C28.4009 24.7005 28.3872 24.7051 28.3735 24.7051C28.3644 24.7051 28.353 24.7051 28.3394 24.7051C28.3302 24.7005 28.3211 24.6982 28.312 24.6982C28.3029 24.6982 28.2847 24.7074 28.2573 24.7256C28.2345 24.7438 28.2049 24.7643 28.1685 24.7871C28.1366 24.8053 28.1047 24.8258 28.0728 24.8486C28.0409 24.8669 28.0158 24.8783 27.9976 24.8828C27.9474 24.8737 27.9064 24.8577 27.8745 24.835C27.8472 24.8076 27.8198 24.7826 27.7925 24.7598C27.7697 24.7324 27.7446 24.7096 27.7173 24.6914C27.6899 24.6686 27.6558 24.6595 27.6147 24.6641C27.6011 24.6367 27.5942 24.6071 27.5942 24.5752C27.5897 24.5433 27.5897 24.5114 27.5942 24.4795V24.3701C27.6261 24.3109 27.6694 24.263 27.7241 24.2266C27.7743 24.1855 27.8289 24.1514 27.8882 24.124L28.0659 24.042C28.1252 24.0146 28.1799 23.9805 28.23 23.9395H28.2915C28.3735 23.944 28.4442 23.9281 28.5034 23.8916C28.5672 23.8551 28.6265 23.8141 28.6812 23.7686C28.7358 23.7184 28.7905 23.6683 28.8452 23.6182C28.9045 23.568 28.9683 23.5293 29.0366 23.502C29.0868 23.5247 29.1392 23.5452 29.1938 23.5635C29.2485 23.5771 29.3055 23.5863 29.3647 23.5908C29.424 23.5908 29.4855 23.5817 29.5493 23.5635C29.6131 23.5452 29.6632 23.5111 29.6997 23.4609C29.7225 23.4701 29.7407 23.4769 29.7544 23.4814C29.7726 23.4814 29.7931 23.4814 29.8159 23.4814C29.8843 23.486 29.9526 23.4769 30.021 23.4541C30.0894 23.4268 30.1554 23.3949 30.2192 23.3584C30.3104 23.363 30.3993 23.3584 30.4858 23.3447C30.577 23.3265 30.6659 23.3083 30.7524 23.29C30.8436 23.2718 30.9325 23.2559 31.019 23.2422C31.1102 23.224 31.2013 23.2171 31.2925 23.2217C31.4429 23.2262 31.591 23.2126 31.7368 23.1807C31.8826 23.1488 32.0308 23.1374 32.1812 23.1465C32.286 23.151 32.3885 23.1602 32.4888 23.1738C32.5936 23.1829 32.6984 23.1852 32.8032 23.1807C32.8625 23.208 32.9149 23.2331 32.9604 23.2559C33.0106 23.2741 33.0721 23.2786 33.145 23.2695C33.2909 23.3926 33.423 23.5361 33.5415 23.7002V23.8164C33.5369 23.9212 33.5187 24.0238 33.4868 24.124C33.4549 24.2243 33.4162 24.3245 33.3706 24.4248C33.3296 24.5205 33.284 24.6162 33.2339 24.7119C33.1838 24.8031 33.1359 24.8942 33.0903 24.9854C32.7941 25.2542 32.4979 25.5208 32.2017 25.7852C31.9054 26.0495 31.6001 26.3047 31.2856 26.5508C31.2765 26.5964 31.2629 26.6374 31.2446 26.6738C31.231 26.7103 31.2218 26.749 31.2173 26.79C31.2173 26.8128 31.2196 26.8311 31.2241 26.8447C31.256 26.8538 31.2834 26.8721 31.3062 26.8994C31.3335 26.9222 31.3426 26.9541 31.3335 26.9951H31.395C31.4178 26.9951 31.4292 27.0042 31.4292 27.0225L31.5386 27.0293C31.7118 27.0384 31.8849 27.0339 32.0581 27.0156C32.2313 26.9974 32.4045 26.9769 32.5776 26.9541C32.7554 26.9313 32.9308 26.9108 33.104 26.8926C33.2772 26.8698 33.4504 26.8561 33.6235 26.8516C33.6646 26.8379 33.7078 26.8265 33.7534 26.8174C33.799 26.8083 33.84 26.79 33.8765 26.7627H33.897C33.9289 26.7627 33.9517 26.7718 33.9653 26.79C33.9836 26.8083 34.0086 26.8197 34.0405 26.8242C34.0633 26.8242 34.0861 26.8197 34.1089 26.8105C34.1362 26.8014 34.1636 26.7946 34.1909 26.79C34.2547 26.7718 34.3208 26.7604 34.3892 26.7559C34.4621 26.7513 34.5327 26.7445 34.6011 26.7354C34.8654 26.7126 35.1274 26.6989 35.3872 26.6943C35.647 26.6852 35.9067 26.651 36.1665 26.5918C36.1893 26.6237 36.2212 26.6465 36.2622 26.6602C36.3032 26.6693 36.3465 26.6807 36.3921 26.6943C36.4377 26.7035 36.4787 26.7148 36.5151 26.7285C36.5562 26.7422 36.5835 26.7695 36.5972 26.8105ZM38.9829 24.042C38.9556 24.083 38.9396 24.1286 38.9351 24.1787C38.9305 24.2288 38.9282 24.2744 38.9282 24.3154C38.9282 24.3701 38.9282 24.4248 38.9282 24.4795C38.9328 24.5296 38.9351 24.5798 38.9351 24.6299V24.7324C38.9259 24.7643 38.9123 24.7962 38.894 24.8281C38.8758 24.86 38.8621 24.8919 38.853 24.9238C38.7892 25.0924 38.7573 25.2611 38.7573 25.4297V25.4434C38.7345 25.498 38.7118 25.5482 38.689 25.5938C38.6707 25.6393 38.6525 25.6849 38.6343 25.7305C38.616 25.7715 38.6024 25.8171 38.5933 25.8672C38.5841 25.9128 38.5819 25.9674 38.5864 26.0312C38.5226 26.1908 38.4383 26.3366 38.3335 26.4688C38.2287 26.5964 38.1261 26.7285 38.0259 26.8652C37.9302 26.9017 37.8413 26.9495 37.7593 27.0088C37.6818 27.068 37.6066 27.1341 37.5337 27.207C37.3924 27.2526 37.2534 27.305 37.1167 27.3643C36.98 27.4235 36.8569 27.5033 36.7476 27.6035C36.661 27.6126 36.5744 27.6263 36.4878 27.6445C36.4012 27.6628 36.3169 27.6901 36.2349 27.7266H36.1528C36.1118 27.7266 36.0822 27.7174 36.064 27.6992C36.0047 27.7311 35.9432 27.7539 35.8794 27.7676C35.8156 27.7767 35.7518 27.7812 35.688 27.7812C35.606 27.7812 35.5239 27.7767 35.4419 27.7676C35.3644 27.7539 35.2847 27.7402 35.2026 27.7266C35.1571 27.6628 35.0933 27.6149 35.0112 27.583C34.9292 27.5465 34.8563 27.5124 34.7925 27.4805C34.6603 27.2982 34.5646 27.1227 34.5054 26.9541C34.4461 26.7809 34.3846 26.5872 34.3208 26.373C34.3299 26.3092 34.3459 26.2477 34.3687 26.1885C34.3914 26.1247 34.4006 26.0563 34.396 25.9834C34.478 25.7464 34.5851 25.5322 34.7173 25.3408C34.854 25.1449 35.009 24.958 35.1821 24.7803C35.1821 24.7529 35.1867 24.7301 35.1958 24.7119C35.2095 24.6937 35.2118 24.6663 35.2026 24.6299C35.2072 24.6344 35.2163 24.6367 35.23 24.6367C35.2664 24.6367 35.2892 24.6276 35.2983 24.6094C35.3075 24.5866 35.3097 24.5615 35.3052 24.5342C35.4692 24.4294 35.6174 24.3086 35.7495 24.1719C35.8862 24.0352 36.0412 23.9212 36.2144 23.8301C36.228 23.7891 36.2508 23.7549 36.2827 23.7275C36.3146 23.7002 36.3397 23.6683 36.3579 23.6318C36.5037 23.5908 36.6359 23.5293 36.7544 23.4473C36.8729 23.3652 36.9982 23.2923 37.1304 23.2285C37.2033 23.1875 37.2716 23.1602 37.3354 23.1465C37.4038 23.1283 37.4767 23.11 37.5542 23.0918C37.5815 23.0827 37.6066 23.0758 37.6294 23.0713C37.6522 23.0667 37.6772 23.0645 37.7046 23.0645C37.7866 23.0645 37.8664 23.0804 37.9438 23.1123C38.0213 23.1396 38.1011 23.1533 38.1831 23.1533C38.2059 23.1533 38.2241 23.1533 38.2378 23.1533C38.256 23.1488 38.2743 23.1442 38.2925 23.1396C38.37 23.2354 38.4679 23.3083 38.5864 23.3584C38.6138 23.4268 38.6457 23.486 38.6821 23.5361C38.7231 23.5863 38.7642 23.6364 38.8052 23.6865C38.8462 23.7321 38.8826 23.7845 38.9146 23.8438C38.951 23.8984 38.9738 23.9645 38.9829 24.042ZM38.2993 24.3975C38.2993 24.3747 38.297 24.3542 38.2925 24.3359C38.2469 24.3223 38.2036 24.304 38.1626 24.2812C38.1216 24.2585 38.076 24.2471 38.0259 24.2471C37.994 24.2471 37.9621 24.2539 37.9302 24.2676C37.9256 24.2357 37.9119 24.2129 37.8892 24.1992C37.8709 24.1855 37.8481 24.1742 37.8208 24.165C37.798 24.1514 37.7729 24.1423 37.7456 24.1377C37.7228 24.1286 37.7023 24.1149 37.6841 24.0967C37.6704 24.0602 37.6545 24.0238 37.6362 23.9873C37.6226 23.9463 37.5952 23.9167 37.5542 23.8984C37.5132 23.9395 37.4653 23.9736 37.4106 24.001C37.356 24.0238 37.299 24.0465 37.2397 24.0693C37.1851 24.0921 37.1304 24.1195 37.0757 24.1514C37.0256 24.1833 36.9823 24.222 36.9458 24.2676H36.8228C36.7954 24.3177 36.7567 24.3564 36.7065 24.3838C36.6564 24.4066 36.6131 24.4408 36.5767 24.4863C36.5037 24.5228 36.4354 24.5684 36.3716 24.623C36.3123 24.6732 36.2531 24.7279 36.1938 24.7871C36.1346 24.8418 36.0754 24.8988 36.0161 24.958C35.9614 25.0173 35.9022 25.0719 35.8384 25.1221C35.7791 25.2497 35.7131 25.3613 35.6401 25.457C35.5718 25.5482 35.5057 25.6416 35.4419 25.7373C35.3826 25.833 35.3302 25.9378 35.2847 26.0518C35.2437 26.1611 35.2231 26.2979 35.2231 26.4619V26.5303C35.2231 26.5531 35.2254 26.5758 35.23 26.5986C35.2892 26.6624 35.3371 26.7308 35.3735 26.8037C35.4146 26.8766 35.4806 26.929 35.5718 26.9609C35.6629 26.9974 35.7586 27.0133 35.8589 27.0088C35.9637 27.0042 36.064 27.0156 36.1597 27.043C36.3784 27.002 36.5881 26.9359 36.7886 26.8447C36.9937 26.749 37.1873 26.6351 37.3696 26.5029C37.397 26.4801 37.4289 26.4574 37.4653 26.4346C37.5018 26.4072 37.5314 26.3799 37.5542 26.3525C37.577 26.3298 37.5952 26.3047 37.6089 26.2773C37.6271 26.25 37.6453 26.2249 37.6636 26.2021C37.7 26.1429 37.741 26.0837 37.7866 26.0244C37.8322 25.9652 37.88 25.9105 37.9302 25.8604C37.953 25.7601 37.9826 25.6644 38.019 25.5732C38.0555 25.4775 38.092 25.3841 38.1284 25.293C38.1649 25.2018 38.1945 25.1084 38.2173 25.0127C38.2446 24.917 38.2583 24.8167 38.2583 24.7119C38.2583 24.6891 38.256 24.6641 38.2515 24.6367C38.2515 24.6094 38.2492 24.5843 38.2446 24.5615C38.2811 24.5114 38.2993 24.4567 38.2993 24.3975ZM44.0483 24.6299C44.0483 24.6755 44.0324 24.7051 44.0005 24.7188C43.9686 24.7324 43.9526 24.7598 43.9526 24.8008C43.9526 24.8145 43.9572 24.8258 43.9663 24.835C43.9754 24.8441 43.98 24.8577 43.98 24.876V24.9033C43.9253 25.1676 43.8455 25.3978 43.7407 25.5938C43.6405 25.7897 43.522 25.9697 43.3853 26.1338C43.2485 26.2979 43.0936 26.4528 42.9204 26.5986C42.7518 26.7445 42.5695 26.8971 42.3735 27.0566C42.3188 27.1022 42.2619 27.1478 42.2026 27.1934C42.1479 27.2389 42.0955 27.2868 42.0454 27.3369L41.895 27.4805C41.8905 27.485 41.8654 27.4964 41.8198 27.5146C41.7743 27.5283 41.7469 27.5374 41.7378 27.542C41.674 27.5693 41.6056 27.6012 41.5327 27.6377C41.4644 27.6742 41.4051 27.7197 41.355 27.7744C41.2638 27.7744 41.1864 27.7881 41.1226 27.8154C41.0588 27.8428 40.9881 27.8792 40.9106 27.9248C40.8879 27.9248 40.8674 27.9202 40.8491 27.9111C40.8354 27.902 40.8195 27.8929 40.8013 27.8838C40.783 27.8747 40.7625 27.8701 40.7397 27.8701C40.7215 27.8656 40.6965 27.8678 40.6646 27.877C40.6099 27.7858 40.5506 27.7083 40.4868 27.6445C40.423 27.5807 40.3364 27.542 40.2271 27.5283C40.2134 27.4508 40.1815 27.3916 40.1313 27.3506C40.0812 27.305 40.0311 27.2572 39.981 27.207C39.9718 27.1797 39.965 27.1478 39.9604 27.1113C39.9559 27.0749 39.9468 27.0407 39.9331 27.0088C39.9194 26.9769 39.9012 26.9495 39.8784 26.9268C39.8556 26.904 39.8237 26.8926 39.7827 26.8926C39.7782 26.8652 39.7896 26.8516 39.8169 26.8516C39.8442 26.8516 39.8579 26.8402 39.8579 26.8174C39.8579 26.79 39.8534 26.7627 39.8442 26.7354C39.8351 26.708 39.8306 26.6784 39.8306 26.6465C39.8306 26.6237 39.8328 26.6032 39.8374 26.585C39.842 26.5667 39.8488 26.5462 39.8579 26.5234C39.8442 26.4004 39.8374 26.2751 39.8374 26.1475C39.8374 25.9014 39.8534 25.6598 39.8853 25.4229C39.9217 25.1813 39.9399 24.9375 39.9399 24.6914C39.9399 24.582 39.9331 24.4727 39.9194 24.3633C39.9103 24.2539 39.8898 24.1468 39.8579 24.042C39.7531 24.0648 39.6483 24.0921 39.5435 24.124C39.4386 24.1514 39.3407 24.1901 39.2495 24.2402C39.1994 24.2083 39.147 24.1901 39.0923 24.1855C39.033 24.1764 38.9761 24.1628 38.9214 24.1445C38.8895 24.0807 38.8735 24.0146 38.8735 23.9463C38.8735 23.8825 38.8849 23.821 38.9077 23.7617L38.9761 23.584C39.0854 23.5612 39.1948 23.527 39.3042 23.4814C39.409 23.4359 39.5161 23.3949 39.6255 23.3584C39.6619 23.3493 39.7075 23.3379 39.7622 23.3242C39.8215 23.3105 39.8625 23.2992 39.8853 23.29C39.9172 23.2764 39.9377 23.2513 39.9468 23.2148C39.9604 23.1738 39.9787 23.1396 40.0015 23.1123H40.1177C40.145 23.1123 40.1746 23.1146 40.2065 23.1191C40.2384 23.1191 40.2681 23.126 40.2954 23.1396C40.4595 23.0986 40.6235 23.0736 40.7876 23.0645C40.9517 23.0508 41.1203 23.0326 41.2935 23.0098C41.3117 23.0098 41.339 23.0075 41.3755 23.0029L41.4917 22.9824C41.5327 22.9733 41.5692 22.9665 41.6011 22.9619C41.6375 22.9528 41.6626 22.9482 41.6763 22.9482C41.6899 22.9482 41.6968 22.9551 41.6968 22.9688H41.813C42.009 22.9688 42.2004 22.9938 42.3872 23.0439L42.9478 23.1943C43.0252 23.2581 43.1027 23.3197 43.1802 23.3789C43.2576 23.4382 43.3442 23.4906 43.4399 23.5361C43.4627 23.609 43.4969 23.6683 43.5425 23.7139C43.5926 23.7549 43.6473 23.8005 43.7065 23.8506C43.7293 23.9098 43.759 23.9736 43.7954 24.042C43.8364 24.1058 43.8752 24.1719 43.9116 24.2402C43.9481 24.3086 43.98 24.377 44.0073 24.4453C44.0347 24.5091 44.0483 24.5706 44.0483 24.6299ZM43.4126 24.7324C43.3625 24.6276 43.3146 24.5182 43.269 24.4043C43.2235 24.2904 43.1665 24.1878 43.0981 24.0967C43.0161 24.0739 42.9318 24.0465 42.8452 24.0146C42.7632 23.9782 42.7062 23.9167 42.6743 23.8301C42.6652 23.8346 42.6493 23.8369 42.6265 23.8369C42.5854 23.8369 42.549 23.821 42.5171 23.7891C42.4852 23.7572 42.4487 23.7367 42.4077 23.7275C42.3713 23.723 42.3211 23.7161 42.2573 23.707C42.1981 23.6979 42.1343 23.6911 42.0659 23.6865C41.9976 23.682 41.9292 23.6774 41.8608 23.6729C41.797 23.6683 41.7469 23.666 41.7104 23.666C41.674 23.666 41.6353 23.6683 41.5942 23.6729C41.5578 23.6729 41.519 23.6751 41.478 23.6797C41.4416 23.6797 41.4188 23.6865 41.4097 23.7002C41.4006 23.7093 41.3823 23.7184 41.355 23.7275C41.3322 23.7184 41.3071 23.7139 41.2798 23.7139H41.1978C41.1021 23.7139 41.0063 23.7298 40.9106 23.7617C40.8195 23.7891 40.7284 23.8278 40.6372 23.8779V23.9053C40.6372 23.9417 40.6532 23.9622 40.6851 23.9668C40.717 23.9714 40.7352 23.9896 40.7397 24.0215C40.717 24.0215 40.6987 24.0238 40.6851 24.0283C40.6714 24.0283 40.6646 24.0443 40.6646 24.0762C40.6646 24.1217 40.6691 24.1719 40.6782 24.2266C40.6919 24.2812 40.6987 24.3359 40.6987 24.3906C40.6987 24.4316 40.6942 24.4795 40.6851 24.5342C40.6759 24.5889 40.6532 24.6322 40.6167 24.6641C40.6623 24.7051 40.6851 24.7598 40.6851 24.8281C40.6851 24.8737 40.6759 24.9215 40.6577 24.9717C40.6395 25.0218 40.6167 25.0651 40.5894 25.1016C40.5802 25.293 40.562 25.4867 40.5347 25.6826C40.5073 25.8786 40.4937 26.0723 40.4937 26.2637C40.4937 26.3594 40.4982 26.4528 40.5073 26.5439C40.521 26.6351 40.5415 26.7262 40.5688 26.8174C40.619 26.8675 40.6714 26.9062 40.7261 26.9336C40.7853 26.9609 40.8468 26.9883 40.9106 27.0156V27.0361C40.9106 27.0498 40.9015 27.0635 40.8833 27.0771C40.8651 27.0908 40.856 27.109 40.856 27.1318C40.856 27.1501 40.8651 27.1592 40.8833 27.1592C41.0747 27.1045 41.2547 27.0384 41.4233 26.9609C41.592 26.8835 41.7492 26.7786 41.895 26.6465C41.9087 26.6328 41.9224 26.626 41.936 26.626C41.9451 26.626 41.9565 26.6283 41.9702 26.6328C41.9884 26.6374 42.0044 26.6419 42.0181 26.6465L42.0112 26.6191C42.0112 26.5918 42.0181 26.5667 42.0317 26.5439C42.05 26.5212 42.0705 26.5007 42.0933 26.4824L42.1616 26.4209C42.1844 26.3981 42.2026 26.3753 42.2163 26.3525C42.2528 26.3434 42.2778 26.3252 42.2915 26.2979C42.3097 26.2705 42.3394 26.2568 42.3804 26.2568C42.3895 26.2067 42.4146 26.1702 42.4556 26.1475C42.4966 26.1201 42.5216 26.0814 42.5308 26.0312C42.6219 25.9811 42.7017 25.9196 42.77 25.8467C42.8429 25.7738 42.909 25.6963 42.9683 25.6143C43.0321 25.5322 43.0913 25.4479 43.146 25.3613C43.2007 25.2702 43.2576 25.1836 43.3169 25.1016V25.0742C43.3169 25.0013 43.3283 24.9421 43.3511 24.8965C43.3784 24.8509 43.3989 24.7962 43.4126 24.7324ZM48.6079 26.8926C48.5897 26.9609 48.5601 27.0179 48.519 27.0635C48.478 27.109 48.4302 27.1501 48.3755 27.1865C48.3254 27.223 48.2707 27.2572 48.2114 27.2891C48.1522 27.3164 48.0952 27.3483 48.0405 27.3848H47.9517C47.7603 27.3848 47.6121 27.3392 47.5073 27.248C47.4071 27.1523 47.3296 27.0361 47.2749 26.8994C47.2202 26.7581 47.1792 26.6077 47.1519 26.4482C47.1291 26.2887 47.0994 26.1429 47.063 26.0107C47.0083 26.0563 46.9627 26.111 46.9263 26.1748C46.8898 26.234 46.8511 26.2933 46.8101 26.3525C46.7736 26.4118 46.7303 26.4665 46.6802 26.5166C46.6346 26.5667 46.5731 26.6009 46.4956 26.6191C46.4819 26.651 46.466 26.6829 46.4478 26.7148C46.4341 26.7467 46.425 26.7809 46.4204 26.8174C46.3201 26.8721 46.229 26.9359 46.147 27.0088C46.0649 27.0817 45.9829 27.1569 45.9009 27.2344C45.8188 27.3118 45.7345 27.387 45.6479 27.46C45.5659 27.5283 45.4725 27.5853 45.3677 27.6309C45.3631 27.6263 45.354 27.624 45.3403 27.624C45.2856 27.624 45.2355 27.6377 45.1899 27.665C45.1444 27.6878 45.0942 27.6992 45.0396 27.6992C45.0031 27.6992 44.9689 27.6924 44.937 27.6787C44.9097 27.665 44.88 27.6491 44.8481 27.6309C44.8208 27.6126 44.7912 27.599 44.7593 27.5898C44.7274 27.5807 44.6932 27.5785 44.6567 27.583C44.6112 27.501 44.5496 27.4258 44.4722 27.3574C44.3993 27.2845 44.3537 27.2025 44.3354 27.1113C44.3263 27.0703 44.3195 27.0293 44.3149 26.9883C44.3149 26.9427 44.3104 26.8971 44.3013 26.8516C44.2876 26.7832 44.2694 26.7148 44.2466 26.6465C44.2238 26.5736 44.2056 26.5007 44.1919 26.4277C44.2147 26.3047 44.2375 26.1702 44.2603 26.0244C44.2785 25.874 44.3013 25.7259 44.3286 25.5801C44.3605 25.4297 44.4015 25.2884 44.4517 25.1562C44.5063 25.0195 44.5747 24.9033 44.6567 24.8076L44.6499 24.7598C44.6499 24.6868 44.6636 24.6185 44.6909 24.5547C44.7183 24.4909 44.7479 24.4294 44.7798 24.3701C44.8117 24.3109 44.839 24.2516 44.8618 24.1924C44.8846 24.1331 44.8892 24.0671 44.8755 23.9941C44.9302 23.9668 44.9871 23.944 45.0464 23.9258C45.1056 23.9076 45.1672 23.8984 45.231 23.8984C45.2902 23.8984 45.3449 23.9076 45.395 23.9258C45.3859 23.9622 45.4019 23.985 45.4429 23.9941V24.0146C45.4429 24.1104 45.4315 24.2038 45.4087 24.2949C45.3859 24.3861 45.3586 24.4772 45.3267 24.5684C45.2948 24.6549 45.2629 24.7438 45.231 24.835C45.2036 24.9215 45.1831 25.0104 45.1694 25.1016C45.1512 25.1061 45.1375 25.1152 45.1284 25.1289C45.1239 25.1426 45.1193 25.1562 45.1147 25.1699C45.1102 25.1836 45.1034 25.195 45.0942 25.2041C45.0851 25.2132 45.0715 25.2178 45.0532 25.2178C45.0259 25.3773 44.9963 25.5368 44.9644 25.6963C44.937 25.8512 44.9233 26.0085 44.9233 26.168C44.9233 26.2637 44.9325 26.3617 44.9507 26.4619C44.9689 26.5622 45.0031 26.6579 45.0532 26.749L45.0806 26.7422C45.1307 26.7422 45.1694 26.7536 45.1968 26.7764C45.2287 26.7992 45.2697 26.8219 45.3198 26.8447C45.3563 26.8356 45.3905 26.8242 45.4224 26.8105C45.4543 26.7923 45.4679 26.7627 45.4634 26.7217C45.5226 26.7171 45.5728 26.7035 45.6138 26.6807C45.6548 26.6533 45.6912 26.6237 45.7231 26.5918L45.8257 26.4961C45.8621 26.4642 45.9054 26.4414 45.9556 26.4277C45.9556 26.4004 45.9624 26.3799 45.9761 26.3662L46.0171 26.3252C46.0308 26.3115 46.0399 26.2979 46.0444 26.2842C46.0535 26.266 46.0558 26.2409 46.0513 26.209C46.106 26.2044 46.147 26.1908 46.1743 26.168C46.2062 26.1452 46.2336 26.1201 46.2563 26.0928C46.2837 26.0609 46.3088 26.029 46.3315 25.9971C46.3543 25.9652 46.384 25.9378 46.4204 25.915C46.4523 25.8467 46.4956 25.7555 46.5503 25.6416C46.6095 25.5277 46.6665 25.4092 46.7212 25.2861C46.7804 25.1631 46.8306 25.0469 46.8716 24.9375C46.9172 24.8236 46.9399 24.737 46.9399 24.6777C46.9399 24.6549 46.9331 24.6344 46.9194 24.6162C46.9103 24.598 46.908 24.5775 46.9126 24.5547V24.5342C46.9491 24.4886 46.981 24.4385 47.0083 24.3838C47.0402 24.3291 47.0721 24.2767 47.104 24.2266C47.1405 24.1764 47.1792 24.1309 47.2202 24.0898C47.2612 24.0488 47.3136 24.0169 47.3774 23.9941C47.4504 24.0169 47.5233 24.0329 47.5962 24.042C47.6737 24.0511 47.7466 24.0693 47.8149 24.0967C47.8195 24.2106 47.8309 24.3428 47.8491 24.4932C47.8674 24.6436 47.8993 24.7712 47.9448 24.876C47.9448 24.9352 47.9425 24.9922 47.938 25.0469C47.938 25.1016 47.938 25.1562 47.938 25.2109C47.938 25.3021 47.9403 25.3955 47.9448 25.4912C47.9539 25.5869 47.9699 25.6758 47.9927 25.7578C47.9608 25.8262 47.9448 25.8991 47.9448 25.9766C47.9448 26.0814 47.9608 26.1816 47.9927 26.2773C48.0246 26.3685 48.0474 26.4665 48.061 26.5713C48.1203 26.6533 48.1978 26.6943 48.2935 26.6943C48.3162 26.6943 48.3345 26.6921 48.3481 26.6875C48.3664 26.6829 48.3846 26.6761 48.4028 26.667C48.4393 26.708 48.4712 26.749 48.4985 26.79C48.5304 26.8265 48.5669 26.8607 48.6079 26.8926ZM50.3101 27.0635C50.2873 27.0999 50.2599 27.1341 50.228 27.166C50.1961 27.1934 50.1665 27.223 50.1392 27.2549C50.1073 27.2686 50.0708 27.2754 50.0298 27.2754C49.9933 27.2754 49.9569 27.2754 49.9204 27.2754C49.8885 27.2708 49.8566 27.2708 49.8247 27.2754C49.7974 27.2754 49.7746 27.2845 49.7563 27.3027C49.7199 27.2936 49.6925 27.2777 49.6743 27.2549C49.6561 27.2275 49.6242 27.2116 49.5786 27.207C49.5604 27.2025 49.5422 27.2025 49.5239 27.207C49.4556 27.1296 49.3918 27.0475 49.3325 26.9609C49.2778 26.8743 49.2254 26.7923 49.1753 26.7148C49.1707 26.5462 49.1571 26.3753 49.1343 26.2021C49.1297 26.1611 49.1229 26.1201 49.1138 26.0791C49.1047 26.0381 49.0978 25.9993 49.0933 25.9629C49.0933 25.9173 49.0955 25.874 49.1001 25.833C49.1092 25.7874 49.116 25.7464 49.1206 25.71C49.1388 25.5778 49.1593 25.4479 49.1821 25.3203C49.2049 25.1927 49.2254 25.0628 49.2437 24.9307C49.2619 24.8122 49.271 24.6891 49.271 24.5615C49.271 24.4294 49.2505 24.3063 49.2095 24.1924L49.2026 24.1582C49.2118 24.1217 49.2209 24.0921 49.23 24.0693C49.2437 24.042 49.2528 24.0124 49.2573 23.9805C49.2664 23.9303 49.255 23.8939 49.2231 23.8711C49.2368 23.8346 49.2596 23.8118 49.2915 23.8027C49.3234 23.7891 49.3416 23.7617 49.3462 23.7207C49.3507 23.7025 49.3507 23.6842 49.3462 23.666C49.3826 23.6523 49.4191 23.641 49.4556 23.6318C49.4966 23.6182 49.5353 23.6159 49.5718 23.625C49.631 23.6341 49.6834 23.6546 49.729 23.6865C49.7746 23.7139 49.8179 23.7458 49.8589 23.7822C49.9318 24.001 49.9614 24.2334 49.9478 24.4795C49.9341 24.721 49.9113 24.9648 49.8794 25.2109C49.8475 25.457 49.827 25.6986 49.8179 25.9355C49.8088 26.168 49.8452 26.3844 49.9272 26.585L49.9409 26.5918C49.9637 26.5964 49.9819 26.5895 49.9956 26.5713C50.0093 26.5485 50.0275 26.5394 50.0503 26.5439C50.0685 26.5531 50.0799 26.5576 50.0845 26.5576C50.1027 26.6488 50.1323 26.7354 50.1733 26.8174C50.2144 26.8994 50.2599 26.9814 50.3101 27.0635ZM56.8452 23.6045C56.827 23.6637 56.7974 23.7184 56.7563 23.7686L56.6401 23.9121C56.6037 23.9577 56.5718 24.0078 56.5444 24.0625C56.5216 24.1126 56.5148 24.1719 56.5239 24.2402C56.5148 24.2402 56.5034 24.2402 56.4897 24.2402C56.4761 24.2357 56.4647 24.2334 56.4556 24.2334C56.3826 24.2334 56.3257 24.2516 56.2847 24.2881C56.2482 24.32 56.1981 24.3473 56.1343 24.3701C56.1252 24.3428 56.1138 24.3177 56.1001 24.2949C56.0864 24.2676 56.0659 24.2493 56.0386 24.2402C55.9292 24.263 55.8198 24.2812 55.7104 24.2949C55.6011 24.304 55.4917 24.3177 55.3823 24.3359C55.3322 24.3451 55.2821 24.3587 55.2319 24.377C55.1818 24.3906 55.1294 24.4043 55.0747 24.418C55.0474 24.4271 55.0177 24.4316 54.9858 24.4316C54.9539 24.4271 54.922 24.4271 54.8901 24.4316C54.7808 24.4362 54.6623 24.4453 54.5347 24.459C54.4071 24.4681 54.2931 24.5023 54.1929 24.5615C54.1473 24.5524 54.0994 24.5456 54.0493 24.541C53.9992 24.5365 53.9491 24.5342 53.8989 24.5342C53.7896 24.5342 53.6688 24.5456 53.5366 24.5684C53.409 24.5866 53.2951 24.6253 53.1948 24.6846C53.172 24.6755 53.147 24.6686 53.1196 24.6641C53.0968 24.6595 53.0695 24.6572 53.0376 24.6572C53.0285 24.6572 53.0216 24.6595 53.0171 24.6641C53.0125 24.6641 53.0057 24.6641 52.9966 24.6641C52.992 24.7051 52.9966 24.7461 53.0103 24.7871C53.0285 24.8236 53.0581 24.8532 53.0991 24.876C53.0809 24.9261 53.0718 24.9808 53.0718 25.04C53.0718 25.1175 53.0763 25.195 53.0854 25.2725C53.0991 25.3499 53.106 25.4274 53.106 25.5049C53.106 25.5915 53.0946 25.6598 53.0718 25.71C53.1174 25.8467 53.1401 25.9925 53.1401 26.1475C53.1401 26.2021 53.1356 26.2568 53.1265 26.3115C53.1219 26.3617 53.1196 26.4163 53.1196 26.4756C53.1196 26.5257 53.1379 26.5667 53.1743 26.5986C53.2108 26.626 53.229 26.6647 53.229 26.7148C53.229 26.7331 53.2244 26.7513 53.2153 26.7695C53.2791 26.7559 53.3407 26.7376 53.3999 26.7148C53.4591 26.6875 53.5207 26.6738 53.5845 26.6738C53.6209 26.6738 53.6551 26.6807 53.687 26.6943C53.7235 26.708 53.7554 26.7262 53.7827 26.749C53.7782 26.7718 53.7736 26.7969 53.769 26.8242C53.769 26.8516 53.769 26.8789 53.769 26.9062C53.769 26.9564 53.769 27.0042 53.769 27.0498C53.7736 27.0908 53.7782 27.1364 53.7827 27.1865C53.7463 27.2503 53.703 27.3073 53.6528 27.3574C53.6073 27.4076 53.5754 27.4714 53.5571 27.5488C53.4888 27.5488 53.4272 27.5648 53.3726 27.5967C53.3224 27.624 53.2746 27.6559 53.229 27.6924C53.1834 27.7243 53.1379 27.7562 53.0923 27.7881C53.0467 27.8154 52.9966 27.8291 52.9419 27.8291C52.8735 27.8291 52.8257 27.82 52.7983 27.8018C52.771 27.779 52.7505 27.7562 52.7368 27.7334C52.7231 27.7106 52.7095 27.6901 52.6958 27.6719C52.6867 27.6536 52.6639 27.6468 52.6274 27.6514C52.6183 27.5921 52.6001 27.5374 52.5728 27.4873C52.5454 27.4326 52.5158 27.3802 52.4839 27.3301C52.4565 27.2799 52.4269 27.2298 52.395 27.1797C52.3677 27.125 52.3472 27.0703 52.3335 27.0156C52.3062 26.8971 52.2948 26.7741 52.2993 26.6465C52.3039 26.5189 52.2834 26.3958 52.2378 26.2773C52.2469 26.2135 52.2537 26.1497 52.2583 26.0859C52.2629 26.0176 52.2651 25.9515 52.2651 25.8877C52.2651 25.7601 52.2606 25.6348 52.2515 25.5117C52.2469 25.3841 52.2424 25.2542 52.2378 25.1221C52.2059 25.0811 52.1854 25.0355 52.1763 24.9854C52.1717 24.9307 52.1672 24.8783 52.1626 24.8281C52.1489 24.8145 52.133 24.8008 52.1147 24.7871C52.1011 24.7734 52.092 24.7552 52.0874 24.7324C52.0509 24.7233 52.0236 24.7188 52.0054 24.7188C51.9416 24.7188 51.8869 24.7347 51.8413 24.7666C51.8003 24.7939 51.7616 24.8076 51.7251 24.8076C51.6886 24.8076 51.6545 24.8031 51.6226 24.7939C51.5907 24.7848 51.5588 24.7803 51.5269 24.7803C51.4995 24.7803 51.4836 24.7871 51.479 24.8008C51.479 24.8099 51.4699 24.819 51.4517 24.8281C51.438 24.8372 51.4061 24.8464 51.356 24.8555C51.3058 24.8646 51.2489 24.8737 51.1851 24.8828C51.1258 24.8874 51.0666 24.8919 51.0073 24.8965C50.9526 24.901 50.9162 24.9033 50.8979 24.9033C50.825 24.9033 50.7703 24.8896 50.7339 24.8623C50.6929 24.8304 50.645 24.7962 50.5903 24.7598C50.5994 24.7324 50.604 24.7142 50.604 24.7051C50.604 24.6595 50.5903 24.623 50.563 24.5957C50.5356 24.5638 50.522 24.5365 50.522 24.5137C50.522 24.4635 50.5425 24.4248 50.5835 24.3975C50.62 24.3701 50.6405 24.3268 50.645 24.2676C50.7498 24.222 50.8569 24.1878 50.9663 24.165C51.0757 24.1423 51.1873 24.124 51.3013 24.1104C51.4152 24.0967 51.5269 24.0807 51.6362 24.0625C51.7502 24.0443 51.8618 24.0146 51.9712 23.9736C52.0031 23.9782 52.0327 23.9827 52.0601 23.9873C52.092 23.9873 52.1239 23.9873 52.1558 23.9873C52.2925 23.9873 52.4269 23.9736 52.5591 23.9463C52.6958 23.9144 52.8348 23.8984 52.9761 23.8984C53.0125 23.8984 53.049 23.9007 53.0854 23.9053C53.1219 23.9098 53.1584 23.9167 53.1948 23.9258C53.3771 23.8984 53.5571 23.8688 53.7349 23.8369C53.9172 23.805 54.104 23.7777 54.2954 23.7549C54.3866 23.7458 54.4754 23.7389 54.562 23.7344C54.6532 23.7253 54.7443 23.7139 54.8354 23.7002C54.8674 23.6956 54.8901 23.6888 54.9038 23.6797C54.922 23.666 54.9312 23.641 54.9312 23.6045C54.9722 23.6227 55.0177 23.6318 55.0679 23.6318C55.1453 23.6318 55.2205 23.6182 55.2935 23.5908C55.3664 23.5635 55.4416 23.5498 55.519 23.5498C55.5373 23.5498 55.5532 23.5521 55.5669 23.5566C55.5806 23.5566 55.5942 23.5566 55.6079 23.5566C55.6398 23.5566 55.6558 23.543 55.6558 23.5156C55.6603 23.4837 55.6831 23.4632 55.7241 23.4541C55.756 23.445 55.8016 23.4382 55.8608 23.4336C55.9201 23.429 55.9816 23.4245 56.0454 23.4199C56.1138 23.4108 56.1753 23.4017 56.23 23.3926C56.2892 23.3789 56.3325 23.3607 56.3599 23.3379L56.4077 23.2627C56.4897 23.2673 56.549 23.3037 56.5854 23.3721C56.6265 23.4359 56.6493 23.5065 56.6538 23.584C56.672 23.6022 56.6971 23.6113 56.729 23.6113C56.7655 23.6068 56.7974 23.6045 56.8247 23.6045H56.8452Z" fill="#207A80"/>
<path d="M69.0927 18.8619C75.6488 17.358 90.5837 18.2402 97.8749 33.8001" stroke="#207A80" stroke-linecap="round" stroke-linejoin="round"/>
<path d="M95.9168 39.46L100.364 40.9987L101.903 36.5516" stroke="#207A80" stroke-linecap="round" stroke-linejoin="round"/>
</svg>
