<svg width="51" height="28" viewBox="0 0 51 28" fill="none" xmlns="http://www.w3.org/2000/svg">
<path d="M50.7032 0.345871C50.5348 0.189427 50.198 0.137399 50.0296 0.189426L22.9686 5.24869C22.4634 5.35311 22.407 5.61397 22.351 5.71802L19.0947 14.2718C18.9823 14.5327 19.0387 14.8456 19.2631 15.054C19.5439 15.3669 19.9931 15.3149 20.0491 15.3149L25.7758 14.1154L27.067 17.1405C27.1794 17.2969 27.2354 17.4534 27.5722 17.5578C27.853 17.6622 28.1338 17.5578 28.2458 17.5058L33.8601 14.5851L35.9373 18.0275C36.0497 18.236 36.3865 18.4448 36.6673 18.3928C36.9481 18.3928 37.1725 18.2884 37.3409 18.0799L50.8714 1.33742C50.9278 1.28467 51.2086 0.763307 50.7034 0.345964L50.7032 0.345871ZM21.1158 13.4895L23.193 8.11732L25.1582 12.6549L21.1158 13.4895ZM27.8529 14.7935L24.2597 6.50053L43.4607 2.90121C43.4607 2.90121 31.053 8.22135 30.9407 8.27341C30.7723 8.37783 30.6599 8.48189 30.6039 8.63869L27.8529 14.7935ZM29.4812 15.054L31.4464 10.6728L33.0184 13.2286L29.4812 15.054ZM36.7795 16.2539L32.5688 9.31693L47.6152 2.90166L36.7795 16.2539Z" fill="white"/>
<path d="M0.848061 27.1553C0.398865 27.1553 0.062075 26.8424 0.00607205 26.4251C-0.0499298 26.0078 0.286869 25.6429 0.792058 25.5905C1.74644 25.5385 2.70083 25.382 3.59922 25.2252C5.22717 24.9123 7.80996 24.2866 10.1119 23.3476C9.77514 23.2956 9.38196 23.1911 9.10156 23.0347C7.47361 22.4089 6.40678 21.209 6.01358 19.5923C5.56438 17.819 6.23798 16.0458 7.75392 14.7419C9.32593 13.3859 11.5155 12.9162 13.3122 13.49C15.0525 14.0117 16.1754 15.4721 16.6246 17.5582C16.9054 19.0186 16.5122 20.427 15.5018 21.6265C17.8598 21.0527 20.2742 20.0617 21.7897 19.1751C22.1829 18.9666 22.6881 19.0707 22.9125 19.3836C23.1369 19.7488 23.0249 20.2182 22.6881 20.4266C20.3861 21.7826 16.6246 23.2429 13.2562 23.5038C11.1227 24.8597 7.97867 25.9551 3.93635 26.7897C2.98197 26.9982 1.97114 27.1026 0.904815 27.207C0.904032 27.1554 0.904033 27.1554 0.84803 27.1554L0.848061 27.1553ZM11.7399 14.742C10.7295 14.742 9.66265 15.1593 8.8203 15.8375C7.69754 16.7761 7.24829 17.976 7.58515 19.2274C7.86595 20.427 8.53954 21.1572 9.71869 21.6268C10.5607 21.9397 11.5714 22.0441 12.6943 21.9921C14.3222 20.8966 15.3891 19.4887 15.0523 17.7675C14.7715 16.2552 13.9855 15.2641 12.8627 14.8988C12.4695 14.7944 12.1327 14.742 11.74 14.742L11.7399 14.742Z" fill="white"/>
</svg>
