<svg width="1440" height="391" viewBox="0 0 1440 391" fill="none" xmlns="http://www.w3.org/2000/svg">
<path d="M1440.42 1C1398.78 44.396 1352.85 83.0272 1299.89 115.556C1260.51 139.741 1217.72 159.021 1176 178.667C1117.97 205.994 1059.55 232.77 999.778 256.111C872.171 305.944 735.616 307.875 600.222 311.222C459.351 314.704 318.915 317.04 179.556 340.667C121.833 350.453 65.8236 370.045 9.77777 386.444C5.86829 387.588 1.94137 388.705 -2 389.8M1440.42 166.636C1347.43 178.624 1253.72 179.664 1158.67 178C1045.59 176.021 932.405 169.655 819.333 174.667C684.285 180.653 548.749 191.304 414.667 208.667C298.304 223.735 183.045 251.224 69.5555 280.667C45.4201 286.928 21.5739 294.192 -2 302.263M1440.42 299.649C1269.93 285.252 1101.16 257.019 931.222 237.556C798.478 222.352 665.097 211.356 531.778 202.667C469.399 198.601 409.203 195.524 346.889 195.333C240.7 195.009 133.927 200.85 29.7778 222.556C19.1414 224.772 8.53937 227.089 -2 229.575" stroke="#8681D5" stroke-width="2" stroke-linecap="round"/>
</svg>
