<?xml version="1.0" encoding="utf-8"?>
<!-- Generator: Adobe Illustrator 25.3.1, SVG Export Plug-In . SVG Version: 6.00 Build 0)  -->
<svg version="1.1" id="Calque_1" xmlns="http://www.w3.org/2000/svg" xmlns:xlink="http://www.w3.org/1999/xlink" x="0px" y="0px"
	 viewBox="0 0 171 65" style="enable-background:new 0 0 171 65;" xml:space="preserve">
<style type="text/css">
	.st0{fill:#333333;}
	.st1{fill:#6862CA;}
</style>
<g>
	<path class="st0" d="M9.9,51c-1.9,0-3.6-0.3-5.1-1c-1.5-0.6-2.7-1.6-3.5-2.8C0.5,46.1,0,44.7,0,43h5.7c0.1,1.1,0.5,2,1.1,2.6
		c0.7,0.6,1.7,1,2.9,1c1.3,0,2.2-0.3,3-0.9c0.7-0.6,1.1-1.4,1.1-2.4c0-0.8-0.2-1.4-0.7-2c-0.5-0.5-1.1-0.9-1.8-1.2
		c-0.7-0.3-1.7-0.6-3-1c-1.7-0.5-3.2-1-4.3-1.5c-1.1-0.5-2-1.3-2.8-2.3c-0.8-1-1.1-2.4-1.1-4.1c0-1.6,0.4-3,1.2-4.1
		c0.8-1.2,1.9-2.1,3.3-2.7c1.4-0.6,3.1-1,4.9-1c2.8,0,5,0.7,6.7,2c1.7,1.3,2.7,3.2,2.9,5.6h-5.9c-0.1-0.9-0.4-1.7-1.2-2.3
		c-0.7-0.6-1.7-0.9-2.9-0.9c-1,0-1.9,0.3-2.5,0.8c-0.6,0.5-0.9,1.3-0.9,2.3c0,0.7,0.2,1.3,0.7,1.8c0.5,0.5,1.1,0.8,1.8,1.2
		c0.7,0.3,1.7,0.6,3,1c1.7,0.5,3.2,1,4.3,1.5c1.1,0.5,2,1.3,2.8,2.3c0.8,1,1.2,2.4,1.2,4c0,1.4-0.4,2.8-1.1,4
		c-0.7,1.2-1.8,2.2-3.3,3C13.6,50.6,11.9,51,9.9,51z"/>
	<path class="st0" d="M29.4,28.3V35h9v4.3h-9v7.1h10.2v4.4H24V23.9h15.5v4.4H29.4z M35.8,18.4l-8.8,4v-3.8l8.8-4.6V18.4z"/>
	<path class="st0" d="M68.5,23.9l-9.8,26.8h-6.5l-9.8-26.8h5.7l7.4,21.3l7.3-21.3H68.5z"/>
	<path class="st0" d="M77.1,28.3V35h9v4.3h-9v7.1h10.2v4.4H71.7V23.9h15.5v4.4H77.1z"/>
	<path class="st0" d="M105.9,50.7L100,40.3h-2.5v10.4h-5.4V23.9h10c2.1,0,3.8,0.4,5.3,1.1c1.5,0.7,2.5,1.7,3.3,3
		c0.7,1.2,1.1,2.6,1.1,4.1c0,1.8-0.5,3.4-1.5,4.8c-1,1.4-2.5,2.4-4.6,2.9l6.4,10.9H105.9z M97.4,36.3h4.5c1.5,0,2.5-0.3,3.3-1
		c0.7-0.7,1.1-1.7,1.1-3c0-1.2-0.4-2.2-1.1-2.8c-0.7-0.7-1.8-1-3.3-1h-4.5V36.3z"/>
	<path class="st0" d="M122,23.9v26.8h-5.4V23.9H122z"/>
	<path class="st0" d="M150.2,50.7h-5.4l-12.1-18.4v18.4h-5.4V23.9h5.4l12.1,18.4V23.9h5.4V50.7z"/>
	<path class="st0" d="M160.8,28.3V35h9v4.3h-9v7.1H171v4.4h-15.5V23.9H171v4.4H160.8z"/>
</g>
<path class="st1" d="M152.7,32c-0.2-0.2-0.4-0.3-0.6-0.3c-0.1,0-0.2,0-0.3,0.1c-0.1,0.1-0.6,0.6-1.3,1.5c-0.8,1-1.5,1.8-2.1,2.6
	c-1.3,1.5-2.6,2.9-3.8,4.1c-1.2,1.2-1.9,1.8-2.1,1.8c-0.1,0-0.2-0.5-0.2-1.6c0-2.1,0.9-6.2,2.6-12.3c0.5-1.6,0.7-2.6,0.7-3v-0.2
	c-0.1-0.8-0.5-1.2-1.2-1.2c-0.9,0-2.3,1.3-4.3,3.9c-0.8,1.1-2.2,3.1-4.2,6c-1,1.4-2.1,2.8-3.3,4.1c0-1,0.1-2,0.3-2.8
	c0.4-1.9,0.8-3.1,1.2-3.5c0.3-0.3,0.4-0.7,0.4-1.4c0-0.1,0-0.2,0-0.4s-0.1-0.4-0.3-0.5c-0.2-0.2-0.4-0.3-0.7-0.3
	c-0.3,0-0.5,0.1-0.7,0.3c-0.2,0.2-0.5,0.7-0.9,1.7c-0.2,0.5-0.3,0.9-0.5,1.3c-0.2,0.1-0.5,0.3-0.7,0.6c-0.5,0.5-1.4,1.2-2.6,2.1
	c-1.1,0.8-1.8,1.2-2.2,1.2s-0.6-0.5-0.6-1.5c0-0.5,0.1-1.3,0.2-2.1c0.1-0.9,0.2-1.5,0.2-2c-0.2-0.7-0.6-1-1-1c-0.1,0-0.2,0-0.3,0
	c-0.1-0.1-0.1-0.3-0.1-0.7c0-1.1-0.4-1.6-1.2-1.6c-0.4,0-0.9,0.1-1.5,0.4c-1.5,1-2.9,2.5-4.1,4.6c0,0-0.1,0-0.1,0
	c-0.3,0.1-0.8,0.2-1.3,0.2c-0.8,0-1.3-0.1-1.6-0.3c-0.8-0.6-1.2-1.4-1.2-2.3l0-0.6c0.4-1.3,0.7-2,0.7-2.3c0-0.3-0.1-0.5-0.3-0.6
	c-0.1-0.2-0.3-0.3-0.6-0.3c-0.2,0-0.4,0.1-0.6,0.2c-0.2,0.1-0.6,0.7-1,1.6c-2.5,4.8-4.7,8.3-6.5,10.4c-0.7,0.8-1.1,1.2-1.3,1.2
	c-0.1,0-0.1-0.1-0.1-0.3c0-1,0.2-2.3,0.5-3.7c0.7-2.5,1.3-4.5,1.8-5.8c0.1-0.3,0.2-0.5,0.2-0.7c0-0.1-0.1-0.3-0.2-0.5
	c-0.1-0.2-0.2-0.3-0.3-0.4c-0.1-0.1-0.4-0.1-0.8-0.1c-0.2,0-0.4,0.1-0.5,0.3c-0.1,0.2-0.6,1.6-1.4,4.2c-0.2,0.1-0.3,0.2-0.5,0.4
	c-1.2,2-2.2,3.5-2.9,4.6c-0.8,1.1-1.7,2.2-2.8,3.3c-2.6,2.9-4.6,4.4-6,4.4c-0.3,0-0.5,0-0.6-0.1c-0.7-0.3-1-1.6-1-3.9
	c0-2.6,0.3-5.4,0.9-8.3c0.5-2.5,1.4-6.3,2.8-11.4c1.1-4,1.7-6.5,1.9-7.4c0.3-1.2,0.4-1.9,0.4-2.3c0-0.2,0-0.3-0.1-0.4
	c-0.1-0.4-0.4-0.6-0.8-0.6c-0.5,0-0.9,0.4-1.1,1.3l-3.9,14.9c-0.5,1.9-0.9,3.7-1.2,5.3c-0.1,0.1-0.3,0.1-0.4,0.2
	c-0.4,0.2-2.1,1.2-5,2.8l0-2c0-0.6,0-1.2,0-1.7c-0.1-1.7-0.8-2.6-2-2.6c-0.6,0-1.3,0.3-2,0.8c-0.8,0.5-1.9,1.5-3.5,3
	c-3,2.9-5,4.4-6,4.4c-0.3,0-0.5-0.1-0.6-0.3c-0.1-0.2-0.1-0.6-0.1-1.1c0-0.9,0.2-1.9,0.6-2.9c0.4-1.1,0.8-1.7,1.3-2
	c0.3-0.1,0.5-0.4,0.6-0.8c0.1-0.3,0.2-0.5,0.2-0.8c0-0.3-0.1-0.5-0.2-0.8c-0.3-0.3-0.5-0.4-0.8-0.5c-0.5,0-1.1,0.5-1.7,1.6
	c-0.5,0.9-0.9,1.7-1.2,2.5c-2.8,0-8.5,2.2-17.2,6.4l-4,2c-1.7-0.3-3.7-0.4-5.8-0.4c-4.4,0-10.6,0.6-18.5,1.9c-3.3,0.5-6,0.8-8.1,0.8
	c-1.2,0-1.9-0.1-2.3-0.3c-0.8-0.4-1.1-1.1-1.1-2c0-1.3,0.8-3.5,2.4-6.6c1.6-3.1,4.4-7.1,8.3-12.1c1.2-1.5,2.9-3.2,5-5.3
	c2.1-2.1,3.9-3.8,5.4-5c7.7-6,14-9,18.7-9c1.9,0,2.8,0.8,2.8,2.5c0,1.4-0.4,3.2-1.3,5.4c-0.7,1.7-1,2.8-1,3.2c0,0.3,0.2,0.6,0.6,0.7
	c0.1,0.1,0.2,0.1,0.3,0.1c0.2,0,0.5-0.1,0.7-0.4c0.3-0.3,0.6-1.1,1.1-2.3c1.1-2.7,1.7-4.8,1.7-6.5c0-0.9-0.1-1.5-0.3-2
	c-0.2-0.5-0.6-1-1.1-1.4c-0.8-0.8-2-1.1-3.6-1.1h-0.2c-7.3,0.5-15.8,5.4-25.4,14.6c-3.6,3.7-6.9,7.7-9.9,12C10.1,32.6,8,37.2,8,40.1
	c0,1.8,0.8,3.1,2.5,3.9c0.3,0.1,0.5,0.2,0.8,0.3c0.2,0.1,0.6,0.1,1,0.1c0.4,0,1.1,0,1.9,0c1.8,0,3.5-0.1,5-0.4
	c8.1-1.2,13.2-1.9,15.6-2c3-0.1,5.2-0.2,6.8-0.2c0.9,0,1.3,0,1.3,0c-0.1,0-0.3,0.2-0.7,0.5c-0.4,0.3-1,0.6-1.6,1
	C28.6,50.4,22.7,56,22.7,60.1c0,1.6,1,2.6,3.1,3.1c0.3,0.1,0.7,0.1,1.1,0.1c2.1,0,4.5-0.6,7.3-1.7c3.5-1.5,6.8-3.6,9.9-6.1
	c4.8-4,7.2-7.4,7.2-10.3c0-0.4-0.1-0.9-0.2-1.3c-0.1-0.4-0.4-0.9-0.9-1.4c-0.5-0.6-0.9-1-1.3-1.3c0,0,0,0,0,0c0-0.2,1-0.8,3.1-1.7
	c3.9-1.9,7.5-3.4,10.9-4.5c1.7-0.6,2.9-0.9,3.6-1c-0.1,0.6-0.2,1.2-0.2,1.7c0,1.4,0.4,2.4,1.3,2.9c0.3,0.3,0.8,0.4,1.4,0.4
	c0.9,0,1.9-0.4,3-1.1c0.9-0.6,2.4-1.9,4.3-3.8c2.3-2.3,3.7-3.4,4.1-3.4c0.1,0,0.2,0.5,0.2,1.6l0,1.2c-0.1,1.4-0.2,2.3-0.3,2.7
	c-0.1,0.3-0.6,0.8-1.4,1.3c-2.5,1.9-4.9,4.1-7.2,6.5c-3.4,3.5-5.8,6.8-7.3,9.8c-1.1,2.3-1.6,4.3-1.6,6.1c0,1.6,0.4,2.8,1.3,3.8
	c0.8,0.9,1.6,1.3,2.4,1.3c0.6,0,1.3-0.2,2.1-0.6c2.4-1.3,4.8-3.8,7-7.5c2.6-4.3,4.5-9.3,5.7-14.9c0.3-1.6,0.6-3,0.9-4.5
	c2.5-1.5,4.3-2.6,5.4-3.2c-0.1,0.4-0.1,0.8-0.2,1.1c-0.2,1.6-0.3,3.4-0.3,5.3c0,2.1,0.3,3.6,0.9,4.5c0.6,0.9,1.4,1.4,2.6,1.4
	c0.9,0,1.9-0.3,2.8-0.9c1-0.6,2.2-1.6,3.5-2.9c1.8-1.8,3.4-3.7,4.7-5.6c-0.1,0.4-0.1,0.8-0.1,1.1c0,1.6,0.5,2.5,1.4,2.8l0.3,0
	c1.5,0,3.6-2.2,6.2-6.5l2.3-3.7c0,0.2,0.1,0.5,0.3,1c0.3,0.4,0.6,0.8,0.9,1.1c0.3,0.3,0.8,0.5,1.2,0.6c0.5,0.1,1.1,0.2,1.9,0.2
	c0.1,0,0.1,0,0.2,0c-0.3,0.6-0.5,1.1-0.8,1.7c-0.5,1.4-0.8,2.5-0.8,3.4c0,0.8,0.2,1.4,0.7,1.8c0.3,0.3,0.5,0.4,0.9,0.4
	c0.4,0,1-0.3,1.7-0.9c0.7-0.6,1.9-2.1,3.5-4.6l1.7-2.6l0.1,1.3c0.2,2.2,1,3.3,2.5,3.3c0.8,0,1.8-0.4,3-1.3c0.6-0.4,1.2-0.9,1.8-1.4
	c-0.1,0.5-0.1,1-0.1,1.4c0,1.3,0.3,2.2,0.8,2.7c0.3,0.2,0.5,0.3,0.9,0.3c0.5,0,1.2-0.4,2-1.1c0.8-0.8,2.3-2.6,4.3-5.6
	c1.5-2.1,2.6-3.7,3.5-4.8c0.6-0.8,0.9-1.1,1-1.1v0.1c0,0.2-0.1,0.9-0.4,1.9c-1.6,5.2-2.3,9-2.3,11.5c0,2.3,0.7,3.4,2.1,3.4
	c0.7,0,1.7-0.6,2.9-1.8c2.2-2,4.2-4.2,6.1-6.7c1.2-1.6,1.8-2.5,1.8-2.7C153,32.4,152.9,32.1,152.7,32z M48.9,44
	c0.3,0.3,0.4,0.8,0.4,1.2c0,1.5-1.3,3.5-3.8,6.1c-2.9,3-6.4,5.5-10.5,7.5c-1.6,0.8-3,1.4-4.1,1.7c-1.3,0.4-2.7,0.6-4.1,0.6
	c-1.5,0-2.2-0.4-2.2-1.1c0-0.3,0.1-0.7,0.4-1.1c0.9-2,2.8-4.1,5.7-6.5c1.4-1.1,3.3-2.5,5.6-4c2.3-1.6,4.4-2.9,6.4-4.1
	c2-1.2,3.2-1.8,3.7-1.9c0.3,0,0.8,0.2,1.3,0.5C48.3,43.3,48.7,43.6,48.9,44z M79.5,40.9l-0.4,1.9c-1.9,7.7-4.8,13.5-8.5,17.6
	c-0.9,0.9-1.7,1.6-2.3,2c-0.5,0.3-1,0.5-1.5,0.6h-0.3c-0.3,0-0.6-0.2-0.9-0.5c-0.6-0.7-0.9-1.6-0.9-2.7c0-1.4,0.5-3.2,1.5-5.3
	c1.7-3.8,5.4-8.1,10.9-13c1.6-1.4,2.4-2.1,2.6-2.1c0,0,0,0,0,0c0,0,0,0.1,0,0.1C79.8,39.8,79.7,40.2,79.5,40.9z M120.1,34.2
	c-2,2.9-3.1,4.4-3.3,4.4c0,0,0,0,0-0.1c0-0.2,0.1-0.6,0.3-1.3c0.9-3.1,2.6-5.7,5-8.1c0,0.7,0,1.1,0.1,1.3c0.1,0.1,0.1,0.1,0.1,0.2
	C122.4,30.8,121.6,32.1,120.1,34.2z"/>
</svg>
